<svg xmlns="http://www.w3.org/2000/svg" xmlns:xlink="http://www.w3.org/1999/xlink" viewBox="0 0 249 319.3"><defs><style>.cls-1{fill:none;}.cls-2{fill:url(#Degradado_sin_nombre_3);}.cls-3{clip-path:url(#clip-path);}.cls-4{fill:#e4e4e4;}.cls-5{fill:#496aa9;}.cls-6{fill:#5279a0;}.cls-7{fill:#638bbf;}.cls-8{fill:#5e83b7;}.cls-9{fill:#2c4b77;}.cls-10{fill:#a7c8d8;}.cls-11{fill:#90b5d0;}.cls-12{fill:#c5dbe9;}.cls-13{fill:#395375;}.cls-14{fill:#060606;}.cls-15{fill:#80aed8;}.cls-16{fill:#293f56;}.cls-17{fill:#3b5d93;}.cls-18{fill:#6689bc;}.cls-19{fill:#a9c7db;}.cls-20{fill:#7ea4ce;}.cls-21{fill:#42618e;}.cls-22{fill:#fff;}</style><radialGradient id="Degradado_sin_nombre_3" cx="-1628.98" cy="521.71" r="0.82" gradientTransform="matrix(-0.48, 210.3, -177.99, -0.4, 92207.18, 342930.75)" gradientUnits="userSpaceOnUse"><stop offset="0" stop-color="#fff"/><stop offset="1" stop-color="#00dbff"/></radialGradient><clipPath id="clip-path"><rect id="SVGID" class="cls-1" x="30.9" y="69.76" width="217.03" height="249.53"/></clipPath></defs><g id="Capa_2" data-name="Capa 2"><g id="Capa_1-2" data-name="Capa 1"><path class="cls-2" d="M205,0H44.08A44.09,44.09,0,0,0,0,44.08V258.77a44.08,44.08,0,0,0,44.08,44.08h127.7a44.07,44.07,0,0,0,43.56-37.35L248.48,50.81A44.11,44.11,0,0,0,205,0Z"/><g class="cls-3"><path class="cls-4" d="M160.4,93.93A19.55,19.55,0,0,0,146,87.51c-11.14,0-20.19,9.6-20.19,21.44a21.9,21.9,0,0,0,.25,3.34l-1.34-.78-.51-.33-.66-.44-.2-.14-.39-.29-.57-.42-.17-.14h0l-.18-.14-.14-.1,0,0h0l-.14-.11-.17-.14-.17-.14-.33-.28-.07-.07-.13-.11h0a.67.67,0,0,1-.15-.14l-.13-.11-.13-.11-.07-.07-.07-.07-.11-.1h0l-.13-.12-.67-.66-.11-.12-.1-.11-.53-.57h0l-.05,0,0-.06,0,0-.1-.12v0l0,0-.1-.13-.07-.08h0c-.08-.1-.16-.19-.22-.28l0,0h0l-.07-.09-.07-.1-.2-.3V105a.36.36,0,0,1-.07-.1h0l-.06-.09h0l-.09-.15v-.1a1.3,1.3,0,0,1-.08-.17v-.12c0-.07-.06-.14-.08-.21h0c-.7-4.75.54-7.31.6-7.43,6.81-15,17.66-17.41,17.66-17.41a50.74,50.74,0,0,1,6.26-1,14.13,14.13,0,0,1,8.1,1.73A20,20,0,0,1,160.4,93.93Z"/><path class="cls-4" d="M243.89,150.83c-.08.17-.15.33-.24.49a15.49,15.49,0,0,1-2.67,3.57,7,7,0,0,1-2.6,1.68,16.42,16.42,0,0,1-10,.19c-.38-.13-.78-.25-1.13-.39a20.29,20.29,0,0,0-10.62-37.58,14.8,14.8,0,0,0-1.77.07,26.64,26.64,0,0,1,16.42-3.29,17.76,17.76,0,0,1,12,8.41l.22.35A27.75,27.75,0,0,1,243.89,150.83Z"/><path class="cls-5" d="M247.94,163.07c-.07.15-1.74,3.46-16.12,6.05a24.65,24.65,0,0,1-5.94.39l-1.17-.21a5.35,5.35,0,0,1-.85-.27c-.28-.1-.56-.2-.84-.32-.56-.22-1.1-.46-1.65-.71s-1.08-.5-1.6-.79l-.78-.4-.5-.27-.29-.15-.79-.42-.78-.44-.78-.44c-.27-.14-.52-.3-.78-.46-.51-.3-1-.59-1.53-.91l-1.52-.94c-.5-.31-1-.65-1.5-1s-1-.64-1.48-1l-1.48-1-.74-.5-.73-.52-1.46-1-.73-.51-.71-.53-2.89-2.11-2.9-2.13c-1-.7-2-1.4-2.94-2.09-2-1.39-4-2.73-6-4s-4.09-2.56-6.18-3.77-4.23-2.35-6.41-3.43-4.39-2.07-6.64-3-4.55-1.74-6.88-2.44-4.69-1.33-7-1.82l-1.78-.36-1.8-.31-1.8-.27-1.81-.21-3.56-.42-3.54-.45-3.54-.51c-1.18-.18-2.34-.37-3.52-.58l-1.76-.31-1.76-.32-1.75-.36-1.75-.39c-.59-.12-1.16-.27-1.74-.4s-1.15-.29-1.73-.44c-1.16-.31-2.35-.64-3.44-1l-.78-.38c-.66-.35-1.3-.72-1.92-1.13-.32-.2-.62-.41-.93-.63l-.45-.33-.45-.34-.37-.28c-3.69-3.64-7-7.82-8.61-12.2h0a13.9,13.9,0,0,1-.36-9.2,15.08,15.08,0,0,1,11.17-4.86,13.65,13.65,0,0,0-2.58,11c-1.43-2-2.63-2.73-3.49-2.91a1.52,1.52,0,0,0-.6,0,1.65,1.65,0,0,0-.55.23,1.68,1.68,0,0,0-.41.43,1.41,1.41,0,0,0-.21.56c-.44,2.35-.28,8.56,10.74,14.61a71.57,71.57,0,0,0,29.14,8.07s36,3.28,61.19,30.15C210.59,158.4,229.27,175.55,247.94,163.07Z"/><path class="cls-6" d="M218.47,166.55c-1-.27-1.88-.56-2.71-.88l-1.24-.61c-1.23-.63-2.44-1.28-3.64-2-1.77-1.08-4-2.49-6.36-4q-2.67-1.83-5.21-3.79-.9-.69-1.77-1.41l-.9-.72-.92-.69c-1.23-.92-2.49-1.78-3.77-2.62-2.56-1.65-5.18-3.21-7.82-4.69s-5.35-2.91-8.06-4.29c-1.36-.68-2.72-1.36-4.09-2l-1-.49-.52-.25-.26-.12-.07,0H170l-.14-.05-1.09-.42q-.54-.21-1.08-.39A121.53,121.53,0,0,0,150,132.4c-3-.57-6-1.07-9-1.56l-.95-.16c-3.13-.72-5.05-1.1-5.05-1.1-1-.07-2-.16-2.91-.28h0A61.16,61.16,0,0,1,123.4,127a28.17,28.17,0,0,1-3.31-1.38h0c1.13.41,2.28.74,3.43,1l1.73.44c.58.14,1.16.29,1.75.4s1.16.27,1.75.39l1.75.36,1.75.32c.59.12,1.18.21,1.77.31,1.17.21,2.35.39,3.52.58s2.35.34,3.54.51l3.55.45,3.55.42,1.81.22,1.8.26,1.79.32,1.79.35c2.38.49,4.74,1.11,7,1.82s4.62,1.56,6.87,2.44,4.47,1.92,6.65,3,4.31,2.22,6.41,3.42,4.15,2.47,6.18,3.78,4,2.65,6,4c1,.69,2,1.38,2.94,2.08s2,1.41,2.91,2.13l2.88,2.12.72.52.73.51,1.46,1c.24.18.49.36.74.52l.73.5,1.47,1c.49.34,1,.65,1.49,1s1,.66,1.5,1l1.52.95c.51.32,1,.61,1.56.91.26.16.51.32.78.46l.79.44.78.44.78.42Z"/><path class="cls-7" d="M247.94,163.07c-18.67,12.51-37.35-4.69-37.35-4.69-25.23-26.87-61.2-30.15-61.2-30.15s-15.13-.38-29.13-8.08c-11.73-6.44-11.15-13.05-10.65-15a1.13,1.13,0,0,1,1-.85c.84-.08,2.34.29,4.2,3,0,0,20,21,43.33,6.62,0,0,20.34-15.33,1.35-37.47,0,0-6.26-6.93-12.24-5.37,14.08-5.32,19.95,7.32,24.89,14.08,6.18,8.46,38.86,18.68,38.86,18.68s14.5-3.13,23,0,9.58,20.55,9.58,20.55l-.22-.35c-6.2-12.37-17.9-11.84-23-10.91a13.57,13.57,0,0,0-4.32,1.56,37,37,0,0,0-8.17,6.16c-5.12,5.25-5.18,9.65-5.09,10.75v.68a25.2,25.2,0,0,0,.52,4.58,26.73,26.73,0,0,0,9.47,15.64A32,32,0,0,0,223.76,158a52.06,52.06,0,0,0,12.65,1.92,2.89,2.89,0,0,0,1.16-.19,2.75,2.75,0,0,0,1-.62,21.56,21.56,0,0,0,5.1-7.8c.09-.17.17-.33.25-.5C247.14,156.54,247.9,160.6,247.94,163.07Z"/><path class="cls-5" d="M158.1,113.87c-23.36,14.38-43.32-6.61-43.32-6.61a13.65,13.65,0,0,1,2.58-11c-.06.12-1.31,2.68-.6,7.44h0c.13.83,2.2,3.67,6,6.47l.19.14.39.28.21.15.65.44.51.32c.43.28.88.54,1.34.79a33.12,33.12,0,0,0,6.26,2.72c6.61,2.08,15.16,2.45,25.32-1.71a18.85,18.85,0,0,0,6.05-15.81c-.84-10.31-11.63-25.86-28.67-18.7A43.22,43.22,0,0,1,147.21,71c6-1.56,12.23,5.37,12.23,5.37C178.44,98.54,158.1,113.87,158.1,113.87Z"/><path class="cls-5" d="M183.44,306.67a8.93,8.93,0,0,1-3.13,1.14c-8.23.58-9.93-5.58-9.93-5.58.78-11.54-1.28-25.61-1.28-25.61A66.54,66.54,0,0,0,180,267.54c-1.17,2.44-3.54,5.6-8.15,9.44,0,0,2,14.5,1.39,24.59,0,0,5.17-3,8.7-1.13,0,0-7-.38-7.09,3.91C174.84,304.35,176.86,308.75,183.44,306.67Z"/><path class="cls-5" d="M205.34,305a4.06,4.06,0,0,0-2-1.93,8.49,8.49,0,0,1,3.25.24.56.56,0,0,0,.59-.23.55.55,0,0,0,.1-.32.68.68,0,0,0-.11-.31c-1.06-1.41-3.48-3.6-8.79-4.6a6.08,6.08,0,0,1,.08-.88c9.26.62,11.4,6,11.4,6C210.08,304.94,205.85,305,205.34,305Z"/><path class="cls-8" d="M206.6,303.28a8.63,8.63,0,0,0-3.24-.23,4,4,0,0,1,2,1.93h0c.36,1.4-1,1.9-2.84,1.95a6.06,6.06,0,0,1-3.19-1.28c-2.83-2.25,2.81-3.43,2.81-3.43-5.13-2.25-6.81,2.47-6.81,2.47l-1.73-.34c-2.43-1.26,4.29-5.3,4.29-5.3-6.85-1.56-9.21,4.89-9.21,4.89h-3.07c-.29-.91-1.8-1.7-1.8-1.7a5,5,0,0,1,1.31,3.41,16.17,16.17,0,0,1-1.64,1c-6.57,2.07-8.6-2.35-8.6-2.35.11-4.28,7.1-3.91,7.1-3.91-3.54-1.88-8.71,1.14-8.71,1.14.63-10.09-1.39-24.6-1.39-24.6,4.61-3.83,7-7,8.16-9.43,10.41-10.88,12.63-21.68,13-27.17.15,4.46.88,19.88,3.85,26.95,3.51,8.32,1.52,29.62,1.52,29.62h.06c0,.49-.08.88-.08.88,5.31,1,7.73,3.19,8.78,4.59a.59.59,0,0,1,.12.31.63.63,0,0,1-.09.33.56.56,0,0,1-.27.21A.65.65,0,0,1,206.6,303.28Z"/><path class="cls-9" d="M158.78,293.16c1.94,2.5-9.7,2-14.79,1.43a12.13,12.13,0,0,0-4.44.5c-6.45,1.65-6.45-1.46-6.45-1.46l7.15-2.46,12.62-4.37c7.5,1,9.83,4.7,9.83,4.7C164.29,293.87,158.78,293.16,158.78,293.16Z"/><path class="cls-10" d="M165,279.62a94.9,94.9,0,0,1-12.14,7.18l-12.62,4.34c-13.1.78-32.62.78-29.83-6.63,2.17-5.69,2.54-13,2.4-18.73,1.24-3.12,2.53-6.64,3.79-10.36C122.82,271.58,136.23,288.35,165,279.62Z"/><path class="cls-11" d="M140.25,291.14l-7.15,2.46c-16.68,3.4-28-.13-28-.13l.15-10.16h0l0-.11h0v-.06l.21-.4,0-.12c.27-.56.68-1.43,1.21-2.56a.17.17,0,0,1,.05-.12l.66-1.43a.58.58,0,0,1,.1-.23c.22-.48.44-1,.68-1.53l.3-.67.18-.43.25-.58V275l.66-1.52.51-1.21c.09-.24.2-.48.3-.72l.14-.33.41-1,.32-.78c.11-.28.25-.65.39-1,.33-.83.67-1.69,1-2.58.14,5.72-.23,13-2.4,18.73C107.62,291.92,127.12,291.92,140.25,291.14Z"/><path class="cls-10" d="M192.77,222.09c-1.67-9.59-49.55-19.16-54.34-10.71s-14,14.83-14.13,14.91c.14-.21,7.82-11.34,8.8-20.08s53.56-3.23,59.73,5.58C192.68,215,192.7,218.54,192.77,222.09Z"/><path class="cls-12" d="M247.94,163.47a7.37,7.37,0,0,1-.35,2.51c-9.85,21.82-46.81,27.74-46.81,27.74a8.22,8.22,0,0,0-2.21,1.07l-.27.13-.21.17-.2.16h0l-.19.17h0l-.17.16-.21.2a1.9,1.9,0,0,0-.19.21.57.57,0,0,0-.15.16.77.77,0,0,1-.12.13v.05l-.12.16-.12.15h0l-.15.21h0a1.88,1.88,0,0,0-.16.23h0c-.11.15-.2.3-.3.45v.07l-.12.18h0l-.12.22v.05c-.05.08-.09.16-.13.24-.14.26-.27.53-.39.79-.05.09-.09.19-.13.28l-.12.29-.11.29-.11.3h0c-.07.2-.14.39-.2.6s-.2.63-.29,1a1.11,1.11,0,0,1-.08.3l-.12.46a1.2,1.2,0,0,1-.06.24,3.21,3.21,0,0,1-.08.34c0,.12,0,.23-.07.35l-.07.36-.2.46v.18a3.06,3.06,0,0,1-.07.4c0,.29-.1.59-.14.89a.78.78,0,0,1-.06.36v.44a6.2,6.2,0,0,1-.08.74l0,.39v.39l-.07.78v2.18a4.53,4.53,0,0,1,0,.73c-6.17-8.81-58.7-14.26-59.72-5.58s-8.67,19.88-8.81,20.08c.15-.1,9.39-6.52,14.14-14.91s52.66,1.12,54.35,10.71c.1,4.89.29,9.89.26,14.58,0,.84,0,1.67,0,2.48v1.22h0c-.5,7-4,22.79-23.91,36.24q-2.07,1.56-4.12,3c-28.78,8.73-42.18-8-48.39-24.17a197,197,0,0,0,7.68-29.15l.14-.78c0-.28.09-.54.13-.79s.09-.54.13-.78.08-.55.13-.83.07-.47.1-.7.09-.6.13-.9.07-.5.11-.78c.1-.83.21-1.67.3-2.5l.17-1.56h0a6.28,6.28,0,0,1,.07-.78c0-.54.09-1.08.14-1.62a4,4,0,0,1,0-.78l0-.78,0-.78h0a5.16,5.16,0,0,1,0-.79v-1.6h0v-1.71c0-2.4-.07-4.78-.26-7.1q.12-.37.21-.78s3.78-17.66-8.07-39.35-14.51-32.3-14.51-32.3c-3.52-14.86-1.07-22.8,2.7-27.05a14,14,0,0,0,.37,9.2h0v.26a.75.75,0,0,0,.09.29l.07.21.07.21a.22.22,0,0,0,0,.16l.13.33a.49.49,0,0,0,.06.17l0,.1,0,.1.1.26.12.27c0,.09.07.17.11.26s.12.29.19.44l.2.41c.07.14.15.33.24.49s.27.5.41.79l.14.25.13.23c.1.17.2.35.31.52l.22.36v0l.15.23c.06.08.09.15.15.22v0l.19.28c.22.31.45.63.7.94l.21.28c.09.12.18.24.28.35l.28.3.27.29.21.22.44.45.2.2.18.16.18.18.17.15h0l.15.14.09.08.25.22.38.32.28.25.33.26.33.27.25.2h0l.37.28.45.34.46.33c.3.2.61.43.92.63.63.41,1.27.78,1.93,1.14.24.12.49.25.78.37h0a33.17,33.17,0,0,0,3.32,1.38,62.46,62.46,0,0,0,8.74,2.1h0c.94.12,1.91.22,2.91.28,1.5.11,1.92.38,5,1.1l1,.16c3,.49,6,1,9,1.56A122.31,122.31,0,0,1,167.66,137l1.08.4,1.09.42.14.05.09,0h.07l.26.13.51.24,1,.49c1.38.67,2.74,1.34,4.09,2,2.71,1.38,5.4,2.79,8.06,4.28s5.28,3.06,7.83,4.7c1.27.84,2.54,1.69,3.77,2.6l.91.71.91.71c.58.47,1.16.94,1.76,1.41q2.53,2,5.21,3.78c2.34,1.52,4.59,2.93,6.37,4,1.18.69,2.4,1.34,3.63,2l1.25.62c2.45,1.89,5.91,2.91,8.94,3.64a9,9,0,0,0,1.16.19,24.23,24.23,0,0,0,6-.38c14.38-2.58,16-5.89,16.12-6.05A2,2,0,0,1,247.94,163.47Z"/><path class="cls-5" d="M243.67,151.33a21.59,21.59,0,0,1-5.06,7.87,2.63,2.63,0,0,1-1,.62,2.91,2.91,0,0,1-1.17.19,52,52,0,0,1-12.64-1.92,32.15,32.15,0,0,1-11.09-5.59,26.56,26.56,0,0,1-9.46-15.64,25.23,25.23,0,0,1-.54-4.58v-.67c-.07-1.11,0-5.48,5.1-10.76a37.46,37.46,0,0,1,8.17-6.16,13.57,13.57,0,0,1,4.32-1.56c5.15-.93,16.83-1.45,23,10.91a17.84,17.84,0,0,0-12-8.41,26.56,26.56,0,0,0-16.42,3.3,33.4,33.4,0,0,0-10.46,9.65,7,7,0,0,0-.84,6.56h0c1.71,4.5,6,12.33,16.33,18a47.41,47.41,0,0,0,7.36,3.27l1.12.38a16.38,16.38,0,0,0,10-.19,6.87,6.87,0,0,0,2.59-1.68A15.5,15.5,0,0,0,243.67,151.33Z"/><path class="cls-13" d="M236.92,139.09a20.27,20.27,0,0,1-9.67,17.29,47.41,47.41,0,0,1-7.36-3.27,14.55,14.55,0,1,0-16.33-18,7,7,0,0,1,.84-6.57,33.28,33.28,0,0,1,10.46-9.65c.58-.05,1.17-.07,1.77-.07A20.28,20.28,0,0,1,236.92,139.09Z"/><path class="cls-14" d="M231.82,138.76a14.51,14.51,0,0,1-11.92,14.35c-10.31-5.69-14.62-13.52-16.33-18h0a14.33,14.33,0,0,1,28.25,3.67Z"/><path class="cls-13" d="M224.7,169.3a13.43,13.43,0,0,1-1.76-.37c-.58-.16-1.15-.34-1.72-.52s-1.15-.38-1.71-.6l-.84-.32-.84-.35-.85-.34-.82-.38-.82-.36c-.28-.13-.55-.26-.78-.39l-1.62-.79-1.61-.83A136.21,136.21,0,0,1,199,156.54a216.82,216.82,0,0,0-24.4-14.69c-2.08-1-4.23-2-6.43-2.94s-4.42-1.74-6.62-2.48-4.49-1.38-6.78-1.94l-1.72-.4-1.73-.37-1.74-.33-1.74-.3-3.56-.59-3.55-.66-1.77-.37c-.59-.12-1.18-.24-1.76-.38-1.18-.27-2.35-.53-3.51-.84s-2.35-.61-3.49-.94l-1.73-.5-1.72-.56-.86-.29-.85-.3c-.29-.09-.57-.21-.85-.31l-.84-.31-.84-.35-.83-.35-.78-.37-.79-.38h0c1.13.41,2.28.74,3.43,1q.87.24,1.74.45c.58.14,1.15.28,1.74.4l1.75.38,1.75.36,1.76.33c.58.12,1.17.21,1.76.31,1.17.21,2.35.39,3.53.57l3.53.52,3.55.45,3.55.41,1.8.23,1.81.26,1.79.31,1.79.36c2.35.49,4.74,1.11,7,1.82s4.62,1.56,6.88,2.44,4.46,1.92,6.64,3,4.31,2.23,6.41,3.43,4.16,2.47,6.18,3.77,4,2.65,6,4l2.94,2.09c1,.71,2,1.41,2.91,2.13l2.89,2.11.72.53.72.51,1.46,1,.73.52.74.49,1.47,1,1.49,1c.5.33,1,.66,1.51,1l1.51.95c.5.31,1,.61,1.56.91.26.16.51.32.78.46l.78.44.79.43.78.43.28.15.5.27.78.4c.54.28,1.08.53,1.61.78s1.09.49,1.65.71c.27.12.55.21.83.31A6.07,6.07,0,0,0,224.7,169.3Z"/><path class="cls-5" d="M202.47,306.93a34.33,34.33,0,0,1-7.29-.93c-4.36.57-6.15-.38-6.15-.38h-4a5,5,0,0,0-1.31-3.39s1.51.78,1.81,1.7h3.06s2.35-6.5,9.22-4.9c0,0-6.73,4-4.3,5.3l1.73.34s1.68-4.69,6.81-2.47c0,0-5.64,1.19-2.82,3.42A6.12,6.12,0,0,0,202.47,306.93Z"/><path class="cls-15" d="M203.78,119.58c3.56-3,20.16-15.94,32.26-5.37a2.81,2.81,0,0,0,3,.49c1.08-.46,1.69-1.56-1-4.31a22.6,22.6,0,0,0-26.39-4.26,30.9,30.9,0,0,0-9,7.17s-4.3,5.84-1.17,6.78a2.48,2.48,0,0,0,1.21,0A2.59,2.59,0,0,0,203.78,119.58Z"/><path class="cls-15" d="M190.61,140.83c-3.09-1.42-6.53-3.3-9.39-4.93a56.82,56.82,0,0,0-13.05-5.47c-3.7-1-6.1-1.76-7.64-2.25l-.59-.18a2.34,2.34,0,0,1-.61-.31c-.34-.25-.6-.6.61-1,18.85-3.48,28.48,6.72,32.21,12.24a1.26,1.26,0,0,1-1.54,1.86Z"/><path class="cls-13" d="M166.15,124.74c1.17-.09,2.08-.6,2-1.16s-1-.94-2.18-.85-2.09.59-2,1.15S165,124.82,166.15,124.74Z"/><path class="cls-16" d="M166.1,124.68c1-.07,1.85-.45,1.82-.83s-.88-.65-1.92-.57-1.85.44-1.83.83S165.07,124.75,166.1,124.68Z"/><path class="cls-13" d="M191.1,135c.41-.37.1-1.38-.69-2.24s-1.77-1.26-2.17-.88-.11,1.38.69,2.24S190.69,135.42,191.1,135Z"/><path class="cls-16" d="M190.67,135.05c.28-.26,0-1-.67-1.75s-1.4-1.06-1.68-.78,0,1,.67,1.75S190.39,135.31,190.67,135.05Z"/><path class="cls-17" d="M78.06,234.86C66,246.2,64,255.65,63.88,256a7.12,7.12,0,0,0-.78-5c-2.66-4.29-5.91-13.37-4.15-35.2,1.26-15.55-3.47-22.91-6.26-25.86a6.91,6.91,0,0,0-3.46-2c-1.49-.34-3.59-1-3.59-1.93,0-1.32,2.84-1.72,2.84-1.72a22.65,22.65,0,0,1,14.8,3.28c-2.68-.35-6.41-.48-8.17,1-2.94,2.44,1.41,3.8,11.73,7.3S76,225.43,76,225.43c-6.53.85-6.91,4.26-6.06,3.91s9.56,1.13,6,2.08-6,4.83-4,3.6C73.52,234,76.85,234.59,78.06,234.86Z"/><path class="cls-18" d="M80.62,232.55c-.9.78-1.76,1.56-2.56,2.34-1.21-.27-4.54-.89-6.15.11-2,1.23.38-2.66,4-3.6s-5.1-2.46-6-2.08-.47-3,6.06-3.88c0,0,1.13-26-9.18-29.52s-14.67-4.86-11.73-7.3c1.77-1.47,5.47-1.33,8.17-1,13.82,8.86,15.09,32.32,15.38,35.61A54,54,0,0,0,80.62,232.55Z"/><path class="cls-9" d="M71.25,302.63c-1.91,1.05-6.07.78-8.84.43a6.42,6.42,0,0,0-4.39,1c-.23.15-.46.28-.68.4a4,4,0,0,0-.91-4.2,3.19,3.19,0,0,1,2.6,1.57s.79.83,1.26-.78a6,6,0,0,1,2.48-2.81c.07,0-1.25,3.24,2.4,3.61s4.78,1,4.88-.19a3,3,0,0,0-.48-1.61,12.88,12.88,0,0,1,1.83,1.46.75.75,0,0,1,.18.28.91.91,0,0,1,0,.33.56.56,0,0,1-.12.3A.58.58,0,0,1,71.25,302.63Z"/><path class="cls-17" d="M64.38,285.66c-4.3,4.41-3.66,11.1-3.66,11.1A22.55,22.55,0,0,1,69.57,300a3,3,0,0,1,.48,1.61c-.1,1.2-1.18.57-4.88.19s-2.43-3.54-2.4-3.62A5.82,5.82,0,0,0,60.29,301c-.45,1.61-1.26.78-1.26.78a3.23,3.23,0,0,0-2.6-1.56,4,4,0,0,1,.91,4.2,8.83,8.83,0,0,1-5.66.9c-1.66-1.3-.34-3.42-.34-3.42A3.13,3.13,0,0,0,49.49,303c-1.7-1.28,1.35-3.6,1.43-3.66-2.56.89-3.07,2.44-3.07,2.44A3.32,3.32,0,0,0,46,300.05a2.36,2.36,0,0,1-.65,3.79,1.83,1.83,0,0,0-.57-1.26c.43,1.07-.73,2.4-1.49,3.13a6.54,6.54,0,0,1-4.52-.49c-.54-.89-.95-2.57,1.15-4.92a25.7,25.7,0,0,0-3.57,3.58,2.84,2.84,0,0,0-.92,0,13.86,13.86,0,0,1-3.86,0,.78.78,0,0,1-.59-.49,1,1,0,0,1,.15-.74c.74-.92,2.52-2.5,6.89-4.69a4,4,0,0,0,1.56-1.43,3.83,3.83,0,0,0,.58-2c0-1.34,0-3.32,0-6.13-.16-6.62,4.13-13.17,10.43-18.09,4.59-3.58,9.46-7.5,12.82-13.3-.12,6.41-10.22,13.95-12.69,15-2.75,1.14-12.36,15.38-7.3,20.72C48,297.61,53.85,296,57,294.48a.77.77,0,0,0,.37-.34.87.87,0,0,0,.1-.5.81.81,0,0,0-.21-.46.79.79,0,0,0-.44-.25c-4.85-1-6.43-3.65-6.43-3.65,1.7,1.13,5.47,0,5.47,0s-1.89-1.14-1.65-6S66.5,272.15,66.5,272.15a15.22,15.22,0,0,1-.78-5c.71,6,10,13,10.17,13.12-1.56-.79-5.34-1-5.34-1S68.66,281.26,64.38,285.66Z"/><path class="cls-5" d="M125.89,213.35c-4.16,8.76-9.3,28.16-9.38,28.62,0-.33,1.64-11-1.9-14.38s-11.45,7.09-12.8,11.73-13.22,22.8-20.6,34.15,0,35.2,0,35.2h-6l.32-.15C73.3,287.7,76.64,282.41,76.64,281c0-.28-.28-.54-.71-.78-.15-.11-9.47-7.11-10.17-13.12a15.27,15.27,0,0,0,.78,5s-12.11,6.26-12.35,11.13,1.66,6,1.66,6-3.79,1.14-5.48,0c0,0,1.57,2.65,6.43,3.65a.85.85,0,0,1,.45.26.7.7,0,0,1,.2.46.73.73,0,0,1-.09.5.81.81,0,0,1-.37.34c-3.13,1.47-8.93,3.13-13.62-1.81-5.06-5.34,4.55-19.55,7.29-20.72,2.48-1,12.57-8.6,12.7-15,.2-.33.39-.66.56-1h0c.07-.31,2.13-9.77,14.18-21.12.78-.78,1.66-1.56,2.56-2.34,1-.83,2.19-1.67,3.38-2.5,0,0,5.78-2.46,10.29-1.89s12.23-4.34,12.7-4.62a5.24,5.24,0,0,0-.84.72c-2.84,2.8-4.85,6.64-6.72,10.12-2,3.74-3.46,7.7-5.41,11.47-1.2,2.32-2.43,4.63-3.67,6.93l-1.83,3.37c-.7,1.24-1.33,2.52-2.07,3.75a14.24,14.24,0,0,0-1.34,2.53c2.86-3.25,4.77-7.21,6.77-11.12,2.1-4.07,4-8.21,6-12.36,2.29-5,5.93-9.32,9.62-13.3a78.6,78.6,0,0,1,6-5.87,27.32,27.32,0,0,0,12-18.05c.18-.46.31-.83.41-1.13A84.41,84.41,0,0,1,125.89,213.35Z"/><path class="cls-8" d="M116.48,242c0-.33,1.64-11-1.89-14.38s-11.45,7.09-12.81,11.73-13.22,22.8-20.59,34.15,0,35.2,0,35.2h-6c-1.44.75-7.52,4-9.3,7a1,1,0,0,0,0,.95,1,1,0,0,0,.78.56,58.66,58.66,0,0,0,9.31-1.4c2.16-4.94,5-5.84,5.1-5.87-3.25,1.71-2.64,6.92-2.35,8.76,1.83.61,4.56.84,8.23-.61a13.1,13.1,0,0,0,2.78-5.68c1.56-2.28,6.11-2.47,6.11-2.47-6.57,1.43-4.78,5.4-4.78,5.4a12.27,12.27,0,0,1,2.93-.7c-1.65,2.35.93,3.86,2.8,4.6a4.34,4.34,0,0,0,3.53-2.79,1.43,1.43,0,0,1,.41-.56,1.47,1.47,0,0,1,.64-.31c-.1-1.4-.56-3.6-2.43-4.6.09,0,2.45,1,3.29,2.56,0,0,1.08-3,3.59-3.6,0,0-3.23,3.37,1,5.77,4.28,0,9.17-.25,9.17-1.61,0-2.39-11.22-6-11.22-6s.28-6.19.33-14.51l.17-10.2-.16-6.7a6.93,6.93,0,0,1,.49-2.74,3.81,3.81,0,0,1,4.8-2.45l.16.06.14-.32c.14-.34.28-.67.41-1l.32-.79.39-1c.33-.83.68-1.69,1-2.58,1.23-3.13,2.52-6.64,3.79-10.36a198.35,198.35,0,0,0,7.69-29.16,124.83,124.83,0,0,0,1.56-12.94C121.73,222.11,116.59,241.54,116.48,242ZM89,312.73a8.12,8.12,0,0,0-3.6-3.21,3.91,3.91,0,0,1,3.78,0c4.35-1.6,5.77,0,5.77,0-4.91,1-6,3.21-6,3.21Z"/><path class="cls-11" d="M198.55,194.78l-.25.14-.21.17-.2.16h0l-.19.17h0l-.16.16c-.08.06-.15.14-.22.2a1.9,1.9,0,0,0-.19.21.57.57,0,0,0-.15.16.77.77,0,0,1-.12.13l0,.05-.09.16-.12.15h0l-.15.21h0a1.88,1.88,0,0,0-.16.23h0c-.11.15-.2.3-.3.45l0,.07-.11.18h0l-.12.22v.05c-.05.08-.09.16-.13.24-.14.26-.27.53-.4.79l-.12.28-.12.29-.12.29c0,.1-.07.2-.1.3h0c-.07.2-.14.39-.2.6s-.2.63-.29,1a.93.93,0,0,1-.09.3l-.11.46a1.2,1.2,0,0,1-.06.24,3.21,3.21,0,0,1-.08.34c0,.12,0,.23-.07.35l-.08.36-.16.46v.18l-.07.4-.15.89,0,.36v.19a.74.74,0,0,1,0,.25,6.23,6.23,0,0,1-.09.74l-.05.39v.39l-.07.78a1.33,1.33,0,0,1,0,.4,2,2,0,0,0,0,.49v2c-6.17-8.81-58.66-14.26-59.72-5.58s-8.67,19.88-8.81,20.08l.14-.78c0-.28.1-.54.13-.79s.09-.54.14-.78.08-.55.12-.83.07-.47.1-.71.09-.59.14-.89.06-.51.1-.78c.1-.84.21-1.67.3-2.51.07-.53.11-1.05.17-1.56h0a6.23,6.23,0,0,1,.08-.78c0-.54.09-1.08.13-1.61,0-.28,0-.54,0-.79s0-.53.05-.78l0-.78h0a5.1,5.1,0,0,1,0-.78v-1.61h0v-1.71c0-2.4-.06-4.77-.26-7.09a5.41,5.41,0,0,0,.21-.79s3.79-17.65-8.07-39.35-14.51-32.29-14.51-32.29c-3.53-14.86-1.07-22.8,2.7-27.05a13.9,13.9,0,0,0,.36,9.2h0c1.57,4.37,4.9,8.6,8.61,12.2a88.7,88.7,0,0,0,15.85,12.09s3.6,1.47,12.09,5.86c-8.09.32-17.25-4.3-25.85-6.94-6.26-1.91-6.31,1.37-5.63,3.82a10.92,10.92,0,0,0,1.42,3.08c12.08,18.45,15.58,32.27,16.54,37.55a11.36,11.36,0,0,0,3.27,6.16C148.24,198.87,198.25,194.8,198.55,194.78Z"/><path class="cls-19" d="M247.94,163.47a7.37,7.37,0,0,1-.35,2.51c-9.85,21.82-46.81,27.74-46.81,27.74a8.22,8.22,0,0,0-2.21,1.07c-.3,0-50.33,4.09-65.71-10.68a11.39,11.39,0,0,1-3.27-6.16c-1-5.28-4.46-19.11-16.54-37.55a11,11,0,0,1-1.42-3.08c-.68-2.45-.63-5.74,5.63-3.82,8.6,2.64,17.75,7.25,25.85,6.94,9.39,4.85,24.76,13.3,47.83,27.19C234.69,194.05,247.87,163.63,247.94,163.47Z"/><path class="cls-5" d="M110.55,271.45c-.11.25-.2.49-.3.73l-.51,1.21-.66,1.52v0l-.25.59-.19.43-.29.67c-.24.54-.47,1-.68,1.52l-.11.23-.64,1.43-.07.12c-.52,1.13-.93,2-1.2,2.57l-.06.11-.2.41v.06h0v0l-.06.1h0l-.15-6.7a6.74,6.74,0,0,1,.49-2.73,3.79,3.79,0,0,1,4.82-2.38Z"/><path class="cls-20" d="M89.89,281.86a9.32,9.32,0,0,1,0-3.57,10.35,10.35,0,0,1,2-3.7c.91-1.21,1.91-2.38,3-3.53.42-.44,1.18-.92,1.68-.54a.89.89,0,0,1,.25.79c-.22,2.68-1.84,5.15-2.35,7.82-.66,3.21.33,6.51.08,9.76A2.74,2.74,0,0,1,94,290.5c-1.88,2.28-2.6-1.81-2.83-2.71A52,52,0,0,1,89.89,281.86Z"/><path class="cls-18" d="M125.45,201.68a27.29,27.29,0,0,1-12,18,78.6,78.6,0,0,0-6,5.87c-3.7,4-7.33,8.34-9.63,13.3-1.92,4.15-3.84,8.3-6,12.36-2,3.86-3.91,7.82-6.79,11.16a14.15,14.15,0,0,1,1.34-2.52c.73-1.23,1.37-2.51,2.06-3.76l1.83-3.36c1.25-2.3,2.47-4.61,3.68-6.93,2-3.77,3.4-7.73,5.41-11.47,1.87-3.49,3.91-7.32,6.72-10.12a5.17,5.17,0,0,1,.83-.72c-.46.29-8.32,5.17-12.69,4.62S84,230,84,230a81.46,81.46,0,0,1,18-9.2,49.77,49.77,0,0,0,16.68-9.76A26.66,26.66,0,0,0,125.45,201.68Z"/><path class="cls-18" d="M60.47,267.16a29.44,29.44,0,0,1,10.09-8.42.49.49,0,0,1,.29-.06.53.53,0,0,1,.29.12.49.49,0,0,1,.17.25.51.51,0,0,1,0,.3,4.11,4.11,0,0,1-.78,1.51c-.58.71-1.31,1.27-1.94,1.93A9.77,9.77,0,0,0,66.48,266c-.44,1.11-.68,2.3-1.17,3.39a4.24,4.24,0,0,1-2.45,2.49,3.14,3.14,0,0,1-3.29-1.32C59,269.44,59.79,268.07,60.47,267.16Z"/><path class="cls-5" d="M78.68,318.65a7.2,7.2,0,0,1-2.83-1.7,31.65,31.65,0,0,1-9.27.2,58.64,58.64,0,0,0,9.32-1.4c2.16-4.94,5-5.84,5.09-5.86C77.75,311.6,78.36,316.81,78.68,318.65Z"/><path class="cls-5" d="M96.75,319.2c-2.56.43-5.68-.64-7.31-1.3a2.87,2.87,0,0,0-2.19,0l-.34.14a12.86,12.86,0,0,0,2.78-5.69c1.56-2.27,6.12-2.46,6.12-2.46-6.57,1.42-4.78,5.39-4.78,5.39a12.26,12.26,0,0,1,2.93-.69C92.3,317,94.88,318.45,96.75,319.2Z"/><path class="cls-5" d="M106.78,315.65c-2,0-4-.08-5.11-.14h-.35c-.1-1.41-.56-3.6-2.43-4.6.09,0,2.45,1,3.28,2.56,0,0,1.08-3,3.6-3.6C105.79,309.91,102.57,313.26,106.78,315.65Z"/><path class="cls-20" d="M94.91,309.52c-4.92,1-6,3.21-6,3.21a8.12,8.12,0,0,0-3.6-3.21,3.91,3.91,0,0,1,3.78,0C93.48,307.91,94.91,309.52,94.91,309.52Z"/><path class="cls-13" d="M160,106.42c-.9-7.82-7-13.82-14.44-13.82-8,0-14.55,7-14.55,15.81a17.08,17.08,0,0,0,1.33,6.61,32.44,32.44,0,0,1-6.25-2.73,21.9,21.9,0,0,1-.25-3.34c0-11.84,9-21.44,20.19-21.44a19.55,19.55,0,0,1,14.4,6.42A29.4,29.4,0,0,1,160,106.42Z"/><path class="cls-14" d="M160,106.42a34.89,34.89,0,0,1-2.34,6.88c-10.17,4.18-18.71,3.8-25.32,1.72a16.68,16.68,0,0,1-1.33-6.61c0-8.73,6.51-15.81,14.55-15.81C152.93,92.6,159.07,98.63,160,106.42Z"/><path class="cls-21" d="M157.63,113.3a34.89,34.89,0,0,0,2.34-6.88,29.38,29.38,0,0,0,.43-12.52c-1.07-5.28-4.13-10.6-11-14.43a14,14,0,0,0-8.11-1.72,49,49,0,0,0-6.25,1c17-7.15,27.81,8.39,28.67,18.71A18.78,18.78,0,0,1,157.63,113.3Z"/><path class="cls-22" d="M152.37,105.86a2.21,2.21,0,1,0-2.2-2.22h0A2.2,2.2,0,0,0,152.37,105.86Z"/><path class="cls-22" d="M218.47,135.7a2.21,2.21,0,1,0-2.21-2.21A2.22,2.22,0,0,0,218.47,135.7Z"/><path class="cls-9" d="M51.68,305.38a23.73,23.73,0,0,0-8.44.38c.78-.73,1.93-2.06,1.5-3.13a1.83,1.83,0,0,1,.57,1.26A2.36,2.36,0,0,0,46,300.1a3.32,3.32,0,0,1,1.89,1.77s.5-1.57,3.06-2.43c-.07.05-3.12,2.34-1.42,3.65A3.21,3.21,0,0,1,51.34,302S50,304.07,51.68,305.38Z"/><path class="cls-9" d="M38.73,305.22a13.88,13.88,0,0,1-2.42-1.33,26.33,26.33,0,0,1,3.57-3.59C37.8,302.63,38.2,304.3,38.73,305.22Z"/><path class="cls-11" d="M171.18,267.76a1,1,0,0,0-.18-1.3c-.37-.17-.88.11-1.15.64s-.18,1.1.19,1.29S170.93,268.29,171.18,267.76Z"/><path class="cls-11" d="M172.75,268.54c.26-.53.18-1.11-.19-1.29s-.88.1-1.14.63a.94.94,0,0,0,.19,1.29C172,269.35,172.49,269.07,172.75,268.54Z"/><path class="cls-11" d="M170.74,270.32c.26-.53.18-1.11-.19-1.29s-.88.09-1.14.63-.18,1.11.19,1.29S170.47,270.85,170.74,270.32Z"/><path class="cls-9" d="M62.88,235.77c.34-.23.35-.78,0-1.31s-.88-.69-1.22-.46-.34.78,0,1.31S62.55,236,62.88,235.77Z"/><path class="cls-9" d="M64.32,234.82a1,1,0,0,0,0-1.31c-.33-.49-.87-.7-1.22-.46s-.33.78,0,1.3A1,1,0,0,0,64.32,234.82Z"/><path class="cls-9" d="M64.9,237.4c.35-.23.35-.78,0-1.3s-.88-.7-1.21-.46-.35.78,0,1.3S64.54,237.64,64.9,237.4Z"/></g></g></g></svg>