<svg xmlns="http://www.w3.org/2000/svg" viewBox="0 0 1726.96 670.21"><defs><style>.cls-1{fill:#cfe8ff;}.cls-2{fill:#d7e9f9;}.cls-3{fill:#e4f3ff;}</style></defs><g id="Capa_2" data-name="Capa 2"><g id="Capa_1-2" data-name="Capa 1"><path class="cls-1" d="M1718,284.21l-4.35,18.92c-3.43-5-6.54-10.23-9.95-15.2l-6.85-10.24L1685,274.28c-32-9.62-65-18.62-97.4-27.3l-36.41-9.93-5.28,30.71c-22.41-32.89-59.44-56.78-102.69-65.77-46.06-9.62-92.43-1.55-126.66,22.34a134.75,134.75,0,0,0-23.64,20.78,124.67,124.67,0,0,0-33.61-39.4c-33.92-25.75-79-41.58-130.7-45.61l-2.17-.31c-27.71-2.17-59.13-4.65-90.56-1.55l-15.87-.62c-69.7-3.42-140.34-4.66-210-3.73l-37,.31.94,9c-6.85-.93-13.69-2.17-20.54-3.1-22.72-3.41-34.54-5-57.26-8.07l-29.87-4-3.11,12.1-13.38,1.24c-46.06,3.72-92.73,8.38-138.48,14l-37,4.35,6.23,30.4c-33-22-76.24-30.09-119.5-22.34-44.18,7.76-82.46,30.72-105.8,62.68l-5-30.72-36.72,8.07c-33.91,8.07-68.14,16.75-102.06,25.75l-21,5.52L69,317.41C58.1,305.91,50,297.24,45.65,292.91L31,277.07l-20.85,6.52Q5.09,285.14,0,286.72V657.93c.13.32.26.65.38,1H107.49c-.82-2.71-1.6-5.35-2.36-8q5.72,3.94,11.43,8h72.63q5.91-17,12.07-34c2.49,8.68,5,18,8.4,29.16l1.4,4.84,3.27,11.3,16.49-4.35c10.05-2.79,18-5,25.64-7,11-2.88,21.26-5.39,36-8.87l16.19-4-4.36-20.17c-5-22.65-9.65-45.61-14.63-68.57a178.28,178.28,0,0,0,34.23,41.26,129.85,129.85,0,0,0,85.89,32.89,113.81,113.81,0,0,0,23-2.17c38-6.83,70.63-31.34,90.24-66.71a188.1,188.1,0,0,0,18.67-52.43h.62c3.74,24.82,7.78,49.64,11.51,74.46l2.49,16.45,16.5-2.18c31.74-4,63.79-7.13,95.84-9.61L685.11,588l-.93-16.44a19.15,19.15,0,0,0-.31-4.34c11.51,14.27,19,23.27,23.34,27.92l9,9.93L728,598.56c19-10.55,32.37-17.37,39.84-21.09,16.49-7.76,28.62-13.35,36.72-17.07l8.71-4c.31,3.1.31,6.2.62,9.3l.93,16.45h16.5c51.65-.31,104.24.62,155.9,2.79l13.69.62,3.42-13.34c2.8-9.93,5-18.93,7.16-26.06.93-3.1,1.87-6.21,2.8-8.69-.31,10.86-.62,21.72-.62,32.27l-.31,16.44,16.49.93c31.74,2.18,63.79,5,95.54,8.38l16.48,1.86,2.5-16.44c2.17-15.21,3.42-24.82,5.28-36.92,29.26.31,62.55-8.07,84.64-23A106.78,106.78,0,0,0,1258,498.65c1.55,26.68,8.09,52.12,19.29,74.15,18.36,36.3,51,61.75,89.93,69.81a119.28,119.28,0,0,0,25.82,2.8c29.56,0,58.82-10.55,82.78-30.1a167.65,167.65,0,0,0,19.92-19.24v62.84h95.68c4.52-14.43,9.12-28.9,13.51-43.54,10.59,13,19.62,24.51,27.39,34.44l.32.62,6,8.48H1727V287.15ZM789.06,386.29a13.32,13.32,0,0,1-2.18-1.86c.62-1.24,1.24-2.49,1.87-4A35.86,35.86,0,0,0,789.06,386.29Z"/><path class="cls-2" d="M271.88,525c-3.74.93-11.21,2.79-14.63,3.41L209.64,281.11l-82.77,20.47L97.3,401.8,20.44,315.91c.94.93,54.15,46.54,71.57,60.5,3.12-9.31,24.59-70.74,28-89.67,33.61-9,67.53-17.69,101.13-25.75,7.16,44.06,14.94,88.43,23,132.17C252.58,436.91,262.54,480.91,271.88,525Z"/><path class="cls-3" d="M257.56,528.39c-19,4.66-27.07,6.83-48.54,12.41-9.34-31.64-13.69-47.47-23-79.12-13.38,34.13-26.14,68.26-38.27,103-30.5-21.71-61.62-43.12-93-63.6,9.34,31.34,14,46.85,23.65,78.19-24.89,8.06-37.34,12.1-61.92,20.79Q8.25,579.18,0,558.14V322.46q10.22-3.29,20.48-6.5h0l.34-.11c.58.64,1.2,1.31,1.86,2l0,0,0,0c6,6.58,15.27,16.32,27,28.32l47.63,55.2.3.34,29.56-100.22,82.39-20.38h0l.3-.08,47.59,247.23Z"/><path class="cls-2" d="M500.28,439.34c12.14-75.08,7.78-166-72.81-192.67C338.78,217.5,288.68,268.07,266,302.2a116.3,116.3,0,0,1,13.38-28.85C299,243.91,332,226.5,366.16,220.29c33.92-6.2,70.33-.93,98.65,20.17,31.12,22.65,46.67,60.19,51.34,97.12C520.51,372.33,515.84,408.32,500.28,439.34Z"/><path class="cls-2" d="M801.81,201.68c-2.8,5-5.6,9.93-8.4,15.2L696.64,199.5,651.2,339.13,638.45,207.57l-122.3,10.55q-.93-4.65-1.87-9.31c45.75-5.27,91.49-9.93,137.24-13.65.31,39.41.93,78.81,1.55,117.9h1.25c4.35-14,11.2-37.23,20.84-69.81,4-14,9-33.2,15.56-57.71,22.72,3.1,33.92,4.66,56.64,8.07C765.72,196.09,784.08,198.91,801.81,201.68Z"/><path class="cls-2" d="M794,435.31c-5.61,2.48-14,6.21-24.59,11.17L719,390.91l-2.8-26.37c1.87,2.48,12.45,12.72,31.43,30.72C758.56,405.84,774.43,418.91,794,435.31Z"/><path class="cls-3" d="M719,390.91l50.41,55.54c-4.35,1.86-9,4.34-14,6.52-10,5-24,12.1-41.7,21.41-4.67-5-14.94-17.07-30.49-35.69-8.72-11.17-17.43-23-25.83-35.37h-.62c1.24,23.89,1.86,36,3.11,60.2-33,2.48-65.66,5.89-98.65,9.92-7.15-45.92-14.31-92.15-21.78-138.07-6.85-39.4-14.63-78.5-23-117.59l122.3-10.55,12.76,131.56L697,199.19l96.77,17.38c-11.2,20.17-22.09,40.65-33,61.43-14.94,28.86-29.56,57.71-44.19,86.57Z"/><path class="cls-2" d="M1002.53,406.15c-1.25,3.41-4,12.1-8.1,25.75-2.17,7.13-4.66,15.82-7.46,26.68-3.12,0-6.23-.31-9.65-.31l9.34-29.47H924.11l-4.36-23.89,11.83-33.82c-1.25,15.52-1.87,23.28-2.8,38.79,9,0,26.14,0,50.41-.62C984.17,409.25,992,408,1002.53,406.15Z"/><path class="cls-2" d="M1001.9,328.27c-1.55,4.34-4.35,12.1-7.78,23.89a239.52,239.52,0,0,0-5.91,24.51,115.91,115.91,0,0,0-11.82-2.48l7.46-27.62L930,339.13,924.73,323l13.69-29.47c-1.55,13.34-2.18,19.85-3.73,33.2C948.07,327.34,970.78,327.65,1001.9,328.27Z"/><path class="cls-3" d="M938.11,293.21l-13.69,29.47,5.29,16.14,53.83,7.44-7.46,27.65c-4-.62-9-1.24-14.63-1.86-6.54-.63-16.49-1.25-29.56-1.25l-11.83,33.79,4.36,23.9H987L977.62,458c-50.1-1.86-100.2-2.79-150.61-2.48l-7.47-136.83c-2.18-42.2-5.6-84.39-9.33-126.59l188.58,15.85-7.47,90.91c-5-.93-10.89-1.86-18.05-2.79C962.69,294.76,950.87,293.83,938.11,293.21Z"/><path class="cls-2" d="M1017.77,191.13c-5,36.61-9.64,73.22-14.31,110.14-2.49-.62-6.54-1.24-12.45-2.17l7.47-90.91L810,192.37c0-1.55-.32-3.1-.32-4.66C879.3,186.78,948.38,188,1017.77,191.13Z"/><path class="cls-2" d="M1273.87,324.23c-3.42,26.07-23,59.27-45.43,73.54-24,15.51-62.86,23.27-91.48,18.61,95.84-32.26,136-86.87,101.12-146.44-30.18-51.51-167.41-57.4-203.19-58V192.37c30.19-3.1,61-.62,90.87,1.55,39.51,3.1,80.59,14.27,112.63,38.78,22.41,17.07,34.55,42.82,36.42,69.5A128.72,128.72,0,0,1,1273.87,324.23Z"/><path class="cls-2" d="M1137,416.69c-3.12,21.1-4.68,31.65-7.78,52.75-3.11-.31-8.72-.62-11.83-.93l2.18-19.24Z"/><path class="cls-2" d="M1531.84,400.25a190.3,190.3,0,0,1-26.45,58.33c15.56-78.19,18.36-183.06-69.39-211.91-31.44-10.24-58.2-10.55-80.28-5.28,25.2-10.55,53.83-11.79,80.59-6.2,33.61,7.13,66,25.44,84.33,55.22C1540.87,323.61,1541.49,363.91,1531.84,400.25Z"/><path class="cls-3" d="M1510.23,338.07q-.26-1.38-.54-2.76l-.54-2.55q-.54-2.55-1.19-5.05-.26-1-.54-2.07c0-.09-.05-.17-.07-.26s0-.21-.08-.31c-.14-.56-.3-1.11-.45-1.67l-.3-1c-.2-.69-.41-1.38-.62-2.07s-.5-1.63-.76-2.44-.53-1.61-.8-2.41l-.84-2.39q-.81-2.25-1.71-4.47a2.44,2.44,0,0,0-.1-.24q-.93-2.32-2-4.61c-.25-.57-.51-1.14-.78-1.7s-.42-.88-.64-1.32-.48-1-.73-1.48c-.37-.74-.75-1.48-1.14-2.21-.74-1.4-1.51-2.79-2.31-4.15-.42-.72-.85-1.43-1.28-2.13s-.94-1.52-1.42-2.26l-1.26-1.89-1.3-1.86-.23-.33-1.14-1.56c-.27-.37-.56-.73-.84-1.1l0-.06L1486,281l-.08-.1v0l-.85-1.05c-.2-.26-.4-.5-.61-.75l-.62-.75c-.41-.49-.84-1-1.26-1.47-.85-1-1.73-1.94-2.62-2.88l-1.36-1.41-1.07-1.08-1-1c-.71-.68-1.43-1.35-2.17-2l-1.48-1.31c-2-1.72-4.09-3.39-6.27-5q-1.63-1.2-3.33-2.34l-1.33-.88-.19-.12h0c-.36-.21-.7-.44-1.07-.67l-1.32-.82-1.35-.8c-.9-.52-1.81-1-2.74-1.55l-1.28-.7-1.55-.79c-.64-.33-1.29-.65-1.94-1l-2-.93-2.51-1.12-2.57-1.07c-.87-.35-1.75-.69-2.63-1l-1.34-.49-1.35-.48c-.72-.25-1.45-.5-2.19-.74-2.46-.8-4.88-1.54-7.28-2.22-3-.85-6-1.61-8.87-2.29l-1.44-.33-1.45-.31-1.84-.38-1.82-.36q-3.65-.69-7.18-1.2c-.92-.13-1.83-.26-2.73-.37l-1.9-.24h-.12c-1.35-.15-2.68-.28-4-.4l-2-.16c-3.53-.26-7-.38-10.36-.38h-2.26l-1.85.05c-.44,0-.88,0-1.32,0l-1.82.08-1.63.1-.33,0-.28,0-2.12.17q-.59,0-1.17.12l-.57,0-1,.11c-.6.06-1.19.14-1.78.21-.89.11-1.77.23-2.65.36l-1.68.26-.34.06c-.46.07-.93.15-1.39.24l-.93.16-1,.18-1.73.35-1.71.37-1.65.37-.09,0a100.63,100.63,0,0,0-19.61,10.86c-31.74,22-48.55,58.95-54.15,95.87-5.59,36.31-1.24,75.09,15.87,108a117.26,117.26,0,0,0,80,60.81c33.92,7.14,69.09-2.48,96.16-23.89a151.73,151.73,0,0,0,31.74-34.44c0-.22.09-.45.13-.67C1513.12,420.27,1517.48,376.51,1510.23,338.07Zm-73.92,70.84,0,0a73.05,73.05,0,0,1-17.74,33.51c-10,11.17-19.29,15.51-28.62,13.65s-16.19-9.93-20.24-23.58a73.12,73.12,0,0,1-1.55-37.54c6.22-32,20.85-45.92,43.56-41.27C1435.07,358.67,1443.47,377.29,1436.31,408.91Z"/><path class="cls-2" d="M1609.64,470.68c-9.34,29.48-18.67,59-28,88.12-5-1.55-9.33-2.79-13.38-4l15.25-49.34Z"/><path class="cls-2" d="M1727,387.44v30l-1.57,5.15L1669.7,323l-94-25.13.09-.59c.92-6,2.11-11.71,3-17.72,32.36,8.69,64.42,17.69,96.46,27.31,17.74,26.68,34.85,53.68,51.66,80.67Z"/><path class="cls-3" d="M1727,416.75V561.12q-8.3,21.5-16.51,43c-16.48-25.13-34.23-49.64-52-74.16-10.58-13.34-26.76-33.19-48.85-59.57l-26.14,34.75-15.25,49.34c-14.31-4.35-24.9-7.14-42.64-11.8,10-43.43,19.3-87.49,28.33-130.93,7.77-37.85,15.24-76,21.78-114.49l.11,0,93.89,25.1,55.69,99.6Z"/><path class="cls-1" d="M977.63,0,868.1,94.32v24.51l61.61,28.86,150-71.67V51.5Z"/><path class="cls-3" d="M896.41,90.29l83.4-71.67,64.72,32.57L929.71,105.8Z"/><path class="cls-2" d="M979.81,18.62l32,31-82.15,56.16,114.82-54.61Z"/><path class="cls-3" d="M466,268.72c-.47-.43-.95-.85-1.43-1.27-1-.88-2-1.74-3.09-2.59-.53-.43-1.06-.85-1.6-1.26s-1.15-.88-1.74-1.31-1.18-.86-1.78-1.28l-1.82-1.25c-.61-.41-1.23-.82-1.86-1.22s-1.5-.94-2.26-1.4-1.53-.91-2.31-1.36c-1.63-.92-3.29-1.81-5-2.66l-.33-.16c-.5-.26-1-.51-1.52-.75h0l-.36-.17-.36-.17c-.84-.39-1.69-.78-2.55-1.16l-.1,0c-.74-.33-1.48-.64-2.24-.95l-1.51-.61-.46-.18h0l-1-.4c-.59-.22-1.18-.45-1.78-.66-.43-.16-.86-.32-1.3-.46-.69-.25-1.38-.49-2.08-.72C338.78,217.5,288.68,268.07,266,302.2c-7.78,25.76-7.15,54.3-.93,80.36,8.4,35.69,26.76,70.13,55.08,94.33a117,117,0,0,0,96.78,26.68c34.23-6.2,63.17-27.92,80-58,1.24-2.17,2.18-4,3.42-6.21,0,0,0-.08,0-.12.33-2.09.65-4.2.94-6.32l0-.21c0-.17.06-.35.08-.52C509.71,373.25,507.35,306.33,466,268.72ZM427.15,419.18c-5,14-12.13,21.72-21.16,23.27-9.64,1.55-18.67-3.11-27.69-14.28A79.57,79.57,0,0,1,362.74,394c-6.22-32,2.18-50.26,25.21-54.29,23.65-4.35,38,9.93,43.25,41.88A74.72,74.72,0,0,1,427.15,419.18Z"/><path class="cls-3" d="M1250.48,310.75v-.29l0-1c-.47-12.7-4.52-25.85-12.37-39.25-30.18-51.51-167.41-57.4-203.19-58,0,39.41-.31,78.81-.63,118.53-.93,43.44-2.17,86.88-3.11,130.31,29.45,1.86,56.8,4.33,86.2,7.42l.32,0,2.17-19.24,17-31.77h0l.43-.8.59-.2h0c72.36-24.59,112.77-62,112.62-104.7C1250.49,311.46,1250.49,311.11,1250.48,310.75Zm-98.91.45a79.33,79.33,0,0,1,8.72.31c23.34,2.48,33.61,13,31.43,31-2.8,21.72-19,31.34-48.54,29.17C1146.6,347.5,1148.18,335.4,1151.57,311.2Z"/></g></g></svg>