<svg width="1728" height="1117" viewBox="0 0 1728 1117" fill="none" xmlns="http://www.w3.org/2000/svg">
<g clip-path="url(#clip0_9_332)">
<rect width="1728" height="1117" fill="#06D163"/>
<path d="M296.312 459.305C296.312 483.263 289.607 504.487 276.195 522.977C264.346 539.122 249.503 550.711 231.664 557.742C235.44 563.602 244.75 575.906 259.594 594.656C267.016 603.25 278.344 614.578 293.578 628.641C287.458 630.854 273.982 636.453 253.148 645.438C238.565 652.078 224.828 658.589 211.938 664.969C208.161 660.281 199.763 648.172 186.742 628.641C180.753 618.745 171.964 602.078 160.375 578.641H159.984L158.031 647H48.0703C46.638 618.615 44.6198 571.805 42.0156 506.57C40.8438 468.159 38.1745 414.969 34.0078 347C69.8151 343.224 102.497 341.336 132.055 341.336C241.56 341.336 296.312 380.659 296.312 459.305ZM207.641 501.492C207.641 489.122 202.432 480.268 192.016 474.93C184.333 471.023 174.698 469.331 163.109 469.852L161.938 536.648C172.745 536.648 182.38 534.24 190.844 529.422C202.042 523.172 207.641 513.862 207.641 501.492ZM546.703 647H439.867L432.641 621.023C429.646 622.195 422.159 626.167 410.18 632.938C402.497 637.885 393.969 644.461 384.594 652.664L373.461 629.031C371.247 624.344 368.057 617.768 363.891 609.305L353.344 647H296.703C305.036 614.839 317.927 561.779 335.375 487.82C346.052 438.341 354.971 391.401 362.133 347H479.516C483.161 367.443 493.122 415.034 509.398 489.773C518.383 528.836 530.818 581.245 546.703 647ZM423.461 582.938C421.247 576.036 417.341 564.839 411.742 549.344C408.357 540.75 403.214 528.901 396.312 513.797C393.318 521.349 388.63 533.719 382.25 550.906C378.734 560.802 374.568 574.279 369.75 591.336C373.656 591.336 382.51 590.555 396.312 588.992C404.646 587.82 413.695 585.802 423.461 582.938ZM792.406 347L786.742 469.852C781.664 469.07 773.526 468.094 762.328 466.922C755.427 466.531 744.229 466.141 728.734 465.75C727.953 473.432 726.586 491.987 724.633 521.414C723.201 549.93 720.857 591.792 717.602 647H623.07C622.029 620.698 620.076 579.357 617.211 522.977C615.909 503.445 614.542 484.37 613.109 465.75L582.25 466.922L554.32 469.852L549.438 347H792.406ZM939.477 347L931.859 506.57C930.427 540.945 928.734 587.755 926.781 647H817.211L803.93 347H939.477ZM1216.62 518.68C1215.32 529.747 1213.37 550.646 1210.77 581.375C1209.46 599.734 1208.23 621.479 1207.05 646.609C1189.61 651.688 1164.15 654.227 1130.69 654.227C1080.95 654.227 1040.52 643.029 1009.4 620.633C972.68 593.94 954.32 554.227 954.32 501.492C954.32 450.971 970.401 411.518 1002.56 383.133C1032.77 356.44 1072.55 343.094 1121.9 343.094C1140.52 343.094 1160.51 344.526 1181.86 347.391L1192.6 470.633C1184.01 467.378 1171.77 465.75 1155.88 465.75C1135.7 465.75 1117.47 471.935 1101.2 484.305C1082.97 498.237 1073.85 515.945 1073.85 537.43C1073.85 557.742 1081.6 573.432 1097.09 584.5C1110.11 593.875 1125.15 598.302 1142.21 597.781L1139.09 558.523C1138.3 550.451 1136.55 537.169 1133.81 518.68H1216.62ZM1491.43 347L1486.94 473.367C1485.64 509.435 1484.98 563.992 1484.98 637.039C1451.65 649.018 1417.67 655.008 1383.03 655.008C1340.32 655.008 1307.84 646.479 1285.57 629.422C1266.69 614.969 1253.34 592.443 1245.53 561.844C1240.97 544.266 1236.68 512.104 1232.64 465.359C1228.73 422.13 1226.33 382.677 1225.41 347H1351.39C1350.74 364.188 1349.96 392.182 1349.05 430.984C1348.66 452.599 1348.79 483.263 1349.44 522.977C1349.57 553.185 1352.17 573.562 1357.25 584.109C1362.59 595.307 1373.27 600.906 1389.28 600.906C1393.84 600.906 1398.92 599.604 1404.52 597C1404.52 570.177 1403.73 527.534 1402.17 469.07C1400.87 439.773 1398.46 399.083 1394.95 347H1491.43Z" fill="url(#paint0_linear_9_332)"/>
<ellipse cx="1144.54" cy="1290.08" rx="586.426" ry="622.437" transform="rotate(11.5079 1144.54 1290.08)" fill="#32EE9F" fill-opacity="0.63"/>
<ellipse cx="1637.06" cy="355.477" rx="564.179" ry="577.532" transform="rotate(11.5079 1637.06 355.477)" fill="#6AEC6F" fill-opacity="0.57"/>
<ellipse cx="1655.84" cy="931.951" rx="524" ry="521.5" transform="rotate(11.5079 1655.84 931.951)" fill="#22833D" fill-opacity="0.12"/>
</g>
<defs>
<linearGradient id="paint0_linear_9_332" x1="131.045" y1="532.784" x2="1340.77" y2="568.667" gradientUnits="userSpaceOnUse">
<stop stop-color="white"/>
<stop offset="1" stop-color="white" stop-opacity="0"/>
</linearGradient>
<clipPath id="clip0_9_332">
<rect width="1728" height="1117" fill="white"/>
</clipPath>
</defs>
</svg>
