<?xml version="1.0" encoding="utf-8"?>
<!-- Generator: Adobe Illustrator 25.0.0, SVG Export Plug-In . SVG Version: 6.00 Build 0)  -->
<svg version="1.1" id="Capa_1" xmlns="http://www.w3.org/2000/svg" xmlns:xlink="http://www.w3.org/1999/xlink" x="0px" y="0px"
	 viewBox="0 0 1728 1117" style="enable-background:new 0 0 1728 1117;" xml:space="preserve">
<style type="text/css">
	.st0{fill:#00DBFF;}
	.st1{fill:#FFFF00;}
	.st2{display:none;}
	.st3{display:inline;fill:#FFFFFF;}
	.st4{display:inline;}
</style>
<path class="st0" d="M871,590.3l-51.2,269.6l44.1-7.1L809,1116.2H0V0h914.2l-64.8,289l54.8-8.1l-75.7,311.1L871,590.3z"/>
<path class="st1" d="M1728,0v1116.2H809l54.8-263.4l-44.1,7.1L871,590.3l-42.5,1.7L904.2,281l-54.8,8.1L914.2,0H1728z"/>
<g class="st2">
	<path class="st3" d="M1012.8,506.8c-3.2-6-7.4-11.3-12.5-15.8c-5.7-5-12.2-9-19.2-11.9c-6.8-2.8-13.9-4.8-21.2-5.9
		c-6.9-1.1-13.9-1.6-20.9-1.7c-4.7,0-9.5,0.2-14.4,0.7l37.7-63.2h-48L982,215.1l-71.9,19L972.9,0H853.4l-52.1,335.2l73.7-21.6
		l-19.7,66.2l-56.2,22.2c-1,0.4-1.9,0.8-2.9,1.1c-3.2,1.2-6.5,2.2-9.8,3c-3.2,0.8-6.3,1.5-9.1,1.9c-2.6,0.4-5,0.7-7.1,0.9h-51.1
		l5.1,51.8v0.1c-0.1,0.2-0.3,0.5-0.6,0.9c-2,2.8-4.2,5.5-6.7,8c-2.8,2.9-5.6,5.6-8.3,8c-3.5,3.2-4.9,4.3-5.4,4.8l5.1,6.6L658,538.1
		c43.7-14.3,70.6-24.1,71.2-26.5c0.3,2.9,0.6,6.2,1,10c0.6,5.7,1.2,11.9,1.9,18.7c0.7,6.8,1.6,15.8,2.9,27.7
		c1.9,19.5,4.1,41.7,6.6,66l1.2,11.7h4.6l-48.8,51.5c0,0,51.6-24.7,94.3-44.9c1.6-0.7,3.1-1.3,4.5-1.8c0.3,4.3,1,8.6,2.1,12.8
		L707,741.6c0,0,50.3-20.8,54.3-22.7c3.9-2,42.3-18.4,45.9-20c3.1-1.3,6.2-2.5,9.5-3.5c1.3-0.4,2.6-0.7,4-0.9
		c0.5,0.4,1.1,0.8,1.6,1.2L784.5,899l52.1-16.9L809,1116.2l95-310.7l-50.5,12.2l35.3-104.1c10.5-0.1,20.9-1.3,31.2-3.4
		c11.2-2.3,21.9-6.1,32-11.5c10.1-5.4,19.2-12.7,26.6-21.4c8-9.6,13.7-20.9,16.5-33c7.2-28.8-2.5-52.7-27.9-69.1
		c-3-1.9-6.2-3.8-9.8-5.6l6.7-4.9h53.7v-9.2l0.2-0.9c0.4-1.6,0.9-3.1,1.4-4.7c0.5-1.4,1.2-3,2.1-4.9c0.8-1.7,1.8-3.3,2.9-4.9
		c1.2-1.8,45.3-62.1,45.3-62.1L1012.8,506.8z M849.4,400l-32.2,108.6l-6.5,12.3l-3-82.7L849.4,400z M915,638.1v0.2
		c-0.3,1.3-0.8,2.6-1.7,3.7c-0.1,0.1-0.2,0.3-0.4,0.4l2.5-7.3C915.5,636.1,915.4,637.1,915,638.1z"/>
	<g class="st4">
		<path d="M787.8,640.3c5.4-2.4,11-4.3,16.6-5.9c3.2-0.8,5.5-1.3,7-1.5c-1.9,9.8-1.7,18.9,0.6,27.2l68.1-50.1
			c-5.5,4.3-11.6,7.8-18.1,10.4c-5.5,2.2-11.1,4-16.9,5.2c-5.5,1.3-11,2-16.6,2.2v0.1h-12.2l17.9-29.9L733,672.5
			c9.6-7.1,19.6-13.7,30-19.7C771,648.1,779.3,644,787.8,640.3z"/>
		<path d="M741.2,500.5c0,0.1,0.2,2,0.6,5.7c0.4,3.7,0.9,8.4,1.4,14.1c0.6,5.7,1.2,11.9,1.8,18.7s1.6,16,2.9,27.7
			c1.9,19.4,4.1,41.4,6.6,66h18.4L845,580l0.1-0.2c5.1,7.7,13.1,14.4,24,20.2c2.2,1.1,4.5,2.3,7,3.5s5.2,2.4,8.2,3.5l46.8-34.3
			c-0.7-0.3-1.4-0.5-2.1-0.8l-2.4-0.8c-13.5-4.5-22.7-8.8-27.5-13c-4.4-3.9-6-8.3-4.9-13c0.1-0.5,0.3-1.1,0.5-1.6
			c0.4-0.3,0.6-0.4,0.6-0.5l-0.6,0.3c0.9-2.8,2.5-5.3,4.5-7.5c2.4-2.5,5.2-4.6,8.4-6.2c3.3-1.6,6.7-2.8,10.3-3.4
			c3.4-0.7,6.9-1.1,10.3-1.1c8.7,0,15.1,2.2,19.2,6.6c4,4.2,5,10.3,2.9,18.4l-0.4,1.7c-0.8,2.5-1.8,4.8-3.2,7c-1.7,2.6-3.7,5-6.1,7
			l63.5-46.8c-0.1-0.5-0.2-1-0.4-1.5c-0.2-0.5-0.4-1-0.7-1.5c-2.6-5.8-6.4-11.1-11.2-15.3c-4.7-4.1-10-7.3-15.7-9.7
			c-5.9-2.4-12-4.1-18.3-5.1c-6.3-1-12.6-1.5-18.9-1.5c-10.2,0.1-20.5,1.2-30.5,3.4c-3.4,0.7-6.7,1.6-10,2.6l40.8-68.4h-61.3
			l-78.4,147.8l-4.6-128.1l-96.2,70.8c5-3,9.7-5.6,14.3-8c4-2,8.1-3.8,12.3-5.5c3.4-1.5,6.9-2.3,10.6-2.5
			C739.2,496.5,741,497.9,741.2,500.5z"/>
		<path d="M852.9,387.8c-3.2,1.8-6.9,3.9-11.3,6.2l-14.3,7.8c-5.2,2.8-10.3,5.7-15.5,8.5c-3.6,2-7.3,3.7-11.1,5.1
			c-3.6,1.3-7.3,2.5-11,3.4c-3.6,0.9-7,1.6-10.2,2.1c-3.2,0.5-6.1,0.9-8.7,1.1h-37.3l3.7,38.1v1.3c0.3,2-0.7,4.6-2.9,7.8
			c-2.4,3.4-5.1,6.6-8,9.5c-3.1,3.2-6,6-8.9,8.6c-2.9,2.6-4.8,4.3-5.9,5.2l147.7-108.6C858.2,384.8,856,386,852.9,387.8z"/>
		<path d="M973.4,551.8h31.3v-0.1h0.6c0.5-2.1,1.1-4.2,1.9-6.2c0.7-1.8,1.5-3.8,2.7-6.1c1.1-2.3,2.5-4.6,3.9-6.7
			c1.4-2,3.3-4.5,5.7-7.4c2.4-2.9,4.8-5.7,7.2-8.5c2.4-2.7,4.6-5.2,6.5-7.4c2-2.2,3.2-3.6,3.8-4.3L973.4,551.8z"/>
		<path d="M960,586.2c-2.9-1.8-5.9-3.5-9-5.1c-3.3-1.7-7-3.3-11-5l-46.7,34.4c1.9,0.8,3.9,1.5,6,2.2c12.3,4.3,20.6,8.5,24.8,12.5
			c4,3.8,5.1,9.2,3.4,16.1c-0.7,3.4-2.3,6.5-4.5,9.2c-2.1,2.5-4.7,4.5-7.6,6c-3,1.5-6.1,2.7-9.4,3.4c-3.3,0.7-6.8,1.1-10.2,1.1
			c-13,0-21.8-2.5-26.2-7.6c-4.3-4.9-5.2-12.7-2.6-23.5l-118.6,87.1c10.2-6.6,20-12.5,29.4-17.6c3.9-2.3,8-4.5,12.2-6.6
			c4.2-2.1,8.2-4,12.1-5.6c3.6-1.6,7.3-2.9,11-4c2.9-0.9,5.9-1.4,8.9-1.5c1.5,0,3,0.2,4.3,0.9c4,3.5,8.4,6.4,13.2,8.8
			c4.9,2.4,10.1,4.3,15.3,5.7c5.3,1.4,10.7,2.5,16.2,3.1c5.2,0.6,10.4,0.9,15.6,0.9c10.3,0,20.6-1.1,30.7-3.2
			c9.9-2,19.5-5.4,28.5-10.2c8.7-4.7,16.5-11,22.8-18.5c6.7-8,11.4-17.5,13.8-27.7C988.2,617.9,980.8,599.6,960,586.2z"/>
	</g>
</g>
</svg>
