<svg xmlns="http://www.w3.org/2000/svg" viewBox="0 0 191 185.5"><defs><style>.cls-1{fill:#2caae0;}.cls-2{fill:#fff;}</style></defs><g id="Capa_2" data-name="Capa 2"><g id="Capa_4" data-name="Capa 4"><path class="cls-1" d="M162.36,77.64c-26.56-25-64.23-33.93-99.65-36.08a2.33,2.33,0,0,0-1.63,4.12c11.94,9.76,37,35.5,33.77,77.77-1.13,14.67,2.38,29.44,10.83,41.48,7.71,11,20,20.71,39.18,20.57,16.66-.11,32.19-7.66,40-22.8C200.11,133.17,184.81,98.78,162.36,77.64Zm19.25,61.6c-.19,1.47-.28,3-.59,4.41a50.88,50.88,0,0,1-2.23,8.65,7.5,7.5,0,0,1-14.21-4.8l.07-.21a66.81,66.81,0,0,0,3.2-13.33,64.91,64.91,0,0,0,.56-7,70.08,70.08,0,0,0-.06-7.24c-.13-2.44-.4-4.9-.76-7.37s-.78-5-1.32-7.47a101.53,101.53,0,0,0-4.43-14.92v0a.7.7,0,0,1,.41-.91.71.71,0,0,1,.76.16,70.84,70.84,0,0,1,16.36,28.57,58.52,58.52,0,0,1,2.44,17.12C181.81,136.3,181.69,137.77,181.61,139.24Z"/><path class="cls-2" d="M181.8,134.83c0,1.47-.11,2.94-.19,4.41s-.28,3-.59,4.41a50.88,50.88,0,0,1-2.23,8.65,7.5,7.5,0,0,1-14.21-4.8l.07-.21a66.81,66.81,0,0,0,3.2-13.33,64.91,64.91,0,0,0,.56-7,70.08,70.08,0,0,0-.06-7.24c-.13-2.44-.4-4.9-.76-7.37s-.78-5-1.32-7.47a101.53,101.53,0,0,0-4.43-14.92v0a.7.7,0,0,1,.41-.91.71.71,0,0,1,.76.16,70.84,70.84,0,0,1,16.36,28.57A58.52,58.52,0,0,1,181.8,134.83Z"/><path class="cls-1" d="M71,120.25c3.17-24-6.62-47.76-19.2-67.67a1.54,1.54,0,0,0-2.85.72c-.63,10.21-4.77,33.7-28.8,48.34A42.17,42.17,0,0,0,2,123.56C-.94,132-1.43,142.34,6.1,152.64c6.52,8.93,16.6,14.37,27.79,12.71C55.71,162.11,68.3,140.54,71,120.25ZM45.27,154.5c-.87.47-1.71,1-2.61,1.39a34.91,34.91,0,0,1-5.52,2.16,5,5,0,0,1-2.93-9.52l.14,0A44.39,44.39,0,0,0,42.77,145a41.45,41.45,0,0,0,4-2.42,47.34,47.34,0,0,0,3.87-2.84c1.27-1,2.49-2.12,3.68-3.27s2.38-2.35,3.51-3.61a65.75,65.75,0,0,0,6.32-8.17l0,0a.46.46,0,0,1,.65-.13.47.47,0,0,1,.21.47A46.87,46.87,0,0,1,56,144.94a38.63,38.63,0,0,1-8.28,7.95C46.93,153.47,46.09,154,45.27,154.5Z"/><path class="cls-2" d="M47.71,152.89c-.78.58-1.62,1.08-2.44,1.61s-1.71,1-2.61,1.39a34.91,34.91,0,0,1-5.52,2.16,5,5,0,0,1-2.93-9.52l.14,0A44.39,44.39,0,0,0,42.77,145a41.45,41.45,0,0,0,4-2.42,47.34,47.34,0,0,0,3.87-2.84c1.27-1,2.49-2.12,3.68-3.27s2.38-2.35,3.51-3.61a65.75,65.75,0,0,0,6.32-8.17l0,0a.46.46,0,0,1,.65-.13.47.47,0,0,1,.21.47A46.87,46.87,0,0,1,56,144.94,38.63,38.63,0,0,1,47.71,152.89Z"/><path class="cls-1" d="M132.85,29.7c-3.46,6.38-9.4,8.37-15,8.61a31,31,0,0,1-17.78-5.16c-15.5-10-29.89-7.12-35.79-5.24-.86.28-1.73-.69-1.27-1.4C70.31,15.26,80.6,4.7,95,1.2c12.15-3,28-.77,36.5,10.49A16.25,16.25,0,0,1,132.85,29.7Z"/><ellipse class="cls-2" cx="122.06" cy="15.03" rx="4.13" ry="5.13" transform="translate(34.12 101) rotate(-51.37)"/></g></g></svg>