<?xml version="1.0" encoding="utf-8"?>
<!-- Generator: Adobe Illustrator 25.0.0, SVG Export Plug-In . SVG Version: 6.00 Build 0)  -->
<svg version="1.1" id="Layer_1" xmlns="http://www.w3.org/2000/svg" xmlns:xlink="http://www.w3.org/1999/xlink" x="0px" y="0px"
	 viewBox="0 0 128 128" style="enable-background:new 0 0 128 128;" xml:space="preserve">
<style type="text/css">
	.st0{fill:#FF5050;}
	.st1{fill:#FFFFFF;}
	.st2{fill:#9B0270;}
</style>
<g>
	<g>
		<polygon class="st0" points="114,34 114,24 104,24 104,14 74,14 74,24 64,24 54,24 54,14 24,14 24,24 14,24 14,34 4,34 4,64 
			14,64 14,74 24,74 24,84 34,84 34,94 44,94 44,104 54,104 54,114 64,114 124,54 124,34 		"/>
	</g>
	<g>
		<rect x="24" y="34" class="st1" width="10" height="10"/>
	</g>
	<g>
		<g>
			<rect x="64" y="104" class="st2" width="10" height="10"/>
		</g>
		<g>
			<rect x="74" y="94" class="st2" width="10" height="10"/>
		</g>
		<g>
			<rect x="84" y="84" class="st2" width="10" height="10"/>
		</g>
		<g>
			<rect x="94" y="74" class="st2" width="10" height="10"/>
		</g>
		<g>
			<rect x="104" y="64" class="st2" width="10" height="10"/>
		</g>
		<g>
			<rect x="114" y="54" class="st2" width="10" height="10"/>
		</g>
	</g>
</g>
</svg>
