<?xml version="1.0" encoding="utf-8"?>
<!-- Generator: Adobe Illustrator 25.0.0, SVG Export Plug-In . SVG Version: 6.00 Build 0)  -->
<svg version="1.1" id="Capa_1" xmlns="http://www.w3.org/2000/svg" xmlns:xlink="http://www.w3.org/1999/xlink" x="0px" y="0px"
	 viewBox="0 0 511 192" style="enable-background:new 0 0 511 192;" xml:space="preserve">
<style type="text/css">
	.st0{clip-path:url(#SVGID_2_);}
	.st1{fill:#D3C916;}
	.st2{fill:#FFFF00;}
	.st3{fill:none;stroke:#000000;stroke-width:0.5;stroke-miterlimit:10;}
</style>
<g>
	<defs>
		<rect id="SVGID_1_" width="511" height="192"/>
	</defs>
	<clipPath id="SVGID_2_">
		<use xlink:href="#SVGID_1_"  style="overflow:visible;"/>
	</clipPath>
	<g class="st0">
		<path d="M502.1,82c-7.2-2.6-10.9-3.9-18.2-6.3l-9.2-3l-1.1,4.8c-0.9-1.3-1.7-2.6-2.5-3.9l-1.8-2.6l-3-0.9
			c-8.2-2.5-16.7-4.8-24.9-7l-9.3-2.5l-1.4,7.9c-5.7-8.4-15.2-14.5-26.3-16.8c-11.8-2.5-23.7-0.4-32.4,5.7c-2.2,1.5-4.2,3.3-6.1,5.3
			c-2.2-4-5.1-7.4-8.6-10.1c-8.7-6.6-20.2-10.6-33.5-11.7l-0.6-0.1c-7.1-0.6-15.1-1.2-23.2-0.4l-4.1-0.2c-17.9-0.9-35.9-1.2-53.8-1
			l-9.5,0.1l0.2,2.3c-1.8-0.2-3.5-0.6-5.3-0.8c-5.8-0.9-8.8-1.3-14.7-2.1l-7.7-1l-0.8,3.1l-3.4,0.3c-11.8,1-23.7,2.1-35.5,3.6
			l-9.5,1.1l1.6,7.8c-8.4-5.6-19.5-7.7-30.6-5.7c-11.3,2-21.1,7.9-27.1,16l-1.3-7.9l-9.4,2.1c-8.7,2.1-17.5,4.3-26.1,6.6l-5.3,1.4
			l-5.5,14.9c-2.8-2.9-4.9-5.2-6-6.3l-3.7-4l-5.3,1.7C27.8,75.4,18.3,78.6,9,82l-9,3.2l12.2,30.3l2,4.3c4.6,10.1,9.3,20.5,13.5,31
			c4.5,11.2,8.8,22.5,12.5,32.1l1.5,4l4.1-1.4c6.1-2.2,9.2-3.3,15.4-5.3l4-1.3l-1.2-4c-1-3.3-1.8-5.8-2.5-8.3
			c4.4,3,8.8,6.2,13.1,9.3l4.8,3.5l1.9-5.6c1.6-4.6,3.2-9.2,4.9-13.8c0.6,2.2,1.3,4.6,2.2,7.5l1.2,4.1l4.2-1.1
			c6.3-1.7,9.4-2.5,15.8-4l4.1-1l-1.1-5.2c-1.3-5.8-2.5-11.7-3.7-17.5c2.5,4,5.4,7.6,8.8,10.6c6.2,5.5,14,8.4,22,8.4
			c2,0,4-0.2,5.9-0.6c9.7-1.7,18.1-8,23.1-17.1c2.2-4.1,3.8-8.6,4.8-13.4h0.2c1,6.3,2,12.7,2.9,19l0.6,4.2l4.2-0.6
			c8.1-1,16.3-1.8,24.5-2.5l4.2-0.3l-0.2-4.2c0-0.4,0-0.8-0.1-1.1c2.9,3.6,4.9,6,6,7.1l2.3,2.5l3-1.7c4.9-2.7,8.3-4.4,10.2-5.4
			c4.2-2,7.3-3.4,9.4-4.4l2.2-1c0.1,0.8,0.1,1.6,0.2,2.4l0.2,4.2h4.2c13.2-0.1,26.7,0.2,39.9,0.7l3.5,0.2l0.9-3.4
			c0.7-2.5,1.3-4.8,1.8-6.7c0.2-0.8,0.5-1.6,0.7-2.2c-0.1,2.8-0.2,5.6-0.2,8.3l-0.1,4.2l4.2,0.2c8.1,0.6,16.3,1.3,24.5,2.1l4.2,0.5
			l0.6-4.2c0.6-3.9,0.9-6.3,1.4-9.4c7.5,0.1,16-2.1,21.7-5.9c2.2-1.4,4.2-3.4,6.1-5.7c0.4,6.8,2.1,13.3,4.9,19
			c4.7,9.3,13.1,15.8,23,17.9c2.2,0.5,4.4,0.7,6.6,0.7c7.6,0,15.1-2.7,21.2-7.7c1.8-1.5,3.5-3.1,5.1-4.9v17.5l4,1.1
			c5.6,1.5,8.4,2.3,13.9,4l4.1,1.3l1.3-4.1c1.5-4.9,3.1-9.8,4.6-14.8c2.7,3.3,5,6.3,7,8.8l0.1,0.2c4.3,6,8.7,12.3,12.8,18.6l4.7,7.4
			l4-10.6c4.1-10.9,8.3-22.1,12.7-32.9c4.1-10.2,8.2-19.9,12.2-28.9l1.9-4.3l10.3-30.3L502.1,82z M236.7,98.8
			c-0.2-0.2-0.4-0.3-0.6-0.5c0.2-0.3,0.3-0.6,0.5-1C236.6,97.8,236.6,98.3,236.7,98.8z"/>
		<path class="st1" d="M104.2,134.2c-1,0.2-2.9,0.7-3.7,0.9L88.3,71.9l-21.2,5.2l-7.6,25.6l-19.7-22c0.2,0.2,13.9,11.9,18.3,15.5
			c0.8-2.4,6.3-18.1,7.2-22.9c8.6-2.3,17.3-4.5,25.9-6.6c1.8,11.3,3.8,22.6,5.9,33.8C99.3,111.7,101.8,123,104.2,134.2z"/>
		<path class="st2" d="M100.6,135.1c-4.9,1.2-6.9,1.7-12.4,3.2c-2.4-8.1-3.5-12.1-5.9-20.2c-3.4,8.7-6.7,17.5-9.8,26.3
			c-7.8-5.6-15.8-11-23.8-16.3c2.4,8,3.6,12,6.1,20c-6.4,2.1-9.6,3.1-15.9,5.3c-4.2-10.7-8.4-21.6-12.8-32.1
			c-4.3-10.5-9.2-20.9-13.9-31.2c9.2-3.3,18.5-6.4,27.9-9.4c1.5,1.7,4.1,4.4,7.4,7.8l12.3,14.2l7.6-25.6l21.2-5.2L100.6,135.1z"/>
		<path class="st1" d="M162.7,112.3c3.1-19.2,2-42.4-18.6-49.3c-22.7-7.5-35.5,5.5-41.4,14.2c0.8-2.5,1.9-5.1,3.4-7.4
			c5-7.5,13.5-12,22.2-13.6c8.7-1.6,18-0.2,25.3,5.2c8,5.8,12,15.4,13.1,24.8C167.9,95.2,166.7,104.4,162.7,112.3z"/>
		<path class="st1" d="M240,51.6c-0.7,1.3-1.4,2.5-2.2,3.9L213,51l-11.6,35.7l-3.3-33.6l-31.3,2.7c-0.2-0.8-0.3-1.6-0.5-2.4
			c11.7-1.3,23.4-2.5,35.1-3.5c0.1,10.1,0.2,20.2,0.4,30.1c0.2,0,0.2,0,0.3,0c1.1-3.6,2.9-9.5,5.3-17.9c1-3.6,2.3-8.5,4-14.8
			c5.8,0.8,8.7,1.2,14.5,2.1C230.7,50.1,235.4,50.9,240,51.6z"/>
		<path class="st1" d="M238,111.3c-1.4,0.6-3.6,1.6-6.3,2.9L218.8,100l-0.7-6.7c0.5,0.6,3.2,3.3,8,7.9
			C228.9,103.8,232.9,107.1,238,111.3z"/>
		<path class="st2" d="M218.8,100l12.9,14.2c-1.1,0.5-2.3,1.1-3.6,1.7c-2.6,1.3-6.1,3.1-10.7,5.5c-1.2-1.3-3.8-4.4-7.8-9.1
			c-2.2-2.9-4.5-5.9-6.6-9c-0.1,0-0.1,0-0.2,0c0.3,6.1,0.5,9.2,0.8,15.4c-8.4,0.6-16.8,1.5-25.3,2.5c-1.8-11.7-3.7-23.6-5.6-35.3
			c-1.8-10.1-3.7-20.1-5.9-30.1l31.3-2.7l3.3,33.6l11.6-35.7l24.8,4.4c-2.9,5.2-5.7,10.4-8.4,15.7c-3.8,7.4-7.6,14.8-11.3,22.1
			L218.8,100z"/>
		<path class="st1" d="M291.4,103.9c-0.3,0.9-1,3.1-2.1,6.6c-0.6,1.8-1.2,4-1.9,6.8c-0.8,0-1.6-0.1-2.5-0.1l2.4-7.5h-16l-1.1-6.1
			l3-8.6c-0.3,4-0.5,6-0.7,9.9c2.3,0,6.7,0,12.9-0.2C286.7,104.6,288.7,104.3,291.4,103.9z"/>
		<path class="st1" d="M291.2,83.9c-0.4,1.1-1.1,3.1-2,6.1c-0.6,1.7-1,3.9-1.5,6.3c-0.6-0.2-1.6-0.4-3-0.6l1.9-7.1l-13.8-1.9
			l-1.4-4.1l3.5-7.5c-0.4,3.4-0.6,5.1-1,8.5C277.4,83.7,283.2,83.8,291.2,83.9z"/>
		<path class="st2" d="M274.9,75l-2.3,5.5l0.1,6.2l13.8,1.9l-1.9,7.1c-1-0.2-2.3-0.3-3.7-0.5c-1.7-0.2-4.2-0.3-7.6-0.3L271,103
			l0.3,6.5h16l-2.4,7.5c-12.8-0.5-25.7-0.7-38.6-0.6c-0.6-11.7-1.3-23.3-1.9-35c-0.6-10.8-1.4-21.6-2.4-32.4l48.3,4l-1.9,23.2
			c-1.3-0.2-2.8-0.5-4.6-0.7C281.2,75.4,278.1,75.1,274.9,75z"/>
		<path class="st1" d="M295.3,48.9c-1.3,9.4-2.5,18.7-3.7,28.2c-0.6-0.2-1.7-0.3-3.2-0.6l1.9-23.2l-48.3-4c0-0.4-0.1-0.8-0.1-1.2
			C259.8,47.8,277.5,48.1,295.3,48.9z"/>
		<path class="st1" d="M360.9,82.9c-0.9,6.7-5.9,15.2-11.6,18.8c-6.1,4-16.1,6-23.4,4.8c24.5-8.3,34.8-22.2,25.9-37.4
			c-7.7-13.2-42.9-14.7-52-14.8v-5c7.7-0.8,15.6-0.2,23.3,0.4c10.1,0.8,20.6,3.6,28.9,9.9c5.7,4.4,8.8,10.9,9.3,17.8
			C361.2,79.2,361.1,81.1,360.9,82.9z"/>
		<path class="st1" d="M325.8,106.6c-0.8,5.4-1.2,8.1-2,13.5c-0.8-0.1-2.2-0.2-3-0.2l0.6-4.9L325.8,106.6z"/>
		<path class="st1" d="M426.9,102.3c-1.4,5.3-3.7,10.4-6.8,14.9c4-20,4.7-46.8-17.8-54.2c-8.1-2.6-14.9-2.7-20.6-1.3
			c6.5-2.7,13.8-3,20.6-1.6c8.6,1.8,16.9,6.5,21.6,14.1C429.2,82.8,429.4,93.1,426.9,102.3z"/>
		<path class="st2" d="M402.4,63.1c-8.1-2.6-14.9-2.7-20.6-1.3c-1.8,0.7-3.4,1.7-5,2.8c-8.1,5.6-12.4,15.1-13.9,24.5
			c-1.4,9.3-0.3,19.2,4.1,27.6c4.1,7.9,11.6,13.7,20.5,15.6c8.7,1.8,17.7-0.6,24.6-6.1c3.2-2.5,5.9-5.5,8.1-8.8
			C424.1,97.3,424.9,70.5,402.4,63.1z M402.5,104.6c-0.7,3.2-2.2,6-4.5,8.6c-2.5,2.9-4.9,4-7.3,3.5s-4.1-2.5-5.2-6
			c-1-3.1-1.1-6.3-0.4-9.6c1.6-8.2,5.3-11.7,11.2-10.6C402.1,91.7,404.3,96.5,402.5,104.6z"/>
		<path class="st1" d="M446.8,120.4c-2.4,7.5-4.8,15.1-7.2,22.5c-1.3-0.4-2.4-0.7-3.4-1l3.9-12.6L446.8,120.4z"/>
		<path class="st1" d="M499.1,90.1c-1,2.4-2.2,4.8-3.2,7.1l-14-7l-5.4,17.8l-14.3-25.5l-24.1-6.4c0.2-1.6,0.6-3.1,0.8-4.7
			c8.3,2.2,16.5,4.5,24.7,7c4.5,6.8,8.9,13.7,13.2,20.6c1.1-3.4,2-6.1,2.5-8.1c0.5-1.7,1-4.1,1.7-7.1
			C488.3,86.3,491.9,87.6,499.1,90.1z"/>
		<path class="st2" d="M495.9,97.3c-3.2,7.3-6.3,14.6-9.3,21.8c-4.9,11.7-9.4,23.6-13.9,35.4c-4.2-6.4-8.8-12.7-13.3-19
			c-2.7-3.4-6.9-8.5-12.5-15.2l-6.7,8.9l-3.9,12.6c-3.7-1.1-6.4-1.8-10.9-3c2.5-11.1,4.9-22.4,7.3-33.5c2-9.7,3.9-19.4,5.6-29.3
			l24.1,6.4l14.3,25.5l5.4-17.8L495.9,97.3z"/>
		<path d="M285,0l-28.1,24.1v6.3l15.8,7.4l38.4-18.3v-6.3L285,0z"/>
		<path class="st2" d="M264.2,23.1l21.4-18.3l16.6,8.3l-29.4,14L264.2,23.1z"/>
		<path class="st1" d="M285.5,4.8l8.2,7.9l-21,14.4l29.4-14L285.5,4.8z"/>
		<path class="st2" d="M144.1,63.1c-22.7-7.5-35.5,5.5-41.4,14.2c-2,6.6-1.8,13.9-0.2,20.5c2.2,9.1,6.9,17.9,14.1,24.1
			c6.9,5.9,15.9,8.4,24.8,6.8c8.8-1.6,16.2-7.1,20.5-14.8c0.3-0.6,0.6-1,0.9-1.6C165.8,93.1,164.7,69.9,144.1,63.1z M144,107.2
			c-1.3,3.6-3.1,5.6-5.4,6c-2.5,0.4-4.8-0.8-7.1-3.6c-2-2.5-3.3-5.5-4-8.7c-1.6-8.2,0.6-12.9,6.5-13.9c6.1-1.1,9.7,2.5,11.1,10.7
			C145.5,100.8,145.2,103.9,144,107.2z"/>
		<path class="st3" d="M144,107.2c-1.3,3.6-3.1,5.6-5.4,6c-2.5,0.4-4.8-0.8-7.1-3.6c-2-2.5-3.3-5.5-4-8.7
			c-1.6-8.2,0.6-12.9,6.5-13.9c6.1-1.1,9.7,2.5,11.1,10.7C145.5,100.8,145.2,103.9,144,107.2z"/>
		<path class="st2" d="M351.7,69.1c-7.7-13.2-42.9-14.7-52-14.8c0,10.1-0.1,20.2-0.2,30.3c-0.2,11.1-0.6,22.2-0.8,33.3
			c7.6,0.5,14.6,1.1,22.2,1.9l0.6-4.9l4.5-8.3C350.3,98.3,360.6,84.3,351.7,69.1z M339.8,87.6c-0.7,5.6-4.9,8-12.4,7.5
			c0.9-6.2,1.3-9.3,2.2-15.5c0.8,0,1.5,0,2.2,0.1C337.7,80.3,340.4,83,339.8,87.6z"/>
		<path class="st3" d="M339.8,87.6c-0.7,5.6-4.9,8-12.4,7.5c0.9-6.2,1.3-9.3,2.2-15.5c0.8,0,1.5,0,2.2,0.1
			C337.7,80.3,340.4,83,339.8,87.6z"/>
	</g>
</g>
</svg>
