<svg xmlns="http://www.w3.org/2000/svg" viewBox="0 0 212.14 248.14"><defs><style>.cls-1{fill:#3d9ff9;}.cls-2{fill:#3df9b5;}.cls-3{fill:#fc1d2d;}.cls-4{fill:#fbb03b;}</style></defs><g id="Capa_2" data-name="Capa 2"><g id="Capa_3" data-name="Capa 3"><path class="cls-1" d="M182.15,70.38h0a68,68,0,0,0-36.37,8.47l-1.1.61a94.61,94.61,0,0,0-2.85-40.15A121.86,121.86,0,0,0,127.62,9.08l7.83.41A43.88,43.88,0,0,0,165.08,0h0a152.68,152.68,0,0,1,16.84,64.25Z"/><path class="cls-2" d="M212.14,228.11h0a68,68,0,0,0-32.07,19.12l-.86.91a94.76,94.76,0,0,0-14.91-37.38,122,122,0,0,0-22.73-24.48l7.58-2a43.9,43.9,0,0,0,25.35-18h0a152.51,152.51,0,0,1,35.56,56.1Z"/><path class="cls-3" d="M96.72,136.94h0a67.92,67.92,0,0,0,11,35.7l.68,1.05a94.67,94.67,0,0,0-39.86,5.6,121.65,121.65,0,0,0-29.18,16.25l-.13-7.84a43.9,43.9,0,0,0-11.51-28.91h0a152.73,152.73,0,0,1,63-21.2Z"/><path class="cls-4" d="M78.35,52.93h0A60.39,60.39,0,0,0,66.44,85.47l-.07,1.17a95.91,95.91,0,0,0-34.3-18.78A123.24,123.24,0,0,0,0,63.05l4.39-5.84A39.05,39.05,0,0,0,12,29.34h0A155.54,155.54,0,0,1,73.23,49.9Z"/></g></g></svg>