<svg xmlns="http://www.w3.org/2000/svg" viewBox="0 0 2065.19 2374.71"><defs><style>.cls-1{fill:#e4e4e4;}.cls-2{fill:#496aa9;}.cls-3{fill:#5279a0;}.cls-4{fill:#638bbf;}.cls-5{fill:#5e83b7;}.cls-6{fill:#2c4b77;}.cls-7{fill:#a7c8d8;}.cls-8{fill:#90b5d0;}.cls-9{fill:#c5dbe9;}.cls-10{fill:#395375;}.cls-11{fill:#060606;}.cls-12{fill:#80aed8;}.cls-13{fill:#293f56;}.cls-14{fill:#3b5d93;}.cls-15{fill:#6689bc;}.cls-16{fill:#a9c7db;}.cls-17{fill:#abc5d3;}.cls-18{fill:#7ea4ce;}.cls-19{fill:#42618e;}.cls-20{fill:#fff;}</style></defs><g id="Capa_3" data-name="Capa 3"><path class="cls-1" d="M1497.15,390.77c-34.86-37.75-83.41-61.16-137.11-61.16C1254,329.61,1168,421,1168,533.67a217.62,217.62,0,0,0,2.32,31.81q-6.63-3.74-12.77-7.63c-1.63-1-3.24-2.08-4.84-3.13-2.13-1.39-4.21-2.8-6.23-4.2-.64-.45-1.29-.91-1.93-1.34l-3.74-2.69h0c-1.84-1.37-3.64-2.71-5.4-4.06h0c-.57-.43-1.14-.87-1.7-1.32l-.06,0-1.69-1.33-1.23-1-.46-.37-.37-.29-1.3-1.05c-.55-.44-1.1-.88-1.64-1.34s-1.08-.88-1.61-1.34c-1.07-.9-2.11-1.79-3.13-2.67l-.69-.59c-.41-.35-.82-.72-1.23-1.08l-.2-.18c-.48-.41-1-.83-1.42-1.25l-1.2-1.09c-.4-.36-.8-.71-1.19-1.08l-.7-.64c-.24-.23-.47-.45-.71-.66s-.67-.61-1-.93l-.06-.06a4,4,0,0,0-.31-.29v0l-.06,0h0c-.43-.42-.85-.83-1.28-1.23-2.23-2.12-4.33-4.23-6.32-6.27-.36-.37-.72-.73-1.06-1.1s-.69-.71-1-1.07c-1.75-1.85-3.4-3.66-5-5.41,0-.06-.09-.12-.15-.18l-.45-.52-.48-.55c-.15-.19-.32-.38-.47-.55h0v0l-.94-1.1-.38-.45-.4-.48q-.53-.61-1-1.23l-.68-.83-.09-.1c-.74-.92-1.43-1.8-2.09-2.67q-.21-.25-.39-.51l0,0c-.08-.12-.18-.24-.27-.37a2.88,2.88,0,0,1-.26-.35c-.08-.1-.17-.2-.24-.3-.23-.31-.44-.62-.67-.91l-.64-.89c-.71-1-1.37-1.95-2-2.86-.12-.17-.22-.35-.33-.52s-.43-.65-.64-1l-.13-.21c-.19-.32-.38-.63-.57-.92,0-.07-.08-.13-.1-.19-.31-.49-.58-1-.84-1.41l-.28-.5c-.09-.17-.19-.33-.27-.5-.28-.54-.54-1-.76-1.54-.1-.19-.18-.37-.26-.56s-.17-.37-.24-.54A15,15,0,0,1,1082,484c0-.08,0-.15,0-.2s0-.2-.07-.31a1.28,1.28,0,0,1-.05-.27c-6.74-45.28,5.09-69.62,5.68-70.78v0l0,0c64.82-142.85,168.06-165.65,168.06-165.65a468.35,468.35,0,0,1,59.7-9.75,133.56,133.56,0,0,1,77.11,16.39C1457.82,289.89,1486.91,340.48,1497.15,390.77Z" transform="translate(-264.88 -160.71)"/><path class="cls-1" d="M2291.56,932.22c-.71,1.58-1.48,3.13-2.29,4.66v0c-7.33,14-17.67,26-25.4,33.89a66,66,0,0,1-24.79,16c-49.54,17.84-95.15,1.81-95.15,1.81q-5.45-1.78-10.72-3.62a193,193,0,0,0,92.05-164.59c0-106.66-86.47-193.12-193.12-193.12q-8.52,0-16.85.73c40.91-23.24,92.83-38.48,156.25-31.34,0,0,68.68,7.57,114.33,80,.71,1.12,1.41,2.26,2.11,3.41C2362.39,813.37,2291.56,932.22,2291.56,932.22Z" transform="translate(-264.88 -160.71)"/><path class="cls-2" d="M2330.05,1048.67s0,0,0,0h0c-.67,1.47-16.54,33-153.42,57.58-22.71,3.38-40.75,5.32-56.52,3.64h0q-5.43-.81-11.08-1.88c-2.75-.75-5.44-1.69-8.12-2.65s-5.34-1.94-8-3c-5.29-2.08-10.46-4.44-15.62-6.78s-10.28-4.79-15.31-7.41l-7.59-3.82-4.75-2.55-2.75-1.47-7.47-4-7.41-4.18-7.39-4.17c-2.47-1.37-4.87-2.88-7.31-4.32-4.85-2.94-9.76-5.73-14.58-8.71l-14.4-9c-4.83-2.94-9.53-6.12-14.28-9.18s-9.51-6.14-14.19-9.32l-14-9.55-7-4.76c-2.35-1.57-4.63-3.25-7-4.88L1918,998.41l-6.93-4.88-6.86-5-27.43-20.13q-13.77-10.2-27.66-20.26t-28-19.85c-18.71-13.16-37.77-25.9-57-38.38s-38.92-24.39-58.83-35.92-40.27-22.34-61-32.6-41.76-19.73-63.2-28.39-43.25-16.47-65.4-23.22-44.55-12.65-67.22-17.33l-17-3.35-17.1-3-17.15-2.52L1380,741.49c-11.31-1.38-22.52-2.6-33.79-3.91l-33.73-4.32c-11.21-1.64-22.45-3.16-33.65-4.89s-22.41-3.46-33.56-5.47c-5.58-1-11.2-1.83-16.76-2.94l-16.71-3.13-16.68-3.4c-5.56-1.13-11.07-2.42-16.63-3.61s-11-2.62-16.59-3.88-11-2.76-16.5-4.21c-11-2.89-21.92-6.06-32.65-9.92q-3.6-1.72-7.13-3.59-9.39-5-18.3-10.78c-3-1.91-5.88-4-8.79-6.06-1.45-1-2.93-2-4.36-3.1l-4.28-3.22c-1.16-.87-2.33-1.75-3.48-2.66-35.07-34.6-66.56-74.53-81.66-116.17a.25.25,0,0,1,0-.07c-10.41-28.75-13-58.33-3.55-87.54,43.82-49.46,106.34-46.19,106.34-46.19l0,0v0c-1.3,1.48-37,44-24.58,105-13.52-19.28-25-25.94-33.23-27.66a14.32,14.32,0,0,0-16.82,11.63c-4.12,22.49-2.6,81.44,102.26,139.07,133.25,73.21,277.2,76.82,277.2,76.82s342.22,31.21,582.31,286.9C1974.66,1004.24,2152.48,1167.49,2330.05,1048.67Z" transform="translate(-264.88 -160.71)"/><path class="cls-3" d="M2049.65,1081.79c-9.14-2.6-17.85-5.39-25.74-8.38-4-1.9-7.92-3.87-11.85-5.85q-17.55-8.89-34.61-18.7c-16.86-10.29-38-23.66-60.55-38.12q-25.35-17.24-49.59-36-8.47-6.59-16.8-13.4l-8.57-6.84-8.72-6.65c-11.73-8.69-23.76-16.88-35.93-24.81-24.37-15.85-49.31-30.66-74.57-44.87s-50.89-27.67-76.69-40.77q-19.38-9.82-38.91-19.3l-9.79-4.72-4.91-2.32-2.47-1.17-.67-.32c-.3-.14-.65-.3-.82-.36l-1.31-.49c-3.46-1.32-7-2.68-10.4-4s-6.81-2.54-10.25-3.74c-54.83-19.48-111.34-33.82-168.23-44.82-28.45-5.48-57-10.23-85.48-14.89l-9.11-1.51c-29.89-6.85-48.08-10.45-48.08-10.45q-14.31-1-27.67-2.66l-.26,0c-28.16-5.5-56.08-12.08-83-21.52A301.81,301.81,0,0,1,1113.13,692c-.12-.06-.25-.12-.36-.19,10.73,3.86,21.66,7,32.65,9.92,5.5,1.45,11,2.88,16.5,4.21s11,2.72,16.59,3.88,11.07,2.48,16.63,3.61l16.68,3.4,16.71,3.13c5.56,1.11,11.18,2,16.76,2.94,11.15,2,22.37,3.71,33.56,5.47s22.44,3.25,33.65,4.89l33.73,4.32c11.27,1.31,22.48,2.53,33.79,3.91l17.21,2.12,17.15,2.52,17.1,3,17,3.35c22.67,4.68,45.09,10.57,67.22,17.33s43.93,14.64,65.4,23.22,42.49,18.23,63.2,28.39,41,21.18,61,32.6,39.55,23.48,58.83,35.92,38.32,25.22,57,38.38q14.05,9.86,28,19.85t27.66,20.26l27.43,20.13,6.86,5,6.93,4.88,13.87,9.81c2.32,1.63,4.6,3.31,7,4.88l7,4.76,14,9.55c4.68,3.18,9.47,6.2,14.19,9.32s9.45,6.24,14.28,9.18l14.4,9c4.82,3,9.73,5.77,14.58,8.71,2.44,1.44,4.84,2.95,7.31,4.32l7.39,4.17,7.41,4.18,7.47,4Z" transform="translate(-264.88 -160.71)"/><path class="cls-4" d="M2330.05,1048.67c-177.57,118.82-355.39-44.43-355.39-44.43-240.09-255.69-582.31-286.9-582.31-286.9s-143.95-3.61-277.2-76.82c-111.72-61.4-106.13-124.29-101.41-143a10.7,10.7,0,0,1,9.22-8.09c8.08-.82,22.25,2.77,40,28.05,0,0,190,199.86,412.33,63,0,0,193.48-145.93,12.82-356.54,0,0-59.63-66-116.44-51.07h0c133.61-50.75,189.86,69.61,236.9,133.91,58.82,80.44,369.73,177.67,369.73,177.67s138-30,218.47,0S2288,680.13,2288,680.13c-.7-1.15-1.4-2.29-2.11-3.41C2226.85,559,2115.64,564,2066.67,572.9a127.61,127.61,0,0,0-41.1,15.15c-34.38,19.86-59.48,39.8-77.76,58.59-48.67,50-49.22,91.79-48.46,102.35.15,2.13.23,4.29.26,6.44a238.19,238.19,0,0,0,5,43.52c8.43,41.32,30.83,101.86,90.08,149.15,26.87,21.44,61.31,40.16,105.47,53.12,34,10,73.86,16.56,120.42,18.31a28.4,28.4,0,0,0,20.54-7.64c11.75-11.06,32.1-34.44,48.13-75v0c.81-1.53,1.58-3.08,2.29-4.66C2322.43,986.6,2329.68,1025.2,2330.05,1048.67Z" transform="translate(-264.88 -160.71)"/><path class="cls-2" d="M1475.27,580.49c-222.37,136.85-412.33-63-412.33-63-12.39-61,23.28-103.52,24.58-105-.59,1.16-12.42,25.5-5.68,70.78a1.28,1.28,0,0,0,.05.27c1.15,7.9,20.91,35,57,61.6l1.84,1.36h0c1.23.9,2.48,1.79,3.74,2.69.64.43,1.29.89,1.93,1.34,2,1.4,4.1,2.81,6.23,4.2,1.6,1,3.21,2.1,4.84,3.13q6.15,3.89,12.77,7.63a312,312,0,0,0,59.56,25.92c62.88,19.83,144.22,23.39,240.92-16.31,0,0,65.73-52.22,57.63-150.35s-110.74-246.09-272.8-178c44.24-37.76,82.56-61.21,116-73.9h0c56.81-14.94,116.44,51.07,116.44,51.07C1668.75,434.56,1475.27,580.49,1475.27,580.49Z" transform="translate(-264.88 -160.71)"/><path class="cls-2" d="M1716.34,2415.3c-17.75,9.72-29.49,10.85-29.49,10.85-78.32,5.39-94.53-53.13-94.53-53.13,7.21-109.83-12.2-243.73-12.2-243.73v0c41.6-28.11,75.67-57.29,103.57-86.4-11.15,23.2-33.7,53.28-77.57,89.77,0,0,19.21,138.05,13.21,234.08,0,0,49.22-28.81,82.83-10.8,0,0-66.52-3.6-67.48,37.21C1634.68,2393.13,1653.69,2435.07,1716.34,2415.3Z" transform="translate(-264.88 -160.71)"/><path class="cls-2" d="M1925,2399.14c-3.55-6.6-9.64-14.78-19.15-18.41,0,0,12.56-2.2,30.92,2.23a5.24,5.24,0,0,0,5.45-8.22c-10-13.33-33.09-34.21-83.59-43.64,0,0,.31-3.75.8-8.46,88.13,5.9,108.45,57.29,108.45,57.29C1969.81,2398.78,1929.63,2399.16,1925,2399.14Z" transform="translate(-264.88 -160.71)"/><path class="cls-5" d="M1936.75,2383c-18.36-4.43-30.92-2.23-30.92-2.23,9.51,3.63,15.6,11.81,19.15,18.41h-.44c3.42,13.31-9.63,18-27.14,18.57h0a58.21,58.21,0,0,1-30.36-12.27c-26.81-21.31,26.81-32.57,26.81-32.57-48.82-21.45-64.83,23.46-64.83,23.46l-16.41-3.2c-23.2-12,40.83-50.41,40.83-50.41-65.23-15.21-87.64,46.56-87.64,46.56h-29.21c-2.8-8.66-17.21-16.16-17.21-16.16a47.44,47.44,0,0,1,12.51,32.32,147.88,147.88,0,0,1-15.52,9.86h0c-62.65,19.77-81.66-22.17-81.66-22.17,1-40.81,67.48-37.21,67.48-37.21-33.61-18-82.83,10.8-82.83,10.8,6-96-13.21-234.08-13.21-234.08,43.87-36.49,66.42-66.57,77.57-89.77,99.14-103.52,120.23-206.37,124-258.54,1.44,42.44,8.44,189.13,36.75,256.48,33.31,79.22,14.4,281.8,14.4,281.8l.6,0c-.49,4.71-.8,8.46-.8,8.46,50.5,9.43,73.62,30.31,83.59,43.64A5.24,5.24,0,0,1,1936.75,2383Z" transform="translate(-264.88 -160.71)"/><path class="cls-6" d="M1481.68,2286.7c18.41,23.76-92.33,19.44-140.74,13.55-14.27-1.73-28.35,1.19-42.28,4.75-61.29,15.7-61.29-13.81-61.29-13.81l68-23.49,120.11-41.5c71.39,9.12,93.46,44.89,93.46,44.89C1534.1,2293.49,1481.68,2286.7,1481.68,2286.7Z" transform="translate(-264.88 -160.71)"/><path class="cls-7" d="M1541,2157.87a903.33,903.33,0,0,1-115.55,68.33l-120.11,41.5c-124.62,7.4-310.44,7.18-283.8-63,20.57-54.23,24.14-123.84,22.84-178.22,11.7-30.07,24-63.25,36.05-98.68C1139.51,2081.38,1267.06,2240.94,1541,2157.87Z" transform="translate(-264.88 -160.71)"/><path class="cls-8" d="M1305.32,2267.7l-68,23.49c-158.76,32.33-266.72-1.31-266.72-1.31l1.65-97.22h0a0,0,0,0,1,0,0,.37.37,0,0,1,.07-.14l.49-1c.05-.11.11-.21.17-.34s.05-.12.09-.19l.28-.57,1.91-3.91.54-1.11c2.58-5.36,6.51-13.58,11.47-24.35.17-.39.36-.78.54-1.16q2.88-6.24,6.19-13.59c.34-.74.67-1.49,1-2.25q3.07-6.8,6.46-14.45l2.83-6.43c.59-1.34,1.18-2.71,1.79-4.09.78-1.81,1.6-3.66,2.39-5.53.09-.19.16-.36.24-.54q3-7,6.21-14.46c1.58-3.73,3.2-7.58,4.85-11.5.95-2.27,1.9-4.58,2.88-6.92.42-1,.86-2.06,1.29-3.1,1.31-3.13,2.61-6.3,3.93-9.53,1-2.4,2-4.84,3-7.31q1.86-4.55,3.73-9.22,4.75-11.86,9.69-24.49c1.3,54.38-2.27,124-22.84,178.22C994.88,2274.88,1180.7,2275.1,1305.32,2267.7Z" transform="translate(-264.88 -160.71)"/><path class="cls-7" d="M1805.17,1610.33c-16-91.28-471.56-182.33-517.15-101.91-45.27,79.8-133.09,140.93-134.47,141.88,1.35-2,74.09-107.85,83.82-191.09,9.65-82.55,509.53-30.72,568.27,53.08C1804.23,1543.28,1804.46,1576.5,1805.17,1610.33Z" transform="translate(-264.88 -160.71)"/><path class="cls-9" d="M2330.05,1052.44h0c-.25,16-3.67,23.82-3.67,23.82C2232.75,1283.94,1881,1340.36,1881,1340.36a75.4,75.4,0,0,0-21,10.06c-.68.47-1.36,1-2,1.46s-1.36,1-2,1.54-1.3,1-1.93,1.59l-.08,0c-.63.52-1.24,1.06-1.84,1.61l-.06.06c-.52.47-1,1-1.58,1.48-.71.65-1.4,1.34-2.08,2s-1.19,1.23-1.78,1.87-1,1-1.41,1.59-.73.83-1.08,1.25c-.14.17-.28.32-.4.48l-.93,1.13c-.39.48-.76,1-1.14,1.45a1.58,1.58,0,0,0-.12.15c-.5.66-1,1.33-1.5,2l-.07.08c-.52.71-1,1.44-1.53,2.17l-.07.09c-1,1.4-1.88,2.82-2.79,4.29l-.36.6c-.38.6-.74,1.21-1.09,1.83a.76.76,0,0,0-.12.19c-.41.7-.81,1.4-1.2,2.12-.08.14-.16.28-.23.42-.42.74-.82,1.49-1.22,2.26q-2,3.75-3.76,7.76c-.42.92-.82,1.85-1.22,2.8s-.74,1.74-1.09,2.64-.73,1.85-1.1,2.8-.71,1.89-1,2.84a1.89,1.89,0,0,0-.09.21q-1,2.78-1.93,5.64c-1,3-1.89,6-2.76,9.14-.25,1-.52,1.91-.77,2.88-.39,1.43-.75,2.89-1.12,4.37-.19.76-.37,1.53-.55,2.29-.26,1.08-.51,2.18-.75,3.27s-.48,2.2-.72,3.31-.47,2.26-.69,3.4-.45,2.23-.66,3.36c-.11.55-.21,1.11-.31,1.67-.23,1.28-.47,2.57-.69,3.88q-.71,4.15-1.34,8.44c-.18,1.12-.33,2.24-.48,3.37-.1.64-.19,1.28-.27,1.94s-.21,1.54-.31,2.32q-.43,3.45-.84,7c-.15,1.23-.29,2.48-.42,3.72s-.27,2.51-.38,3.77c-.25,2.52-.49,5.07-.71,7.63-.1,1.27-.21,2.54-.32,3.81-.11,1.53-.23,3.06-.34,4.6-.08,1.08-.15,2.17-.22,3.27s-.15,2.18-.21,3.29c0,.77-.1,1.55-.14,2.34-.07,1.14-.14,2.28-.2,3.42-.12,2.29-.24,4.59-.34,6.91-58.74-83.8-558.62-135.63-568.27-53.08-9.73,83.24-82.47,189.13-83.82,191.09,1.38-1,89.2-62.08,134.47-141.88,45.59-80.42,501.13,10.63,517.15,101.91,1,46.52,2.84,94.18,2.54,138.76q-.09,12-.39,23.56c0,.54.09,4.68.34,11.62v.06c-4.8,66.85-38.05,216.89-227.54,344.94q-19.68,15.12-39.14,28.6c-273.92,83.07-401.47-76.49-460.57-230.11,28.52-83.64,56.08-179.83,73.12-277.42v0q.68-3.85,1.32-7.7c.43-2.58.87-5.14,1.28-7.71s.83-5.14,1.23-7.7.81-5.24,1.21-7.87c.33-2.25.67-4.5,1-6.75.41-2.85.81-5.69,1.2-8.54.33-2.4.66-4.79,1-7.19,1-7.95,2-15.88,2.89-23.79q.84-7.59,1.58-15.16v-.06q.38-3.86.72-7.69c.46-5.11.88-10.23,1.27-15.33.19-2.55.37-5.09.54-7.64s.33-5.09.48-7.63.3-5,.43-7.52c0,0,0-.06,0-.08.13-2.49.24-5,.36-7.49,0-.12,0-.25,0-.38.11-2.43.2-4.86.29-7.29s.16-5,.23-7.49v-.07c.06-2.34.12-4.67.15-7,0-.54,0-1.09,0-1.63,0-1.49.06-3,.07-4.45,0-1.07,0-2.16,0-3.23.19-22.87-.59-45.43-2.43-67.52a73.09,73.09,0,0,0,2-7.43s36-168.06-76.82-374.54-138.06-307.3-138.06-307.3C922,574.7,945.36,499.05,981.2,458.62c-9.45,29.21-6.86,58.79,3.55,87.54a.25.25,0,0,0,0,.07c.09.27.17.55.25.83s.18.58.26.87.18.57.26.86c.27.89.56,1.82.88,2.77v0c.2.62.41,1.25.63,1.9s.45,1.32.69,2c.17.5.35,1,.54,1.54.36,1,.75,2.1,1.16,3.2.2.54.41,1.09.62,1.64l.36.92q.17.45.36.93.48,1.2,1,2.43c.37.87.73,1.75,1.11,2.64s.68,1.6,1,2.43c.6,1.37,1.23,2.77,1.87,4.19s1.21,2.59,1.85,3.9c.74,1.54,1.51,3.11,2.33,4.69q1.82,3.57,3.85,7.24c.45.83.92,1.65,1.39,2.47s.81,1.43,1.23,2.14q1.43,2.48,3,5c.68,1.12,1.38,2.24,2.1,3.37.08.13.17.25.26.38.46.73.94,1.46,1.42,2.19s.92,1.39,1.4,2.09l.28.43c.61.91,1.24,1.81,1.87,2.72l0,0q3.12,4.49,6.62,9c.65.86,1.33,1.73,2,2.6.88,1.11,1.77,2.23,2.69,3.34.85,1,1.72,1.91,2.59,2.85s1.74,1.87,2.63,2.79c.66.71,1.33,1.42,2,2.12,1.38,1.42,2.77,2.83,4.19,4.22.62.62,1.25,1.23,1.89,1.85l1.65,1.58c.6.58,1.22,1.14,1.83,1.72l1.56,1.44.11.1c.5.47,1,.94,1.5,1.39l.8.71c.81.73,1.62,1.46,2.44,2.18l3.54,3.06c.88.76,1.78,1.5,2.67,2.25,1,.87,2.09,1.73,3.15,2.59l3.19,2.53,2.43,1.9,0,0,.11.08c1.15.91,2.32,1.79,3.48,2.66l4.28,3.22c1.43,1.06,2.91,2.07,4.36,3.1,2.91,2,5.82,4.15,8.79,6.06q8.9,5.82,18.3,10.78,3.52,1.86,7.13,3.59c.11.07.24.13.36.19a301.81,301.81,0,0,0,31.59,13.11c26.87,9.44,54.79,16,83,21.52l.26,0q13.35,1.68,27.67,2.66s18.19,3.6,48.08,10.45l9.11,1.51c28.49,4.66,57,9.41,85.48,14.89,56.89,11,113.4,25.34,168.23,44.82,3.44,1.2,6.84,2.5,10.25,3.74s6.94,2.63,10.4,4l1.31.49c.17.06.52.22.82.36l.67.32,2.47,1.17,4.91,2.32,9.79,4.72q19.56,9.46,38.91,19.3c25.8,13.1,51.43,26.57,76.69,40.77s50.2,29,74.57,44.87c12.17,7.93,24.2,16.12,35.93,24.81l8.72,6.65,8.57,6.84q8.31,6.81,16.8,13.4,24.2,18.82,49.59,36c22.52,14.46,43.69,27.83,60.55,38.12q17,9.8,34.61,18.7c3.93,2,7.88,4,11.85,5.85,23.27,18,56.23,27.72,85.09,34.63a87.1,87.1,0,0,0,11.08,1.88h0c15.77,1.68,33.81-.26,56.52-3.64,136.88-24.63,152.75-56.11,153.42-57.58C2330.07,1050,2330.07,1051.24,2330.05,1052.44Z" transform="translate(-264.88 -160.71)"/><path class="cls-2" d="M2289.26,936.91c-16,40.54-36.38,63.92-48.13,75a28.4,28.4,0,0,1-20.54,7.64c-46.56-1.75-86.38-8.32-120.42-18.31-44.16-13-78.6-31.68-105.47-53.12-59.25-47.29-81.65-107.83-90.08-149.15a238.19,238.19,0,0,1-5-43.52c0-2.15-.11-4.31-.26-6.44-.76-10.56-.21-52.38,48.46-102.35,18.28-18.79,43.38-38.73,77.76-58.59a127.61,127.61,0,0,1,41.1-15.15c49-8.87,160.18-13.91,219.19,103.82-45.65-72.45-114.33-80-114.33-80-63.42-7.14-115.34,8.1-156.25,31.34-48.15,27.35-81,65.76-99.52,91.82a67,67,0,0,0-8,62.51.13.13,0,0,0,0,.07c16.32,42.77,57.35,117.29,155.41,171.49a456.84,456.84,0,0,0,70,31.09q5.28,1.83,10.72,3.62s45.61,16,95.15-1.81a66,66,0,0,0,24.79-16C2271.59,962.88,2281.93,950.87,2289.26,936.91Z" transform="translate(-264.88 -160.71)"/><path class="cls-10" d="M2225.25,820.43A193,193,0,0,1,2133.2,985a456.84,456.84,0,0,1-70-31.09c64.39-11.19,113.39-68.1,113.39-136.65,0-76.58-61.15-138.65-136.6-138.65-63.56,0-117,44.06-132.23,103.74a67,67,0,0,1,8-62.51c18.47-26.06,51.37-64.47,99.52-91.82q8.33-.74,16.85-.73C2138.78,627.31,2225.25,713.77,2225.25,820.43Z" transform="translate(-264.88 -160.71)"/><path class="cls-11" d="M2176.63,817.28c0,68.55-49,125.46-113.39,136.65-98.06-54.2-139.09-128.72-155.41-171.49a.13.13,0,0,1,0-.07c15.25-59.68,68.67-103.74,132.23-103.74C2115.48,678.63,2176.63,740.7,2176.63,817.28Z" transform="translate(-264.88 -160.71)"/><path class="cls-10" d="M2109,1108a131.76,131.76,0,0,1-16.77-3.61c-5.55-1.43-11-3.16-16.48-4.89s-10.88-3.68-16.21-5.76l-8.05-3-7.95-3.3-8-3.3-7.84-3.53-7.85-3.53c-2.63-1.15-5.17-2.46-7.77-3.68-5.16-2.51-10.34-5-15.45-7.57l-15.28-7.91c-40.59-21.38-79.47-46-117.43-71.41-75.41-50.65-151.52-100-232.14-139.85q-30.16-15-61.25-27.93c-20.69-8.68-41.72-16.45-63-23.53S1464.8,782,1443,776.62l-16.37-3.81-16.46-3.47-16.52-3.15-16.61-2.79-33.84-5.65q-16.9-3-33.77-6.28l-16.82-3.5c-5.61-1.18-11.23-2.26-16.8-3.6-11.15-2.6-22.33-5.07-33.41-8s-22.16-5.82-33.19-8.9l-16.46-4.91c-5.49-1.61-10.91-3.5-16.37-5.23-2.72-.86-5.43-1.79-8.13-2.74l-8.11-2.84c-2.7-.91-5.37-2-8.05-3s-5.37-2-8-3l-8-3.23-7.9-3.36c-2.62-1.13-5.22-2.34-7.81-3.51s-4.9-2.38-7.29-3.67c-.12-.06-.25-.12-.36-.19,10.73,3.86,21.66,7,32.65,9.92,5.5,1.45,11,2.88,16.5,4.21s11,2.72,16.59,3.88,11.07,2.48,16.63,3.61l16.68,3.4,16.71,3.13c5.56,1.11,11.18,2,16.76,2.94,11.15,2,22.37,3.71,33.56,5.47s22.44,3.25,33.65,4.89l33.73,4.32c11.27,1.31,22.48,2.53,33.79,3.91l17.21,2.12,17.15,2.52,17.1,3,17,3.35c22.67,4.68,45.09,10.57,67.22,17.33s43.93,14.64,65.4,23.22,42.49,18.23,63.2,28.39,41,21.18,61,32.6,39.55,23.48,58.83,35.92,38.32,25.22,57,38.38q14.05,9.86,28,19.85t27.66,20.26l27.43,20.13,6.86,5,6.93,4.88,13.87,9.81c2.32,1.63,4.6,3.31,7,4.88l7,4.76,14,9.55c4.68,3.18,9.47,6.2,14.19,9.32s9.45,6.24,14.28,9.18l14.4,9c4.82,3,9.73,5.77,14.58,8.71,2.44,1.44,4.84,2.95,7.31,4.32l7.39,4.17,7.41,4.18,7.47,4,2.75,1.47,4.75,2.55,7.59,3.82c5,2.62,10.18,5,15.31,7.41s10.33,4.7,15.62,6.78c2.62,1.1,5.29,2,8,3S2106.25,1107.29,2109,1108Z" transform="translate(-264.88 -160.71)"/><path class="cls-2" d="M1897.38,2417.71c-28.64,1-69.18-8.68-69.18-8.68-41.41,5.41-58.52-3.59-58.52-3.59h-37.81a47.44,47.44,0,0,0-12.51-32.32s14.41,7.5,17.21,16.16h29.21s22.41-61.77,87.64-46.56c0,0-64,38.41-40.83,50.41l16.41,3.2s16-44.91,64.83-23.46c0,0-53.62,11.26-26.81,32.57A58.21,58.21,0,0,0,1897.38,2417.71Z" transform="translate(-264.88 -160.71)"/><path class="cls-12" d="M1910,634.77c33.87-28.74,191.81-151.67,307-51.07a26.91,26.91,0,0,0,28.14,4.69c10.3-4.41,16.06-15.13-9.35-41a215,215,0,0,0-251.13-40.57c-28,14.4-57,36.17-85.42,68.26,0,0-40.87,55.55-11.12,64.51A23.58,23.58,0,0,0,1910,634.77Z" transform="translate(-264.88 -160.71)"/><path class="cls-12" d="M1784.55,837c-29.34-13.47-62.16-31.39-89.12-46.86a546.48,546.48,0,0,0-124.14-52.06c-35.25-9.88-58.08-16.7-72.75-21.39L1493,715a21.18,21.18,0,0,1-5.87-3c-3.28-2.38-5.69-5.74,5.87-9.09h0c179.29-33.06,271,64,306.44,116.47C1806.29,829.43,1795.6,842.1,1784.55,837Z" transform="translate(-264.88 -160.71)"/><ellipse class="cls-10" cx="1551.11" cy="674.33" rx="20.15" ry="9.6" transform="translate(-308.72 -49.22) rotate(-4.06)"/><ellipse class="cls-13" cx="1550.85" cy="676.67" rx="17.86" ry="6.71" transform="translate(-308.89 -49.23) rotate(-4.06)"/><ellipse class="cls-10" cx="1775.59" cy="767.19" rx="9.6" ry="20.15" transform="translate(-316.06 1242.25) rotate(-42.56)"/><ellipse class="cls-13" cx="1774" cy="769.94" rx="6.57" ry="16.51" transform="translate(-318.34 1241.9) rotate(-42.56)"/><path class="cls-14" d="M713.59,1731.88C599,1839.73,579.34,1929.71,578.72,1932.69c4.87-29.31-7.44-47.34-7.44-47.34-25.3-40.81-56.34-127.25-39.53-334.92,12-148-33-218.08-59.9-246.17A66,66,0,0,0,439,1285.69c-14.25-3.27-34.15-9.44-34.15-18.37,0-12.5,27-16.39,27-16.39,57.89-5.24,104,7.56,140.79,31.18-25.54-3.25-61-4.53-77.76,9.46-27.92,23.24,13.5,36.19,111.64,69.5S693.8,1642,693.8,1642c-62.12,8.1-65.72,40.51-57.62,36.91s90.93,10.8,56.73,19.8-56.73,45.93-37.82,34.22C670.41,1723.42,702.1,1729.29,713.59,1731.88Z" transform="translate(-264.88 -160.71)"/><path class="cls-15" d="M738,1709.87q-12.88,11.1-24.45,22c-11.49-2.59-43.18-8.46-58.5,1-18.91,11.71,3.6-25.21,37.82-34.22s-48.62-23.4-56.73-19.8-4.5-28.81,57.62-36.91c0,0,10.81-247.59-87.32-280.9s-139.56-46.26-111.64-69.5c16.8-14,52.22-12.71,77.76-9.46,131.79,84.61,143.6,308.18,146.41,339.15C722.61,1660.86,738,1709.83,738,1709.87Z" transform="translate(-264.88 -160.71)"/><path class="cls-6" d="M648.82,2376.8c-18.22,10-57.79,7.32-84.2,4.06a61.54,61.54,0,0,0-41.74,9.61q-3.21,2.15-6.46,3.89c2.78-8.51,5.52-25.28-8.68-40,0,0,18.56.92,24.81,14.8,0,0,7.6,8,12-7.6,4.33-15.36,23-26.45,23.6-26.8-.31.78-11.93,30.85,22.81,34.4,35.22,3.61,45.41,9.6,46.42-1.8.44-4.84-1.81-10.45-4.54-15.29a118.43,118.43,0,0,1,17.4,13.85A6.87,6.87,0,0,1,648.82,2376.8Z" transform="translate(-264.88 -160.71)"/><path class="cls-14" d="M583.37,2215.47c-40.82,42-34.82,105.63-34.82,105.63,40.54,6.76,67.57,19.8,84.29,30.93,2.73,4.84,5,10.45,4.54,15.29-1,11.4-11.2,5.41-46.42,1.8-34.74-3.55-23.12-33.62-22.81-34.4-.59.35-19.27,11.44-23.6,26.8-4.4,15.6-12,7.6-12,7.6-6.25-13.88-24.81-14.8-24.81-14.8,14.2,14.76,11.46,31.53,8.68,40-18.27,9.9-37.56,11.17-53.86,8.61h0c-15.76-12.46-3.23-32.64-3.23-32.64-9.61.8-17.6,10.83-17.6,10.83-16.21-12.21,12.87-34.29,13.59-34.83-24.4,8.39-29.2,23.2-29.2,23.2-5.21-12.81-18-16.81-18-16.81,18,23.6-6.12,36-6.12,36a17.54,17.54,0,0,0-5.46-12c4.11,10.22-7,22.89-14.24,29.79h0c-19.42,3.69-33.37-.09-42.85-5.37-5.12-8.43-9-24.41,11-46.82-.88.73-23.25,19.33-34,34.11a30.79,30.79,0,0,0-8.79-.17c-17.72,2.17-29.48,1.43-36.67.22a7.29,7.29,0,0,1-4.52-11.68c6.94-8.76,23.91-23.78,65.44-44.88a37.14,37.14,0,0,0,20.31-32.88c.08-12.76,0-31.59-.51-58.38-1.19-62.43,39.62-124.84,99.64-171.66,43.69-34.09,89.94-71.37,122-126.65-1.17,61-97.19,132.78-120.84,142.56-26.11,10.8-117.48,146.3-69.32,197.16,44.53,47,100,31.16,129.53,17.2a7.88,7.88,0,0,0-1.74-14.84c-46.14-9.48-61.17-34.77-61.17-34.77,16.21,10.81,52.21,0,52.21,0s-18-10.8-15.73-57,117.48-105.94,117.48-105.94c-8.11-19.8-7.62-47.72-7.62-47.72,6.72,57.17,95.49,123.81,96.88,124.84-15.22-7.37-50.85-9.59-50.85-9.59S624.18,2173.46,583.37,2215.47Z" transform="translate(-264.88 -160.71)"/><path class="cls-2" d="M1168.76,1527.19c-39.61,83.34-88.55,268.3-89.61,272.26.47-3.09,15.68-104.86-18-136.78-34.21-32.41-108.94,67.53-121.82,111.64s-125.76,217-196,325,0,334.95,0,334.95H686.05c1.9-1,3-1.51,3-1.51-21-198.07,10.8-248.48,10.8-261.69,0-2.81-2.62-5.2-6.76-7.2h0c-1.39-1-90.16-67.67-96.88-124.84,0,0-.49,27.92,7.62,47.72,0,0-115.21,59.73-117.48,105.94s15.73,57,15.73,57-36,10.81-52.21,0c0,0,15,25.29,61.17,34.77a7.88,7.88,0,0,1,1.74,14.84c-29.54,14-85,29.84-129.53-17.2-48.16-50.86,43.21-186.36,69.32-197.16,23.65-9.78,119.67-81.61,120.84-142.56,1.83-3.14,3.62-6.35,5.34-9.61a.17.17,0,0,1,0-.07c.62-3,20.24-93,134.87-200.81q11.58-10.91,24.45-22,15-11.88,32.17-23.79s55-23.41,97.88-18c41.56,5.23,116.41-41.23,120.82-44a52.36,52.36,0,0,0-8,6.9c-27,26.7-46.14,63.13-63.92,96.28-19.11,35.65-32.92,73.36-51.47,109.21q-17.17,33.15-35,65.94-8.65,16-17.38,32c-6.61,11.89-12.63,24.06-19.63,35.78-4.69,7.86-9.7,15.3-12.78,24,27.22-31.53,45.63-69.48,64.63-106.22,20-38.69,38.31-78.16,56.62-117.69,21.83-47.14,56.47-88.66,91.6-126.5,18-19.41,36.75-38.44,56.73-55.82,79.44-51.59,105.62-126.59,114.21-171.81,1.72-4.27,3-7.88,3.86-10.73C1171.69,1444.81,1171.56,1485.7,1168.76,1527.19Z" transform="translate(-264.88 -160.71)"/><path class="cls-5" d="M1079.15,1799.45c.47-3.09,15.68-104.86-18-136.78-34.21-32.41-108.94,67.53-121.82,111.64s-125.76,217-196,325,0,334.95,0,334.95H686.05c-13.75,7.07-71.62,38.07-88.53,66.47a9.51,9.51,0,0,0,6.86,14.34c30.31-.23,88.66-13.29,88.66-13.29,20.51-47,47.62-55.56,48.46-55.8-30.9,16.2-25.1,65.75-22,83.25,17.41,5.84,43.4,8.05,78.31-5.77,20.34-21.75,26.41-54.09,26.41-54.09,15.22-21.61,58.19-23.41,58.19-23.41-62.53,13.51-45.5,51.32-45.5,51.32,5.41-3.61,27.92-6.58,27.92-6.58-15.75,22.22,8.82,36.66,26.6,43.75h0c14.49-2.5,27.08-10.07,33.63-26.55a13.57,13.57,0,0,1,10-8.27c-.93-13.37-5.36-34.33-23.15-43.76.84.33,23.31,9.28,31.26,24.3,0,0,10.31-28.42,34.21-34.21,0,0-30.66,32,9.67,54.81h0c40.64.21,87.26-2.32,87.26-15.19,0-22.82-106.84-57.62-106.84-57.62s2.7-58.84,3.15-138.07l1.65-97.22-1.45-63.8a63.92,63.92,0,0,1,4.69-26c12.4-29.89,37.32-25.82,47.2-22.8.42-1,.86-2.06,1.29-3.1q2-4.69,3.93-9.53c1-2.4,2-4.84,3-7.31q1.86-4.55,3.73-9.22,4.75-11.86,9.69-24.49c11.7-30.07,24-63.25,36.05-98.68,28.52-83.64,56.08-179.83,73.12-277.42v0a1178.66,1178.66,0,0,0,15.22-123.13C1129.15,1610.53,1080.21,1795.49,1079.15,1799.45ZM817.15,2473c-10.8-20.71-34.22-30.61-34.22-30.61,17.12-10.81,36,0,36,0,41.42-15.31,54.92,0,54.92,0C827.06,2452.25,817.15,2473,817.15,2473Z" transform="translate(-264.88 -160.71)"/><path class="cls-8" d="M1860.07,1350.42c-.68.47-1.36,1-2,1.46s-1.36,1-2,1.54-1.3,1-1.93,1.59l-.08,0c-.63.52-1.24,1.06-1.84,1.61l-.06.06c-.52.47-1,1-1.58,1.48-.71.65-1.4,1.34-2.08,2s-1.19,1.23-1.78,1.87-1,1-1.41,1.59-.73.83-1.08,1.25c-.14.17-.28.32-.4.48l-.93,1.13c-.39.47-.77,1-1.14,1.45a1.58,1.58,0,0,0-.12.15q-.76,1-1.5,2l-.07.08c-.52.71-1,1.44-1.53,2.17l-.07.09c-1,1.4-1.88,2.82-2.79,4.29l-.36.6c-.38.6-.74,1.21-1.09,1.83a.76.76,0,0,0-.12.19c-.41.7-.81,1.4-1.2,2.12-.08.14-.16.28-.23.42-.42.74-.83,1.49-1.22,2.26q-2,3.75-3.76,7.76c-.42.92-.82,1.85-1.22,2.8s-.74,1.74-1.09,2.64-.74,1.85-1.1,2.8-.71,1.88-1,2.84a1.89,1.89,0,0,0-.09.21q-1,2.78-1.93,5.64c-1,3-1.89,6-2.76,9.14-.27,1-.52,1.9-.77,2.88-.39,1.43-.75,2.89-1.12,4.37-.19.76-.37,1.53-.55,2.29-.26,1.08-.51,2.18-.75,3.27s-.48,2.2-.72,3.31-.47,2.26-.69,3.4-.45,2.23-.66,3.36c-.11.55-.21,1.11-.31,1.67-.23,1.28-.47,2.57-.69,3.88q-.71,4.15-1.34,8.44c-.16,1.12-.33,2.24-.48,3.37-.1.64-.19,1.28-.27,1.94s-.21,1.54-.31,2.32q-.43,3.45-.84,7c-.15,1.23-.29,2.48-.42,3.72s-.27,2.51-.38,3.77c-.25,2.52-.49,5.07-.71,7.63-.1,1.27-.21,2.54-.32,3.81-.11,1.53-.23,3.06-.34,4.6-.08,1.08-.15,2.17-.22,3.27s-.15,2.18-.21,3.29c0,.77-.1,1.55-.14,2.34-.07,1.14-.14,2.28-.2,3.42-.12,2.29-.24,4.59-.34,6.91-58.74-83.8-558.62-135.63-568.27-53.08-9.73,83.24-82.47,189.13-83.82,191.09v0q.68-3.85,1.32-7.7c.43-2.58.87-5.14,1.28-7.71s.83-5.13,1.23-7.7.81-5.24,1.21-7.87c.34-2.25.67-4.51,1-6.75.41-2.85.81-5.69,1.2-8.54.34-2.4.66-4.79,1-7.19,1-7.95,2-15.88,2.89-23.79.57-5.07,1.09-10.11,1.58-15.16v-.06q.39-3.86.72-7.69c.47-5.11.89-10.23,1.27-15.33.2-2.55.38-5.09.54-7.64s.34-5.09.48-7.63.3-5,.43-7.52c0,0,0-.06,0-.08.14-2.49.26-5,.36-7.49,0-.12,0-.25,0-.38.11-2.43.2-4.86.29-7.29s.17-5,.23-7.49v-.07q.11-3.51.15-7c0-.54,0-1.09,0-1.63,0-1.48.06-3,.07-4.45,0-1.07,0-2.16,0-3.23.19-22.87-.59-45.43-2.43-67.52a73.09,73.09,0,0,0,2-7.43s36-168.06-76.82-374.54-138.06-307.3-138.06-307.3C922,574.7,945.36,499.05,981.2,458.62c-9.45,29.21-6.86,58.79,3.55,87.54a.25.25,0,0,0,0,.07c15.1,41.64,46.59,81.57,81.66,116.17,68.55,67.66,150.76,115,150.76,115s34.34,14.06,115.1,55.81c-77,3-164.1-40.92-246-66-59.49-18.23-60,13-53.53,36.35a105.3,105.3,0,0,0,13.46,29.33c115,175.51,148.3,307.06,157.44,357.33a107.84,107.84,0,0,0,31.12,58.61C1381.15,1389.4,1857.27,1350.66,1860.07,1350.42Z" transform="translate(-264.88 -160.71)"/><path class="cls-16" d="M2330.05,1052.45c-.25,16-3.67,23.82-3.67,23.82C2232.75,1283.94,1881,1340.36,1881,1340.36a75.47,75.47,0,0,0-21,10.06h0c-2.8.24-478.92,39-625.24-101.61a107.84,107.84,0,0,1-31.12-58.61c-9.14-50.27-42.4-181.82-157.44-357.33a105.3,105.3,0,0,1-13.46-29.33c-6.48-23.31-6-54.58,53.53-36.35,81.85,25.06,168.93,69,246,66,89.37,46.19,235.62,126.32,455.1,258.82C2204,1343.51,2329.37,1054,2330.05,1052.45Z" transform="translate(-264.88 -160.71)"/><polygon class="cls-17" points="1595.2 1190.3 1595.19 1190.3 1595.19 1189.12 1595.2 1190.3"/><path class="cls-2" d="M1022.74,2080.09c-1,2.34-1.93,4.65-2.88,6.92-1.65,3.92-3.27,7.77-4.85,11.5q-3.19,7.48-6.21,14.46c-.08.18-.15.35-.24.54l-2.39,5.53c-.61,1.38-1.2,2.75-1.79,4.09l-2.83,6.43q-3.39,7.65-6.46,14.45c-.34.76-.67,1.51-1,2.25q-3.32,7.34-6.19,13.59c-.18.38-.37.77-.54,1.16-5,10.77-8.89,19-11.47,24.35l-.54,1.11-1.91,3.91-.28.57c0,.07-.06.13-.09.19s-.12.23-.17.34l-.49,1a.37.37,0,0,0-.07.14,0,0,0,0,0,0,0h0l-1.45-63.8a63.92,63.92,0,0,1,4.69-26C987.94,2073,1012.86,2077.07,1022.74,2080.09Z" transform="translate(-264.88 -160.71)"/><path class="cls-18" d="M826.08,2179.16c-1.66-11.31-2.94-22.85-.31-34,3-12.67,10.79-24.19,19.08-35.15q13.14-17.34,28.21-33.62c3.94-4.25,11.25-8.76,16-5.13,2.42,1.85,2.54,4.94,2.33,7.66-2,25.54-17.53,49.08-22.65,74.32-6.21,30.61,3.15,61.95.77,92.92-.4,5.31-1.26,10.85-4.89,15.26-17.93,21.75-24.73-17.24-27-25.75A516.52,516.52,0,0,1,826.08,2179.16Z" transform="translate(-264.88 -160.71)"/><path class="cls-15" d="M1164.54,1416.14c-8.59,45.22-34.77,120.22-114.21,171.81-20,17.38-38.72,36.41-56.73,55.82-35.13,37.84-69.77,79.36-91.6,126.5-18.31,39.53-36.6,79-56.62,117.69-19,36.74-37.41,74.69-64.63,106.22,3.08-8.72,8.09-16.16,12.78-24,7-11.72,13-23.89,19.63-35.78q8.7-16,17.38-32,17.76-32.84,35-65.94c18.55-35.85,32.36-73.56,51.47-109.21,17.78-33.15,36.9-69.58,63.92-96.28a52.36,52.36,0,0,1,8-6.9c-4.41,2.76-79.26,49.22-120.82,44-42.84-5.41-97.88,18-97.88,18,44.89-31.07,101-61.63,170.89-87.62,74-27.55,124.46-61.14,158.68-92.87C1138.64,1469.56,1156.61,1435.91,1164.54,1416.14Z" transform="translate(-264.88 -160.71)"/><path class="cls-15" d="M546.26,2039.26a279.54,279.54,0,0,1,95.92-80.15,5.13,5.13,0,0,1,7.31,5.81,38.55,38.55,0,0,1-7.57,14.35c-5.48,6.76-12.44,12.15-18.51,18.37a93.74,93.74,0,0,0-20,30.72c-4.23,10.61-6.5,21.94-11.15,32.37s-12.38,20.32-23.3,23.67c-10.32,3.17-26-2.87-31.29-12.64C531.78,2060.93,539.73,2047.88,546.26,2039.26Z" transform="translate(-264.88 -160.71)"/><path class="cls-2" d="M719.54,2529.22c-18.09-6.07-26.94-16-26.94-16a300.27,300.27,0,0,1-88.22,1.88c30.31-.23,88.66-13.29,88.66-13.29,20.51-47,47.62-55.56,48.46-55.8C710.6,2462.17,716.4,2511.72,719.54,2529.22Z" transform="translate(-264.88 -160.71)"/><path class="cls-2" d="M891.47,2534.44c-24.38,4.2-54.14-6-69.58-12.33a27.25,27.25,0,0,0-20.87,0c-1.07.44-2.13.88-3.17,1.29,20.34-21.75,26.41-54.09,26.41-54.09,15.22-21.61,58.19-23.41,58.19-23.41-62.53,13.51-45.5,51.32-45.5,51.32,5.41-3.61,27.92-6.58,27.92-6.58C849.12,2512.91,873.69,2527.35,891.47,2534.44Z" transform="translate(-264.88 -160.71)"/><path class="cls-2" d="M987.07,2500.76c-19.54-.1-37.71-.85-48.62-1.4a13.47,13.47,0,0,0-3.37.26c-.93-13.37-5.36-34.33-23.15-43.76.84.33,23.31,9.28,31.26,24.3,0,0,10.31-28.42,34.21-34.21C977.4,2446,946.74,2477.93,987.07,2500.76Z" transform="translate(-264.88 -160.71)"/><path class="cls-18" d="M873.87,2442.35c-46.81,9.9-56.72,30.61-56.72,30.61-10.8-20.71-34.22-30.61-34.22-30.61,17.12-10.81,36,0,36,0C860.37,2427,873.87,2442.35,873.87,2442.35Z" transform="translate(-264.88 -160.71)"/><path class="cls-10" d="M1493.05,509.57C1484.49,435.4,1426.25,378,1355.66,378c-76.47,0-138.47,67.37-138.47,150.46a160.93,160.93,0,0,0,12.66,62.92,312,312,0,0,1-59.56-25.92,217.62,217.62,0,0,1-2.32-31.81c0-112.7,86-204.06,192.07-204.06,53.7,0,102.25,23.41,137.11,61.16C1505.87,433.56,1500.91,476.14,1493.05,509.57Z" transform="translate(-264.88 -160.71)"/><path class="cls-11" d="M1493.05,509.57c-9.16,39-22.28,65.52-22.28,65.52-96.7,39.7-178,36.14-240.92,16.31a160.93,160.93,0,0,1-12.66-62.92c0-83.09,62-150.46,138.47-150.46C1426.25,378,1484.49,435.4,1493.05,509.57Z" transform="translate(-264.88 -160.71)"/><path class="cls-19" d="M1470.77,575.09s13.12-26.55,22.28-65.52c7.86-33.43,12.82-76,4.1-118.8-10.24-50.29-39.33-100.88-104.74-137.35A133.56,133.56,0,0,0,1315.3,237a468.35,468.35,0,0,0-59.7,9.75c162.06-68.13,264.69,79.82,272.8,178S1470.77,575.09,1470.77,575.09Z" transform="translate(-264.88 -160.71)"/><circle class="cls-20" cx="1155.81" cy="322.5" r="21.03"/><circle class="cls-20" cx="1784.78" cy="606.48" r="21.03"/><path class="cls-6" d="M462.55,2403c-40.88-6.34-79.37,3.33-80.27,3.55,7.27-6.9,18.35-19.57,14.24-29.79a17.54,17.54,0,0,1,5.46,12s24.13-12.41,6.12-36c0,0,12.8,4,18,16.81,0,0,4.8-14.81,29.2-23.2-.72.54-29.8,22.62-13.59,34.83,0,0,8-10,17.6-10.83C459.32,2370.33,446.79,2390.51,462.55,2403Z" transform="translate(-264.88 -160.71)"/><path class="cls-6" d="M339.41,2401.16a125,125,0,0,1-23-12.71c10.79-14.78,33.16-33.38,34-34.11C330.42,2376.75,334.29,2392.73,339.41,2401.16Z" transform="translate(-264.88 -160.71)"/></g><g id="Capa_2" data-name="Capa 2"><ellipse class="cls-8" cx="1593.35" cy="2041.64" rx="10.2" ry="7.07" transform="translate(-1209.58 2396.06) rotate(-63.5)"/><ellipse class="cls-8" cx="1608.23" cy="2049.06" rx="10.2" ry="7.07" transform="translate(-1207.97 2413.49) rotate(-63.5)"/><ellipse class="cls-8" cx="1589.1" cy="2066.01" rx="10.2" ry="7.07" transform="translate(-1233.74 2405.75) rotate(-63.5)"/><ellipse class="cls-6" cx="563.31" cy="1732.23" rx="7.07" ry="10.2" transform="translate(-1145.7 461.38) rotate(-34.44)"/><ellipse class="cls-6" cx="577.02" cy="1722.83" rx="7.07" ry="10.2" transform="translate(-1137.98 467.48) rotate(-34.44)"/><ellipse class="cls-6" cx="582.55" cy="1747.79" rx="7.07" ry="10.2" transform="translate(-1151.13 474.98) rotate(-34.44)"/></g></svg>