<svg xmlns="http://www.w3.org/2000/svg" viewBox="0 0 916.76 224.1"><defs><style>.cls-1{fill:#e29733;}.cls-2{fill:#fbb03b;}.cls-3{fill:#ff0;}.cls-4{fill:#fff;}</style></defs><g id="Capa_2" data-name="Capa 2"><g id="Capa_3" data-name="Capa 3"><path class="cls-1" d="M911.76,70.6l-15.72-4c-28.58-7.23-57.66-13.91-86.59-19.89l0-.16-12.81-2.45-13-2.61,0,.17c-34.79-6.44-70.09-12-105.09-16.61l-7.84-1c-9.9-3.07-20.14-6.17-31.19-7C625.18,16,608.3,16,592.14,24.15l-.54.29,1-8.28-15.81-1c-21.29-1.39-42.87-2.47-64.18-3.23L501.12,2.31l-5,9,.26,15.79c0,2.51.08,5,.12,7.57a62.16,62.16,0,0,0-6.95-6.14C467.17,11.62,438.89,8.6,419.1,9a296.18,296.18,0,0,0-42.82,4L365.86,6.7l-5,9,1.55,13.21c-22.73-14.7-53-14.52-70.05-12.91a450.41,450.41,0,0,0-46.63,7.36l-8,1c-28.9,3.68-58.07,8.05-86.87,13L129.29,33l-5,9,3.94,15.62.18.74A56.93,56.93,0,0,0,120.48,55c-18.23-6.24-41.15-6.64-64.54-1.11-12.65,3-26,6.44-38.58,11.48L5,63.9l-5,9L4.14,85.76c6.2,19.22,13.37,41.58,20.21,63.91,6,20.17,12.08,40.56,18,60.62l4.08,13.81,14-3.52c16.38-4.12,31.43-7.69,46-10.91l14.08-3.11,5-9-8.66-11.34c-.39-2.21-.76-4.23-1.12-6.23,11.89-4.5,24.67-12,33.71-24.54.36-.5.69-1,1-1.52,2.22,10.22,4.44,20.44,6.64,30.59l3,14.06,14.18-2.45c25-4.34,50.53-8.23,75.73-11.57l8.62-1.14L270.85,182c17-1.95,32.68-3.52,47.8-4.79l10.16-.85c.74.86,1.36,1.56,1.88,2.11l8.16,8.72,10.32-6c4.46-2.6,10.4-6,16.81-9.26,3.72-1.89,6.81-3.4,9.27-4.56l.29,3.68,12.09,1.56a207.35,207.35,0,0,0,26.67,1.59c3.79,0,7.7-.08,11.76-.24,28-1.13,49.39-8.3,65.34-21.9a63.87,63.87,0,0,0,6.55-6.51l.12,12,.14,14.32,14.31.52c17.09.63,32.72,1.41,47.77,2.41l14.48,1,3.07-5.49.29,2.59,8.51,3.27c5.64,2.17,13.43,3.68,24.5,4.76,2.16.21,4.28.31,6.38.31a53.49,53.49,0,0,0,29.87-8.7A44.34,44.34,0,0,0,667.74,140c1.14-9.48-1.06-19.8-6.54-30.68-.24-.48-.47-.94-.68-1.38l3.88.11L678.53,113l2.48-4.43,2.44.09c-.23,3.39-.48,6.79-.76,10.18-1.57,18.68-3.5,37.49-5.19,53.42L676,186.49l14.19,2.14c13.6,2.05,27.39,4.26,41,6.57L745,197.56l5-9-1.13-7.45q2.19-9.27,4.35-18.56c2.45-10.5,5-21.37,7.51-31.9.84-3.55,1.61-6.67,2.3-9.38l.55.15c3.69,1,6.61,1.93,8.57,2.6-3.32,20.72-6.68,41.59-10,62.11l-2.31,14.2,14.1,2.9c25,5.13,50.19,10.85,75,17l11.66,2.89L866,212.35c2.25-4.52,4.23-8.42,5.9-11.62,3.28-6.06,5.29-9.72,6.09-11.14l12.27-21.81-13.27-.29q1.23-2.72,2.34-4.82c3.36-6.32,5-9,5.43-9.73l11.15-18-5.34-1.18c5.33-16,10.73-32,16.05-47.81ZM371.58,126l-1.91-2.1c.69-.64,1.36-1.31,2-2l.36,4.54ZM576.47,158.8l0-.38c0,.22,0,.43.07.64Zm16.22-36.7-12.08-3.93q.4-3.87.83-7.76c.81.88,1.65,1.75,2.52,2.59,3.07,3,6.16,6.16,9.26,9.27Z"/><path class="cls-2" d="M916.76,61.6l-15.72-4c-28.58-7.23-57.66-13.91-86.59-19.89l0-.16-12.81-2.45-13-2.61,0,.17c-34.79-6.44-70.09-12-105.09-16.61l-7.84-1c-9.9-3.07-20.14-6.17-31.19-7C630.18,7,613.3,7,597.14,15.15l-.54.29,1-8.28-15.81-1c-21.52-1.4-43.35-2.5-64.88-3.26l-15.79-.55.26,15.79c0,2.51.08,5,.12,7.57a62.16,62.16,0,0,0-6.95-6.14C472.17,2.62,443.89-.4,424.1,0a295.31,295.31,0,0,0-44.28,4.22l-14,2.44,1.55,13.21C344.68,5.21,314.37,5.39,297.36,7a450.41,450.41,0,0,0-46.63,7.36l-8,1c-32.48,4.14-65.3,9.13-97.54,14.84L129.29,33l3.94,15.62.18.74A56.93,56.93,0,0,0,125.48,46c-18.23-6.24-41.15-6.64-64.54-1.11-14.33,3.38-29.52,7.37-43.58,13.57L5,63.9,9.14,76.76c6.2,19.22,13.37,41.58,20.21,63.91,6,20.17,12.08,40.56,18,60.62l4.08,13.81,14-3.52c16.38-4.12,31.43-7.69,46-10.91l14.08-3.11L123,183.36c-.89-4.93-1.56-8.67-2.23-12.37,11.89-4.5,24.67-12,33.71-24.54.36-.5.69-1,1-1.52,2.22,10.22,4.44,20.44,6.64,30.59l3,14.06,14.18-2.45c25-4.34,50.53-8.23,75.73-11.57l8.62-1.14L275.85,173c17-1.95,32.68-3.52,47.8-4.79l10.16-.85c.74.86,1.36,1.56,1.88,2.11l8.16,8.72,10.32-6c4.46-2.6,10.4-6,16.81-9.26,3.72-1.89,6.81-3.4,9.27-4.56l.29,3.68,12.09,1.56a207.35,207.35,0,0,0,26.67,1.59c3.79,0,7.7-.08,11.76-.24,28-1.13,49.39-8.3,65.34-21.9a63.87,63.87,0,0,0,6.55-6.51l.12,12,.14,14.32,14.31.52c17.09.63,32.72,1.41,47.77,2.41l14.48,1,1.44-14.44.3-3c.17,1.5.32,2.83.44,4l1.18,10.52,8.51,3.27c5.64,2.17,13.43,3.68,24.5,4.76,2.16.21,4.28.31,6.38.31a53.49,53.49,0,0,0,29.87-8.7A44.34,44.34,0,0,0,672.74,131c1.14-9.48-1.06-19.8-6.54-30.68-.24-.48-.47-.94-.68-1.38l3.88.11L683.53,104l.33-4.5,4.59.16c-.23,3.39-.48,6.79-.76,10.18-1.57,18.68-3.5,37.49-5.19,53.42L681,177.49l14.19,2.14c13.6,2.05,27.39,4.26,41,6.57L750,188.56l3.23-13.71q2.5-10.62,5-21.3c2.45-10.5,5-21.37,7.51-31.9.84-3.55,1.61-6.67,2.3-9.38l.55.15c3.69,1,6.61,1.93,8.57,2.6-3.32,20.72-6.68,41.59-10,62.11l-2.31,14.2,14.1,2.9c25,5.13,50.19,10.85,75,17l11.66,2.89L871,203.35c2.25-4.52,4.23-8.42,5.9-11.62,3.28-6.06,5.29-9.72,6.09-11.14l12.27-21.81-13.27-.29q1.23-2.72,2.34-4.82c3.36-6.32,5-9,5.43-9.73l11.15-18-5.34-1.18c5.33-16,10.73-32,16.05-47.81ZM376.58,117l-1.91-2.1c.69-.64,1.36-1.31,2-2l.36,4.54Zm209-7.85q.4-3.87.83-7.76c.81.88,1.65,1.75,2.52,2.59,3.07,3,6.16,6.16,9.26,9.27l-.53-.17Z"/><path class="cls-3" d="M151.05,96.72a53.56,53.56,0,0,1-8.79,41c-9,12.45-24.07,19.49-38.65,22.82,1.82,10.21,2.74,15.31,4.58,25.52q-23.31,5.14-46.44,11-9-30.37-18-60.71C37.14,114.88,30.3,93.51,23.42,72.16c13-5.75,27.29-9.46,41-12.69,17.9-4.23,38.65-5.32,56.23.7C136.62,65.65,147.87,80.52,151.05,96.72Zm-34,21.2c-1.91-8.46-8.17-11.86-19.1-9.49A33.31,33.31,0,0,0,94,109.56l5.52,29.22C109.61,136.85,119.6,129.29,117,117.92Z"/><path class="cls-3" d="M244.6,30.26q1.32,26.93,2.75,53.84c-2.25,0-7.2-.13-14.56.1-5,.17-10.61.71-16.6,1.46.39,6.5.59,9.75,1,16.25,10.64-1.32,21.23-3.07,31.81-4.74-.39,2.16-1,6.19-1.62,12-.4,3.52-.61,7.59-.67,12.16a95.91,95.91,0,0,0-12.9.18c-3.12.2-7.86.85-14,1.81.75,7.55,1.12,11.32,1.87,18.87,4.32-.69,12.36-2.13,23.76-4.41A84.73,84.73,0,0,0,256,134.39c-.25,1.8-.8,6.12-1.62,13q-.56,5.29-1.27,13.34-38.29,5.07-76.32,11.66-7.05-32.57-14.18-65.12C158.15,86.37,153,65.67,147.77,45Q196,36.46,244.6,30.26Z"/><path class="cls-3" d="M379.33,67.73c.57,8.91-2.61,20.77-7.84,28.12a48.18,48.18,0,0,1-19.25,16.28c1.86,2.43,6.41,7.49,13.5,15.25,3.52,3.55,8.84,8.18,15.87,14-2.66,1.09-8.64,3.76-17.44,8.25-6.22,3.17-12.09,6.48-17.54,9.65-1.79-1.92-5.83-6.92-12.24-14.94-3-4.09-7.43-11-13.47-20.73l-.18,0,1.65,29.7c-16.11,1.35-32.19,3-48.25,4.83-3.36-20.1-6.64-40.31-9.75-60.35C260.86,75,256.78,52.07,252.54,29.3a438.45,438.45,0,0,1,46.23-7.36C332.78,18.71,376.67,26.21,379.33,67.73ZM339.67,88.47c-.38-5.37-3.05-9.06-8-11-3.65-1.43-8.15-1.81-13.47-1.14q.94,14.51,1.9,29a27.82,27.82,0,0,0,12.84-4.18C337.76,98,340.06,93.83,339.67,88.47Z"/><path class="cls-3" d="M507.47,83.87c-.51,17.51-7.21,36.22-20.8,47.8-15.82,13.5-36.28,17.52-56.22,18.33a216.11,216.11,0,0,1-35.9-1.24q-2.44-31.47-5-63c-2-22.29-4.56-44.53-7.17-66.77a279.53,279.53,0,0,1,42-4c21.09-.47,44,3.55,61.08,16.46C501.39,43.49,508,64.62,507.47,83.87ZM470.75,93.7c.05-8.33-2.74-14.51-8.43-18.47-4.72-3.29-10.8-4.78-18.19-4.42q-.37,26.63-.71,53.26c7.44-.52,13.51-2.92,18.24-7.13C467.59,111.67,470.68,104,470.75,93.7Z"/><path class="cls-3" d="M580.81,21.09q-4.17,34.5-8.23,69c-2.24,20.25-4.28,40.52-6.29,60.79-16.06-1.06-32.14-1.84-48.22-2.43q-.63-65.29-1.69-130.6Q548.63,19,580.81,21.09Z"/><path class="cls-3" d="M670,83.33a51.47,51.47,0,0,0-9.87-2.65,12.29,12.29,0,0,0-8,1.81,10.35,10.35,0,0,0-5.16,8.06c-.3,2.7,1.69,8.18,5.86,16.47s5.82,15.69,5.05,22.15c-1.13,9.39-5.77,16.63-13.69,21.84-7.59,5-16.41,7-26.57,6-9.37-.91-16.22-2.16-20.57-3.83-.3-2.64-.73-7.07-1.61-12.92-.48-3.18-1.33-7.52-2.36-12.89,6.27,2,10.49,3.18,12.7,3.37,8.64.77,13.26-2,13.88-8.35a17.51,17.51,0,0,0-4.09-12.93q-8-8.08-16.07-16.17C590,84.12,584.16,71.42,585,58.18c.8-12.49,7.5-23.9,18.88-29.64C616.51,22.18,630.05,22,643.45,23c10.22.76,20.35,4,30.32,7.12Q671.91,56.74,670,83.33Z"/><path class="cls-3" d="M796.13,49.33q-6.42,26-12.79,52c-2.24-.78-6-2-10.88-3.36-3-.81-8.19-1.87-15.23-3.28-.94,3.22-3.1,11.14-6.06,23.51-4.22,17.59-8.32,35.51-12.51,53.26q-20.6-3.51-41.24-6.62c1.89-17.9,3.73-36,5.21-53.75.71-8.41,1.21-16.79,1.71-24.9-5.68-.61-8.53-.91-14.22-1.48-5.19-.19-7.78-.27-13-.43q2.28-26.64,4.49-53.28Q739.18,38.47,796.13,49.33Z"/><path class="cls-3" d="M897.36,72.16q-8.62,25.55-17.15,51.12c-2.09-.89-6.69-2.78-13.67-5.26-4.75-1.69-10.18-3.23-16-4.72-2,6.19-3,9.29-5,15.48,10.43,2.67,21,4.93,31.49,7.26-1.15,1.86-3.16,5.4-5.92,10.59-1.66,3.12-3.35,6.83-5.08,11.07a95.26,95.26,0,0,0-12.14-4.57c-3-1-7.66-2.09-13.79-3.46-2.07,7.3-3.1,10.94-5.16,18.24,4.28,1,12.32,2.55,23.83,4.61a84.49,84.49,0,0,0,11.17.71c-.89,1.59-3,5.41-6.27,11.47q-2.46,4.73-6.08,12Q819.9,187.33,782,179.53q5.34-32.88,10.6-65.79c3.5-21,6.26-42.19,9-63.34Q849.74,60.11,897.36,72.16Z"/><polygon class="cls-4" points="191.18 37.8 163.91 113.28 166.8 126.5 198.51 36.67 191.18 37.8"/><polygon class="cls-4" points="167.5 129.7 201.08 36.29 207.37 35.36 169.48 138.78 167.5 129.7"/><polygon class="cls-4" points="836.44 57.76 792.57 113.74 791.17 122.51 841.47 58.87 836.44 57.76"/><polygon class="cls-4" points="845.25 59.72 790.39 127.38 787.96 142.51 853.45 61.57 845.25 59.72"/><polygon class="cls-4" points="560.64 19.87 517.73 107.34 517.73 120.51 569.83 20.4 560.64 19.87"/><polygon class="cls-4" points="574.09 20.66 517.73 129.87 518.05 146.38 579.86 28.97 580.81 21.09 574.09 20.66"/></g></g></svg>