<?xml version="1.0" encoding="utf-8"?>
<!-- Generator: Adobe Illustrator 25.0.0, SVG Export Plug-In . SVG Version: 6.00 Build 0)  -->
<svg version="1.1" id="Capa_1" xmlns="http://www.w3.org/2000/svg" xmlns:xlink="http://www.w3.org/1999/xlink" x="0px" y="0px"
	 viewBox="0 0 2050 2050" style="enable-background:new 0 0 2050 2050;" xml:space="preserve">
<style type="text/css">
	.st0{fill:#FFC500;}
	.st1{fill:#FF9F1E;}
	.st2{fill:#FFE059;}
	.st3{fill:#00305F;}
	.st4{fill:#FFFFFF;}
</style>
<g id="Layer_3">
	<circle class="st0" cx="1025" cy="1025" r="870.8"/>
	<path class="st1" d="M1086.7,1772.5c-481,0-870.8-389.9-870.8-870.8c-0.1-111.7,21.3-222.4,63-326.1
		c-81.9,135.6-125,291-124.7,449.4c0,480.9,389.9,870.8,870.8,870.8c365.7,0,678.7-225.3,807.7-544.7
		C1680.3,1603.6,1403.1,1772.5,1086.7,1772.5z"/>
	<path class="st2" d="M1025,154.2c-186.6-0.3-368.3,59.6-518.1,170.8c205.6-79.3,431.6-88.8,643.1-26.8c-1.8,2.2-3.4,4.7-4.7,7.2
		c-25.8,48.1,26.8,126.4,117.3,175s185,49.1,210.9,1.1c2.5-4.7,4.2-9.7,5.3-14.9c234.4,181.6,385.8,465.6,387.2,784.8
		c19.8-73.9,29.9-150,29.8-226.5C1895.8,544.1,1505.9,154.2,1025,154.2z"/>
	<ellipse transform="matrix(0.5 -0.866 0.866 0.5 231.2552 1135.5148)" class="st2" cx="1099" cy="367.5" rx="24.4" ry="35.5"/>
	
		<ellipse transform="matrix(4.361939e-02 -0.999 0.999 4.361939e-02 58.5556 1289.9865)" class="st3" cx="703" cy="614.4" rx="134.7" ry="85.4"/>
	<circle class="st4" cx="744.9" cy="559.3" r="23.6"/>
	
		<ellipse transform="matrix(0.999 -4.361939e-02 4.361939e-02 0.999 -25.4834 59.3615)" class="st3" cx="1347.5" cy="613.6" rx="85.4" ry="134.7"/>
	<circle class="st4" cx="1376" cy="559.3" r="23.6"/>
	<path class="st3" d="M1546.2,1247.9c-20.2,0-37.6-14.3-41.6-34.1c-22.7-109.4-82.1-207.9-168.3-279
		c-180.7-149.2-441.9-149.2-622.6,0c-86.2,71.1-145.6,169.5-168.3,279c-3.5,23.3-25.1,39.3-48.4,35.8c-23.3-3.5-39.3-25.1-35.8-48.4
		c0.2-1.5,0.5-3,0.9-4.5c26.1-127.7,96.2-244.1,197.4-327.6c245-201.9,607.3-167,809.2,78c59.5,72.2,100.5,157.9,119.4,249.6
		c4.7,23-10.2,45.5-33.2,50.2c0,0,0,0,0,0C1552,1247.6,1549.1,1247.9,1546.2,1247.9z"/>
</g>
</svg>
