<svg xmlns="http://www.w3.org/2000/svg" viewBox="0 0 798.94 910.26"><defs><style>.cls-1{fill:#f39e05;}.cls-2{fill:#f7b809;}.cls-3{fill:#fad20a;}.cls-4{fill:#42352a;}.cls-5{fill:#34281f;}.cls-6{fill:#f9d11a;}.cls-7{fill:#362a21;}.cls-8{fill:#534337;}.cls-9{fill:#fad10b;}.cls-10{fill:#ef9c0b;}.cls-11{fill:#281c14;}.cls-12{fill:#f2a017;}.cls-13{fill:#504032;}.cls-14{fill:#f7ba13;}.cls-15{fill:#040100;}.cls-16{fill:#f7b707;}.cls-17{fill:#f1a323;}.cls-18{fill:#e7850d;}.cls-19{fill:#755b32;}.cls-20{fill:#f8b806;}.cls-21{fill:#fff;}.cls-22{fill:#f5bb2a;}.cls-23{fill:#e8bd5c;}.cls-24{fill:#42342a;}.cls-25{fill:#f39602;}.cls-26{fill:#fee79b;}.cls-27{fill:#eec96f;}.cls-28{fill:#d3a344;}</style></defs><g id="Capa_2" data-name="Capa 2"><g id="Capa_1-2" data-name="Capa 1"><path class="cls-1" d="M626,405.59c-21.82,3.91-43.67,7.64-65.41,11.9a24.67,24.67,0,0,0-11.42,5.79c-11.26,10.4-22,21.32-33,32-5.87-3-5.92,1.64-6.78,5.21h0l-4.95,3.67,0,0q-1.87,1.41-3.74,2.83a.9.9,0,0,1-1,.67L495.89,470l-1.38,1.08-10.93,6.6-.35.38-.51,0c-5.1.68-10.81.19-12.87,6.7l-.41.3-.49-.15-4,1.83.09-.09c-3.48.61-7,1.09-10.43,1.87-6.41,1.43-12.77,3-19.15,4.56,2.1-2.16,4.17-4.34,6.29-6.48,10.73-10.81,22.7-20.67,32-32.63,19.68-25.41,33.07-54.55,42.56-85,9.67-31.09,17.5-62.78,25.25-94.43,3.08-12.59,3.76-25.76,5.54-38.66l1.73-1.73,8-6.38,6.07,1-1.72-1.8c3.34-5,5.88-11,10.22-14.91,6.45-5.88,8.05-10.61-.27-16.44l-16.5,3.84,7.49,8.46-9.92.52c0-5.13-.17-10.28.11-15.4C553.93,162.64,557,132.32,557,102c-.05-32-3.05-64.05-4.76-96.08,18.14-.59,36.3-.94,54.44-1.86,8.64-.43,17.24-1.92,25.86-2.93,7.25-2,10,.61,10.68,8.24,1.71,19.31,4.31,38.55,6.55,57.81.1,5.14-.23,10.34.48,15.39.29,2,2.83,5.44,4.33,5.43,23.65-.11,47.39.46,70.92-1.49,18.63-1.55,27.52,2.83,31,20.33l-5.47-.42-1.28.12c-29.68.76-59.36,1.81-89,2.09-8.06.08-10.65,2.2-10.72,10.56a560.53,560.53,0,0,1-19.59,141.22,492.9,492.9,0,0,1-43.91,109.3q-2.55,5.07-5.11,10.14L561,409.29c.4.78.8,1.56,1.21,2.34,18.72-3.72,37.43-7.5,56.17-11.1,2.48-.48,5.14,0,7.72,0Z"/><path class="cls-2" d="M346.27,491.43c-8.24-5.24-17.06-9.82-24.62-15.95-14.35-11.57-30.1-22.31-41.35-36.51-17-21.42-33-44.35-45.24-68.78-13.43-27-22.11-56.32-32.85-84.61-1.14-1.75-2.29-3.5-3.43-5.21-1.78.6-3.58,1.2-5.36,1.83-.23-.86-.46-1.72-.68-2.58l6.07-.86c0-2.86,0-5.75,0-8.62-3.35-13.34-7.59-26.54-9.88-40.06-3.64-21.73-6.9-43.58-8.68-65.48-1.74-21.22-1.54-42.55-1.94-63.86-.2-9.67.25-19.35.4-29-2.61-.75-5.21-1.52-8.57-2.52L174.93,66c1.66-3.69,4.29-7.27,4.83-11.14,2-14.49,3.33-29.09,5-43.64.52-4.35.06-7-5.35-7.13-7.33-.14-14.63-1.08-22-1.71a.67.67,0,0,0-.23,1.08c-.37,2.49-.75,5-1.09,7.45C154,27.27,151.59,43.62,149.81,60c-.51,5-1.77,7.1-7.1,6.84-9.39-.46-18.81-.23-28.23-.49C83.7,65.61,52.89,64.66,22.08,64,10.57,63.75,5,67.9,1.77,78.09c.49,3.27,1.41,6.53,1.38,9.8-.17,18.35-.54,36.71-.86,55,.29,4.67.6,9.34.89,14,5.84,6.73,3.43,14.46,2.6,22,0,1.31.06,2.66.09,4,1.32,7.13,2.61,14.23,3.92,21.36.26,1.91.49,3.86.75,5.78.91,4.81,1.83,9.65,2.75,14.46.28.95.54,1.89.83,2.86.4,1.61.8,3.24,1.17,4.87.09.63.17,1.26.23,1.92.4,1.43.77,2.86,1.14,4.3l-.17.42.35.32,1.71,5.58c.12,1,.26,2,.41,3.07q1.62,5,3.26,10c.09.69.2,1.35.29,2,.37.77.77,1.54,1.14,2.34a.73.73,0,0,0,.43,1.06c.43,1.21.86,2.41,1.29,3.64,4.21,8.25,8.3,16.61,12.66,24.77,12.45,23.39,29.43,43,49.33,60.47,27.29,24,59.16,39.12,93.44,49.11,17.29,5.07,35.73,6.13,53.51,9.68,3.9.77,7.22,4.47,10.83,6.79C257,429.92,268.19,443,281,454.12c19.19,16.61,40.32,30.49,65.29,37.34A0,0,0,0,1,346.27,491.43ZM18.47,163.17a10.56,10.56,0,0,1-2.89-2c.66-.74,1.26-1.92,2.06-2.09s1.72.74,3.21,1.49C19.7,161.85,18.87,163.28,18.47,163.17ZM194,285.38c1.11,1.4,2.17,2.17,2.29,3.06.05.54-1.35,1.92-1.92,1.83a3.12,3.12,0,0,1-2-2C192.19,287.58,193.19,286.67,194,285.38ZM27.4,159.87c-.68-2.8-1.34-5.61-2-8.42.83-.25,1.66-.48,2.49-.74.77,2.78,1.55,5.53,2.32,8.28C29.26,159.27,28.35,159.59,27.4,159.87ZM207.85,379.58c-31.35-5-60.41-15.69-85.55-35.45-24.63-19.38-42.67-44-55.47-72.55-11-24.57-17-50.52-21.93-76.8-1.15-6.19-.46-12.72-.6-19.1.45-1.63.94-3.26,1.43-4.93-.12-1.14-.23-2.32-.35-3.46a2.43,2.43,0,0,1-1-.14v-3.33l.8-.17c-.14-1.14-.28-2.32-.43-3.46-1.26-1.72-2.54-3.41-3.8-5.13q-4.86-1.45-9.68-2.92c.2-.91.37-1.83.57-2.78,3,.26,6.1.49,9.13.72v-1.77q.64-12,1.26-23.94c-.11-4.61-.25-9.22-.4-13.86a6.12,6.12,0,0,1-.37-1.12c0-.14.26-.31.4-.46.23-.71.46-1.43.72-2.14.63-13.09,8-20.36,20.93-20.16,25.23.4,50.42,1.26,75.65,1.54,6.44.09,8.71,2.61,8.25,8.71-.29,3.38,0,6.81,0,10.22,1.09,1.09,3.12,2.18,3.12,3.24-.09,8.62-.57,17.23-.92,25.85q.52,10.35,1,20.71c5.87,6.84,3.75,14.57,2.47,22.19.34,2.89.65,5.78,1,8.67,6.39,4.9,3.26,11.14,2.46,17.07.17,1.14.35,2.26.52,3.41,6.38,3.49,4.09,8.73,2.75,13.8.48,2.29.94,4.58,1.43,6.87q1,5.11,2,10.28c.35,1.17.69,2.38,1,3.58.57.11,1.57.11,1.6.31,1.43,7.28,2.75,14.58,4.09,21.85.38,1.2.75,2.41,1.09,3.61,2.29,4,4.44,8.16,6.85,12.11,1.83,3,4,5.79,6.7,9.59l-3.3,3c4.67,3.41,6.33,7.25,1.78,11.66q14.68,32.64,29.38,65.28c1.29,2.46,2.57,4.9,4.66,8.91C213.07,379.35,210.37,380,207.85,379.58Z"/><path class="cls-3" d="M372,498.3c-2,0-4-.09-6.07-.11-2.52-1.12-5-2.21-7.56-3.3l-5.41-1.54.2.14-6.85-2.06c-8.24-5.24-17.06-9.82-24.62-15.95-14.35-11.57-30.1-22.31-41.35-36.51-17-21.42-33-44.35-45.24-68.78-13.43-27-22.11-56.32-32.85-84.61,3,.46,6,.88,8.79,1.34,1.32-13.2,11.23-19.84,18.36-26.91l-9.82-8.62c-5,1.17-11.11,2.6-19.27,4.52,8.64,8.16,2.43,10.83-1.49,14.23-3.35-13.34-7.59-26.54-9.88-40.06-3.64-21.73-6.9-43.58-8.68-65.48-1.74-21.22-1.54-42.55-1.94-63.86-.2-9.67.25-19.35.4-29C200.81,78,211.15,94.64,217,117.81c3-18.5,9.9-31.84,24.57-40.15,1.74,41.18,2.32,82.47,5.61,123.53a675.54,675.54,0,0,0,13,86.39c5.87,27.69,14.43,54.84,22.47,82s21,51.8,36.2,75.48c1.14,1.14,2.26,2.32,3.41,3.46,5.44,7.42,9.9,15.92,16.55,22,9.42,8.65,20.5,15.49,30.72,23.25a4,4,0,0,1,1.09,1.44,8.84,8.84,0,0,1,.51,1.23c.09.2.18.4.26.63A8.52,8.52,0,0,0,372,498.3Z"/><path class="cls-2" d="M756.44,106.85c-3.46-17.5-12.35-21.88-31-20.33-23.53,2-47.27,1.38-70.92,1.49-1.5,0-4-3.38-4.33-5.43-.71-5-.38-10.25-.48-15.39,42.77-1.07,85.54-2.28,128.31-3.14,12.84-.26,21.27,8.29,20.89,21.78-.78,26.78-1.61,53.59-3.78,80.28-2.59,31.84-8.24,63.24-18.57,93.62l-2.91,7.14.07-.14c-.89,1.07-2.16,2-2.62,3.21-14.5,39.14-41.29,68.77-73.09,94.52a9,9,0,0,0-2.48.52Q671,378,646.46,391.13c-5.74,3.07-11.43,6.23-17.14,9.35l-3.27,0c-2.58,0-5.24-.45-7.72,0-18.74,3.6-37.45,7.38-56.17,11.1-.41-.78-.81-1.56-1.21-2.34l20.37-29.43c13-2.35,26.27-4,39.11-7.19,22.44-5.56,42.53-16.67,60-31.35C718.9,309.1,739.13,266,749.23,218c4.24-20.17,6.47-40.82,8.51-61.36,1-10-.59-20.27-1-30.42l.39-14.14c0-1,0-2,0-2.93C756.9,108.37,756.67,107.61,756.44,106.85Z"/><path class="cls-4" d="M167,716.13c.11-1.23.21-2.45.31-3.68l2.38.22c3,.58,5.89,1.63,8.85,1.64,23.92.13,47.84.07,71.76.06l235.1.1q-1.77,8.53-3.52,17.07-132.37,0-264.76.07c-3.24,0-6.48,1.09-9.72,1.68,0,1.11-.05,2.22-.08,3.33-.54,1.55-1.54,3.09-1.55,4.64q-.13,51.3,0,102.62c0,1.89,1.59,3.77,2.45,5.66l2.55.16c3.22.63,6.43,1.81,9.64,1.82q76.66.18,153.35.1c-3.93,2-8,3.64-11.72,6-2.18,1.4-3.68,3.89-5.48,5.9l-13.61.15c-54.27,0-108.54-.29-162.8.16-9,.07-10.8-2.7-10.72-11.09.42-42.54.25-85.1.08-127.65C169.51,722.11,167.86,719.12,167,716.13Z"/><path class="cls-5" d="M356.57,863.53c1.8-2,3.3-4.5,5.48-5.9,3.67-2.37,7.79-4,11.72-6l.05,0q103.55,0,207.1-.07c3.15,0,6.31-1.45,9.46-2.22l.26.6c.9-2.73,2.54-5.44,2.6-8.19.31-13.87.22-27.75.26-41.63.21-.15.61-.37.59-.44a8.3,8.3,0,0,0-.61-1.13v-7c1.26-5,1.25-10.84,4-14.72,7.22-10,5.54-12.73-4.17-23q-.76-8.55-1.52-17.12l-1.92-.83c-3-.87-6-2.48-9-2.5-33-.2-66.09-.16-99.14-.18a9.84,9.84,0,0,0,.07-1.63q1.75-8.53,3.52-17.07h142v-1.8H548.77v-3.27l.13-.81c24.46.16,48.93.61,73.38.28,7.74-.1,11,1.92,10.31,10-.65,7.63-.4,15.33-.55,23l-2.63,0a17.34,17.34,0,0,0-.08-4.27c-.83-3-2-6-3-9-2.61,1.78-5.34,3.42-7.82,5.38-3.9,3.08-7.62,6.38-11.42,9.59h0l-3.19-4.29c-1.19,1.69-3.27,3.32-3.38,5.08-.35,5.48,6.68,11.12,14.82,12l-5-9.59,1.65-1.24,9,6.31,1.59-1.12-4.88-9.58,11.57,2.35c0,37.1-.07,74.2.17,111.3,0,6.27-1.08,9-8.35,9Q488.87,863.35,356.57,863.53Z"/><path class="cls-6" d="M632.5,1.13c-8.62,1-17.21,2.52-25.86,3-18.12.91-36.31,1.25-54.43,1.86-13.66.57-27.29,1.6-40.92,1.63q-112.23.21-224.46,0c-11.08,0-22.14-1.06-33.19-1.61-3.66-.2-6.61,0-6.9,5.1-1,16.7-2.32,33.39-3.52,50.08-14.61-8.62-23.34-21.3-26.17-40.4-6.73,23.85-17.67,41.2-42.12,45.27,1.66-3.69,4.29-7.27,4.83-11.14,2-14.49,3.33-29.09,5-43.64.52-4.35.06-7-5.35-7.13-7.33-.14-14.63-1.08-22-1.71,2.43-.81,4.87-2.3,7.3-2.3Q394.92-.08,625.08,0A49.37,49.37,0,0,1,632.5,1.13Z"/><path class="cls-7" d="M641.39,873.75c6.79-.09,13.6-.5,20.35-.06,2.21.14,6.15,2.59,6.1,3.88-.35,10.21-1.47,20.4-2.35,30.6l-147.63-.09V877.29l.06-5.18c2.12-.55,4.24-1.57,6.36-1.57q54-.07,108,.07l.38.4Z"/><path class="cls-8" d="M517.92,872.11l-.06,5.18-180,0c-23.71,0-47.43.26-71.14-.16-7.28-.13-10.51,1.46-9.74,9.38.68,7.08.1,14.27.08,21.41l-82.2,0c0-8-.29-15.93,0-23.87.2-5.22-1.72-7-6.9-6.88-11.93.29-23.87.11-35.81.12,1.78-1.29,3.5-3.58,5.36-3.69,7-.45,14,.09,21-.33,2.76-.17,5.42-1.9,8.12-2.92l155.44.12H336q83.79,0,167.57.09C508.37,870.64,513.14,871.59,517.92,872.11Z"/><path class="cls-9" d="M327.32,661.23l2.12-1.66c15.8-.25,15.75-.26,20.07-15.31.92-3.22,2.62-6.21,3.48-9.43,10.44-39.17,18.3-78.76,19-119.48.07-.51.11-1,.13-1.55l10.19-1.8c-1.22,50-5.95,99.58-18,147.51H433.8l34.74-.15,6.34,2.14a9.61,9.61,0,0,1,.22,1.41c-3.26.57-6.51,1.62-9.77,1.63-40,.12-80,.06-119.95.13-3.07,0-6.5-.1-9.15,1.15-14.74,6.95-22.59,19.25-26,34.79-.54,0-1.09.06-1.64.08-10.5,0-21-.17-31.49,0-5.47.08-7.81-2-5.22-7.11,2.88-5.69,5.85-11.52,9.84-16.42,4.26-5.24,9.76-9.48,14.72-14.15Z"/><path class="cls-10" d="M308.63,700.69c.55,0,1.1,0,1.64-.08q87.47,0,174.92.1c5.52,0,10.33-.24,8.5-7.55-3-12-7.92-22.91-18.59-30.25a9.61,9.61,0,0,0-.22-1.41l37.81,1,1.77.43c19.21,5.68,33.24,21.89,32.59,37.68-14.55,0-29.1-.06-43.65.1-2.39,0-6.63.57-6.87,1.6-1.54,6.74-6.58,5.15-10.85,5.16q-83,.06-166,.08c-3,0-6.07.76-9.1,1.17l-60.47-.16c.36-2.68.73-5.35,1.09-8,4.15,0,8.42-.49,12.42.32,2.1.42,3.72,3.2,5.56,4.91H257.35l0,1.59h11.78c11,0,21.92-.15,32.87.22C307.36,707.77,309.2,705.63,308.63,700.69ZM500.85,663l-.18,1c.48.19,1.05.64,1.42.51a8,8,0,0,0,1.85-1.23Z"/><path class="cls-11" d="M517.92,872.11c-4.78-.52-9.55-1.47-14.33-1.48q-83.77-.17-167.57-.1l6.94-6.85,13.61-.15q132.29,0,264.58.24c7.27,0,8.39-2.72,8.35-9-.24-37.1-.15-74.2-.17-111.3,0-.55.06-1.1.08-1.65l2.63,0,.25,128.76q-54-.06-108-.07C522.16,870.54,520,871.56,517.92,872.11Z"/><path class="cls-12" d="M25.29,266.73C29.53,275,33.65,283.42,38,291.66c12.45,23.39,29.43,42.94,49.33,60.45,27.29,24,59.17,39.13,93.43,49.13,17.3,5.05,35.73,6.12,53.51,9.67,3.9.78,7.23,4.45,10.82,6.8-50.71-3.85-99.56-14-142.44-43.37-37.92-26-62.11-62.25-77.25-105.07A9.26,9.26,0,0,1,25.29,266.73Z"/><path class="cls-5" d="M343,863.68,336,870.53H322.07l-155.44-.12q.17-77.14.34-154.28c.89,3,2.54,6,2.55,9,.17,42.55.34,85.11-.08,127.65-.08,8.39,1.68,11.16,10.72,11.09C234.42,863.39,288.69,863.66,343,863.68Z"/><path class="cls-1" d="M435.09,534.34c.09,1.13.17,2.25.26,3.38-.5,2.7-1.65,5.47-1.38,8.1.8,7.69,2,15.36,3.35,23,1.29,7.35,2.09,14.94,4.63,21.88,5,13.68,1.2,20.52-11.5,20.6-1.2,4.28-2.31,8.27-3.43,12.26-6.82-36.34-9.62-73-10.25-109.95l13.7,3.53c0,4-.54,8,.17,11.82C431,531,433.54,532.55,435.09,534.34Z"/><path class="cls-13" d="M250.06,708.58l60.46.16c3.42.13,6.84.38,10.25.38q84,.18,168,.3c2.5,1.09,5,3.07,7.5,3.11,17.5.27,35,.14,52.51.13h78.58v1.8h-142l-235.1-.1-1.81-1.78c0-1.1,0-2.19,0-3.29Z"/><path class="cls-4" d="M132.16,877.35c11.94,0,23.88.17,35.81-.12,5.18-.12,7.1,1.66,6.9,6.88-.31,7.94-.05,15.91,0,23.87l-42.79.27Z"/><path class="cls-14" d="M372,515.35c-.72,40.72-8.58,80.31-19,119.48-.86,3.22-2.56,6.21-3.48,9.43-4.32,15-4.27,15.06-20.07,15.31q2.56-5.16,5.12-10.31l2.79-4.62c.15-.78.31-1.56.46-2.34q1.57-3.75,3.13-7.5c.34-.91.67-1.82,1-2.74q1.11-2.28,2.23-4.58c.32-1.34.64-2.68,1-4l1.71-5,1.71-5.31c.61-2.24,1.22-4.47,1.84-6.71l1.86-5.27c.45-2.26.9-4.53,1.36-6.79.31-1.19.63-2.38.94-3.56q1.28-5.93,2.56-11.86c.31-1.19.63-2.38.95-3.57q1.11-6.81,2.24-13.61c.36-1.75.72-3.49,1.09-5.24q.63-4.16,1.27-8.33l1.62-15.67c.88-3,1.46-6.13,2.73-9S370.32,518.1,372,515.35Z"/><path class="cls-15" d="M132.06,908.25l42.79-.27,82.2,0,195.67.15,11.94-.14c3.09-.19,6.17-.56,9.25-.53,14.65.16,29.3.42,43.95.65l147.63.09c-2.44.71-4.87,2-7.31,2q-259.3.13-518.62,0C137.06,910.17,134.56,908.92,132.06,908.25Z"/><path class="cls-16" d="M269.13,705.79c-1.84-1.71-3.46-4.49-5.56-4.91-4-.81-8.27-.29-12.42-.32.75-10.7,5.6-19.21,13.87-25.89l7.22-5.48-.16.11,7.36-1.25,5.14-1.71L293.2,663l3.28,0c-5,4.67-10.46,8.91-14.72,14.15-4,4.9-7,10.73-9.84,16.42-2.59,5.11-.25,7.19,5.22,7.11,10.49-.17,21,0,31.49,0,.57,4.94-1.27,7.08-6.59,6.91-11-.37-21.91-.18-32.87-.22C269.15,706.85,269.13,706.32,269.13,705.79Z"/><path class="cls-1" d="M468.54,659.36l-34.74.15-5.1-31L453,631.64c5.94,1.17.69,10.64,8.75,12.4l.1.62c.85,1.53,1.71,3.05,2.57,4.58l.78,2.35q1.5,3.09,3,6.18A3.23,3.23,0,0,1,468.54,659.36Z"/><path class="cls-17" d="M461.77,644c-8.06-1.76-2.81-11.23-8.75-12.4l-24.33-3.09q-.82-2.49-1.67-5c1.12-4,2.23-8,3.43-12.26,12.7-.08,16.5-6.92,11.5-20.6-2.54-6.94-3.34-14.53-4.63-21.88-1.34-7.63-2.55-15.3-3.35-23-.27-2.63.88-5.4,1.38-8.1A458.57,458.57,0,0,0,461.77,644Z"/><path class="cls-17" d="M698,364.46c31.8-25.75,58.59-55.38,73.09-94.52.46-1.22,1.73-2.14,2.62-3.21-6.87,24.75-18.93,46.93-34.61,67-14.07,18.05-30.15,34.16-50.67,45.11a53.82,53.82,0,0,1,2.84-5.24C693.44,370.51,695.77,367.51,698,364.46Z"/><path class="cls-18" d="M488.76,709.42q-84-.13-168-.3c-3.41,0-6.83-.25-10.25-.38,3-.41,6.08-1.17,9.11-1.17q83-.11,166.05-.08c4.27,0,9.31,1.58,10.85-5.16.24-1,4.48-1.58,6.87-1.6,14.55-.16,29.1-.09,43.65-.1q.93,4,1.85,8l-.13.81Z"/><path class="cls-1" d="M698,364.46c-2.26,3.05-4.59,6.05-6.73,9.18a53.82,53.82,0,0,0-2.84,5.24l-.14,0c-1.67-.17-3.64-1-4.94-.39-8.21,3.84-16.35,7.86-24.32,12.17-1.69.92-2.6,3.28-3.86,5l-.33.3-.42-.13-6.22,2.66-2.51.64L638,402.05l-2.63.48-6-2c5.71-3.12,11.4-6.28,17.14-9.35Q671,378,695.55,365A9,9,0,0,1,698,364.46Z"/><path class="cls-7" d="M248.51,709.3c0,1.1,0,2.19,0,3.29l-78.8.08-2.38-.22c2.21-1.13,4.42-3.22,6.64-3.24C198.78,709.06,223.65,709.22,248.51,709.3Z"/><path class="cls-18" d="M430.47,517.13l-13.7-3.53c0-.55,0-1.09-.08-1.64l0-12,5.08-.08,8.7-1.69,2.12.18-.09,6.27c0,.61.09,1.22.14,1.83,0,1.41.07,2.82.11,4.22Q431.61,513.91,430.47,517.13Z"/><path class="cls-12" d="M1.78,78.08c.48,3.27,1.39,6.54,1.37,9.8-.17,18.35-.56,36.7-.87,55.06C1.49,123.14.65,103.36,0,83.56-.06,81.76,1.15,79.91,1.78,78.08Z"/><path class="cls-17" d="M372,515.35c-1.69,2.75-3.67,5.36-5,8.27s-1.85,6-2.73,9q.79-17.21,1.6-34.39l6.07.13q.09,7.74.17,15.49C372.12,514.32,372.08,514.84,372,515.35Z"/><path class="cls-17" d="M655.2,395.66c1.26-1.7,2.17-4.06,3.86-5,8-4.31,16.11-8.33,24.32-12.17,1.3-.61,3.27.22,4.94.39Z"/><path class="cls-17" d="M432.57,498.36l-2.12-.18c0-1.14,0-2.27,0-3.41l5-1.72c6.38-1.53,12.74-3.13,19.15-4.56,3.44-.78,6.95-1.26,10.43-1.87Z"/><path class="cls-14" d="M296.48,663l-3.28,0-2.87-.77,37-1Z"/><path class="cls-17" d="M430.47,517.13q1.14-3.23,2.26-6.45,1.18,11.84,2.36,23.66c-1.55-1.79-4.08-3.39-4.45-5.39C429.93,525.13,430.46,521.09,430.47,517.13Z"/><path class="cls-12" d="M3.19,156.91c5.84,6.75,3.43,14.47,2.59,22Q4.47,167.91,3.19,156.91Z"/><path class="cls-12" d="M5.86,182.89q2,10.68,3.94,21.36Q7.82,193.58,5.86,182.89Z"/><path class="cls-17" d="M469.85,484.73c2.06-6.51,7.77-6,12.87-6.7Z"/><path class="cls-12" d="M10.53,210l2.76,14.46Z"/><path class="cls-17" d="M360.32,561.81q-1.12,6.81-2.24,13.61Q359.21,568.61,360.32,561.81Z"/><path class="cls-17" d="M483.58,477.69l10.93-6.6Z"/><path class="cls-17" d="M357.13,579q-1.29,5.93-2.56,11.86Q355.85,584.91,357.13,579Z"/><path class="cls-17" d="M629.32,400.48l6,2L626,405.59l.09-5.09Z"/><path class="cls-19" d="M641.39,873.75,632.67,871Z"/><path class="cls-17" d="M509.34,460.53c.86-3.57.91-8.18,6.78-5.21Z"/><path class="cls-14" d="M284.58,666.34l-5.14,1.71c-.1-.89-.21-1.78-.31-2.67l5.42-2.51Z"/><path class="cls-9" d="M272.24,669.19,265,674.67Z"/><path class="cls-17" d="M362.68,548.24q-.65,4.17-1.27,8.33Q362,552.42,362.68,548.24Z"/><path class="cls-12" d="M19,247.84q1.62,5,3.26,10Q20.59,252.82,19,247.84Z"/><path class="cls-9" d="M279.13,665.38c.1.89.21,1.78.31,2.67l-7.36,1.25Z"/><path class="cls-17" d="M638,402.05l7.77-2.92Z"/><path class="cls-17" d="M350.41,606.47c-.62,2.24-1.23,4.47-1.84,6.71C349.18,610.94,349.79,608.71,350.41,606.47Z"/><path class="cls-17" d="M353.63,594.41c-.46,2.26-.91,4.53-1.36,6.79C352.72,598.94,353.18,596.67,353.63,594.41Z"/><path class="cls-9" d="M284.58,666.34l0-3.47,5.79-.61,2.86.77Z"/><path class="cls-17" d="M346.86,618.49l-1.71,5Z"/><path class="cls-17" d="M773.67,266.87l2.91-7.14Z"/><path class="cls-17" d="M340.94,634.8q-1.56,3.75-3.13,7.5Q339.39,638.55,340.94,634.8Z"/><path class="cls-17" d="M468.21,657.77q-1.48-3.09-3-6.18Q466.72,654.68,468.21,657.77Z"/><path class="cls-17" d="M648.23,398.49l6.22-2.66Z"/><path class="cls-17" d="M504.38,464.21l4.95-3.67Z"/><path class="cls-17" d="M344.18,627.48q-1.12,2.29-2.23,4.58Q343.06,629.78,344.18,627.48Z"/><path class="cls-17" d="M337.35,644.64l-2.79,4.62Z"/><path class="cls-17" d="M464.44,649.24c-.86-1.53-1.72-3-2.57-4.58Z"/><path class="cls-6" d="M157.25,3.47c-.36,2.48-.73,5-1.09,7.45C156.52,8.44,156.89,6,157.25,3.47Z"/><path class="cls-2" d="M346.27,491.42l6.85,2.06Z"/><path class="cls-2" d="M352.91,493.34l5.43,1.55Z"/><path class="cls-12" d="M16.83,239.19l1.71,5.58Z"/><path class="cls-12" d="M14.11,227.35c.4,1.63.79,3.26,1.19,4.89C14.9,230.61,14.51,229,14.11,227.35Z"/><path class="cls-17" d="M500.67,467q1.86-1.42,3.74-2.83Q502.54,465.57,500.67,467Z"/><path class="cls-17" d="M465,486.71l4-1.83Z"/><path class="cls-12" d="M15.53,234.14l1.14,4.3Z"/><path class="cls-17" d="M495.89,470l3.78-2.35Z"/><path class="cls-12" d="M24.07,263.23c.44,1.22.87,2.43,1.3,3.64C24.94,265.66,24.51,264.45,24.07,263.23Z"/><path class="cls-12" d="M22.5,259.83l1.16,2.34Z"/><path class="cls-17" d="M432.62,506.46c-.05-.61-.09-1.22-.14-1.83a8,8,0,0,1,.57,1.27C433.08,506,432.77,506.27,432.62,506.46Z"/><path class="cls-16" d="M514.46,663l-1.77-.43Z"/><path class="cls-20" d="M557,102c-.06-32-3.06-64-4.75-96.06-13.66.57-27.29,1.6-40.92,1.63q-112.23.21-224.46,0c-11.08,0-22.14-1.06-33.19-1.61-3.66-.2-6.61,0-6.9,5.1-1,16.7-2.32,33.39-3.52,50.08,6.44,2.52,12.88,5,18.75,7.3-6.75,3.07-13.57,6.13-20.38,9.22,1.74,41.18,2.32,82.47,5.61,123.53a675.54,675.54,0,0,0,13,86.39c5.87,27.69,14.43,54.84,22.47,82s21,51.8,36.2,75.48c11.68-11.4,23.33-22.76,35.36-34.48-.8-1.74-1.8-3.95-3.72-8.1,6.44-1.35,12-2.52,18-3.81,2.18,3,4.27,5.84,5.9,8.11-5,9.62-16.75,14.4-14.95,28.2-3.15-1.15-5.58-2.06-8.07-3-4.5,5.1-8.57,10.68-13.72,15-2.12,1.77-6.53.8-9.91,1.06l-5.49.45c5.44,7.42,9.9,15.92,16.55,22,9.42,8.65,20.5,15.49,30.72,23.25a4,4,0,0,1,1.09,1.44,8.84,8.84,0,0,1,.51,1.23c.09.2.18.4.26.63.17.4.35.83.55,1.2.05,5.18.11,10.34.14,15.49,3.41-.6,6.81-1.2,10.19-1.77a0,0,0,0,1,0,0l.06-.06a7.9,7.9,0,0,1-.14-.92,14.43,14.43,0,0,1-.21-2.43c0-.4,0-.77.06-1.15a2.43,2.43,0,0,1,.09-.65,6,6,0,0,1,.57-1.87,4.16,4.16,0,0,1,.4-.71,3.24,3.24,0,0,1,.49-.63,4.81,4.81,0,0,1,1.09-.89,5.49,5.49,0,0,1,1-.51c.11,0,.2-.09.31-.12a7.28,7.28,0,0,1,1.2-.34,13.45,13.45,0,0,1,1.38-.2,2.32,2.32,0,0,1,.46,0,13,13,0,0,1,1.57-.09c.55,0,1.09,0,1.66.06,8.05.43,16.21-.92,24.31-1.49l5.07-.08c2.89-1.72,5.79-3.41,8.68-5.1l5-1.72c2.09-2.18,4.18-4.35,6.3-6.5,10.71-10.79,22.7-20.67,32-32.61,19.67-25.43,33.08-54.55,42.55-85.05,9.68-31.09,17.53-62.79,25.26-94.43,3.09-12.6,3.75-25.77,5.52-38.66-5.44,5.58-10.88,11.2-16.63,17.1-2.69-1.67-5.18-3.24-9.74-6.07,1.81,5.24,2.87,8.33,4,11.76-12.83-2.83-14.46-4.84-13.26-11.76,6.5-4.47,11-7.65,15.58-10.71,3.78-2.55,7.67-5,12.63-8.14-.29-5.87,3.69-9.87,10.82-11.08.57-2.86,1.15-5.7,1.72-8.56,0-5.12-.17-10.28.11-15.4C553.93,162.65,557,132.33,557,102ZM269.3,136.48c-4.32-4.44-9.62-9.91-14.54-15,4.61-4.72,10-10.22,14.63-14.94,4.72,4.75,10.22,10.31,14.66,14.77Zm97-42.72c2.2,1,4.41,2,6.1,2.83,9.65-8,20.41-14.6,27.54-23.94,3.9-5.12,12.32-9.1,10.77-18.32-.26-1.41,3.24-4,5.47-5.16,2.43-1.2,5.44-1.28,8.22-1.89,3,2.84,6.1,5.79,9.9,9.37-4.52,8.44-19.44,11.45-17.83,26.74-3.38-2-5.67-3.38-6.42-3.84-4.44,4.3-9.13,7.65-12.2,12.12-4.38,6.44-8.7,9.85-16.72,4.84,1.4,2.43,2.84,4.86,4.87,8.41-3.78-.28-6.56-.48-10-.71,1.06,3.23,1.92,5.9,3,9.28C365.4,107.7,361.71,101.86,366.26,93.76ZM356,108.33c10.51,7.59,12.14,12.4,6.53,21-4.7,7.19-10.22,6.93-24.31-1.29C343.12,120.13,343.09,108.85,356,108.33ZM457.26,265.19c3.38,20.7,7.19,41.32,10.79,62,.2,1-.2,2.18-.45,4.5l-36.2-18.59c-8.1-4.18-16.06-8.76-24.42-12.37-2.64-1.14-6.88-.74-9.54.61-18.55,9.33-36.91,19.12-55.35,28.77-.94.49-1.92.86-4.75,2.15,1.6-10.54,2.89-19.61,4.41-28.63,2-11.74,4.29-23.43,6.18-35.19,1-6.1-.46-10.91-5.67-15.67-13.68-12.51-26.48-26-39.57-39.2-1.52-1.54-2.75-3.35-5.1-6.3,13.26-2,25.17-4,37.11-5.67,9.54-1.37,19.25-1.86,28.64-3.86,3.43-.72,7.3-4.13,9-7.33,10.16-19.39,19.76-39.09,30.27-60.16,8.5,16.63,16.37,31.92,24.13,47.24,2.7,5.3,4.41,11.29,7.88,16,1.92,2.61,6.44,3.95,10,4.5,20.67,3.15,41.41,5.87,63.63,9-2.21,3-3.24,4.9-4.73,6.33-14.75,14.32-29.66,28.43-44.15,43C457.49,258.09,456.8,262.33,457.26,265.19ZM509.06,278c-5,5.56-11.11,4.44-22.62-3.84,1.11-5.09,2.17-10,3.29-15,4.64-1.23,8.68-2.32,12.94-3.44C511.23,264.39,513.72,272.75,509.06,278Z"/><path class="cls-21" d="M284.05,121.3,269.3,136.48c-4.32-4.44-9.62-9.91-14.54-15,4.61-4.72,10-10.22,14.63-14.94C274.11,111.28,279.61,116.84,284.05,121.3Z"/><path class="cls-21" d="M262,68.44c-6.75,3.07-13.57,6.13-20.38,9.22C226.92,86,220,99.31,217,117.81c-5.87-23.17-16.21-39.83-38.34-46.1-2.61-.75-5.21-1.52-8.57-2.52L174.93,66c24.45-4.07,35.39-21.42,42.12-45.27,2.83,19.1,11.56,31.78,26.17,40.4C249.66,63.66,256.1,66.18,262,68.44Z"/><path class="cls-6" d="M586.43,369.72c22.63-1.05,43.59-8.44,63.75-17.9,42.62-20,68.36-54.71,83.83-98.12,13.55-38,18.53-77.57,21.2-117.55.22-3.34,1-6.64,1.53-10,.41,10.15,2,20.41,1,30.42-2,20.54-4.27,41.19-8.51,61.36C739.13,266,718.9,309.1,680.47,341.32c-17.51,14.68-37.6,25.79-60,31.35-12.84,3.18-26.06,4.84-39.11,7.19Q583.89,374.79,586.43,369.72Z"/><path class="cls-14" d="M547.07,235.81l-16.65,17.1c-2.69-1.68-5.18-3.23-9.73-6.09l4,11.8c-12.81-2.85-14.46-4.87-13.24-11.79,6.48-4.46,11-7.64,15.56-10.7,3.8-2.55,7.7-5,12.63-8.14-.27-5.86,3.71-9.86,10.82-11.08l-1.68,17.17Z"/><path class="cls-10" d="M548.8,234.08l1.68-17.17c.58-2.85,1.15-5.7,1.73-8.55l9.92-.52-7.49-8.46,16.5-3.84c8.32,5.83,6.72,10.56.27,16.44-4.34,3.94-6.88,9.87-10.22,14.91l1.72,1.8-6.07-1Z"/><path class="cls-2" d="M751,106.43l-.62.36-.66-.24Z"/><path class="cls-1" d="M54.72,106.82l-12.15,0c.65-13.1,8-20.38,20.93-20.16,25.22.41,50.44,1.26,75.66,1.55,6.44.08,8.7,2.6,8.24,8.69-.26,3.39,0,6.82,0,10.23l-22.28,1.51-68.74-1.69Z"/><path class="cls-6" d="M46.64,175.84c2.33,13.57,4.09,27.27,7.07,40.69,9.56,43.06,26.35,82.41,60.14,112.55,21.81,19.46,47.92,30.31,75.92,37.1,7.43,1.8,15.08,2.7,22.63,4l4.68,8.91c-4,.24-6.71.88-9.23.48-31.34-5-60.42-15.7-85.55-35.47-24.64-19.38-42.66-43.95-55.47-72.53-11-24.57-17-50.54-21.93-76.8-1.15-6.19-.46-12.73-.61-19.11Z"/><path class="cls-6" d="M198.77,270.14c3.94-3.39,10.15-6.06,1.48-14.22l19.28-4.54,9.83,8.63c-7.13,7.06-17.05,13.73-18.35,26.9l-8.79-1.34-3.43-5.22c0-.53,0-1.06,0-1.59Z"/><path class="cls-22" d="M183,304.91q-6-18.18-12-36.37c2.27,4,4.43,8.15,6.85,12.1,1.83,3,4,5.79,6.68,9.6l-3.29,3C185.93,296.67,187.58,300.51,183,304.91Z"/><path class="cls-22" d="M125.12,108.61l22.28-1.51c1.09,1.08,3.13,2.17,3.12,3.24-.09,8.62-.55,17.24-.9,25.87-.51-6.71-1.32-13.42-1.41-20.13-.07-5.07-2.08-7.11-7.07-7C135.8,109.13,130.46,108.77,125.12,108.61Z"/><path class="cls-22" d="M42.25,124.38q.9,12,1.79,23.93H41Z"/><path class="cls-22" d="M169.92,264.94q-2.85-11.08-5.69-22.17c.55.1,1.56.12,1.6.32C167.25,250.36,168.58,257.65,169.92,264.94Z"/><path class="cls-22" d="M153.11,179.09l-2.46-22.2C156.52,163.73,154.39,171.46,153.11,179.09Z"/><path class="cls-22" d="M41,155.07l-9.69-2.92c.2-.92.39-1.85.59-2.77l9.11.71C41,151.75,41,153.41,41,155.07Z"/><path class="cls-22" d="M156.55,204.83l-2.46-17.06C160.47,192.65,157.33,198.91,156.55,204.83Z"/><path class="cls-22" d="M159.8,222q-1.38-6.9-2.75-13.79C163.44,211.73,161.15,217,159.8,222Z"/><path class="cls-6" d="M41,155.07c0-1.66,0-3.32,0-5,0-.59,0-1.18,0-1.77H44l.72,11.88Z"/><path class="cls-22" d="M27.39,159.88c-.66-2.81-1.33-5.63-2-8.44l2.49-.72L30.22,159Z"/><path class="cls-22" d="M163.22,239.18l-2-10.28Z"/><path class="cls-22" d="M20.84,160.59c-1.13,1.26-2,2.69-2.38,2.57-1.07-.29-1.94-1.27-2.89-2,.68-.73,1.27-1.9,2.07-2.07S19.35,159.84,20.84,160.59Z"/><path class="cls-22" d="M198.8,278.76c0,.53,0,1.06,0,1.59l-5.36,1.84c-.24-.86-.47-1.72-.71-2.58Z"/><path class="cls-22" d="M194,285.38c1.12,1.41,2.17,2.17,2.29,3.06.08.56-1.35,1.91-1.91,1.82a3.09,3.09,0,0,1-2-2C192.19,287.59,193.19,286.68,194,285.38Z"/><path class="cls-22" d="M46.64,175.84l-2.35-.16q.7-2.46,1.43-4.92Q46.17,173.31,46.64,175.84Z"/><path class="cls-22" d="M45.19,163.66c.06,1.21.12,2.42.19,3.63a2.38,2.38,0,0,1-1-.13c0-1.11,0-2.22,0-3.33Z"/><path class="cls-6" d="M44.38,163.83c0,1.11,0,2.22,0,3.33C44.39,166.05,44.38,164.94,44.38,163.83Z"/><path class="cls-22" d="M41.87,108.92a1.19,1.19,0,0,1,0,1.6,6,6,0,0,1-.38-1.13C41.44,109.26,41.73,109.08,41.87,108.92Z"/><path class="cls-14" d="M318.9,445.07l35.37-34.49-3.73-8.08,18-3.8,5.89,8.09c-5,9.61-16.75,14.4-14.95,28.2l-8.08-3c-4.49,5.07-8.57,10.67-13.72,15-2.1,1.77-6.53.78-9.9,1.05l-5.49.45Z"/><path class="cls-6" d="M757.13,112.05c0-1,0-2,0-2.93C757.13,110.1,757.13,111.07,757.13,112.05Z"/><path class="cls-11" d="M481.78,733.17c33.05,0,66.09,0,99.14.18,3,0,6,1.63,9,2.5a.48.48,0,0,0,.06.77l-109.8.18-272.76-.11-.1-.07c0-1.11.06-2.22.08-3.33Z"/><path class="cls-13" d="M481.78,733.17l-274.41.12c3.24-.59,6.48-1.68,9.72-1.68q132.39-.14,264.76-.07A9.84,9.84,0,0,1,481.78,733.17Z"/><path class="cls-7" d="M373.77,851.62q-76.68,0-153.35-.1c-3.21,0-6.42-1.19-9.64-1.82l8.59-1.14H252c3.38.22,6.76.6,10.14.62q55.79.31,111.58.52l.06,1.85Z"/><path class="cls-11" d="M208.23,849.54c-.86-1.89-2.44-3.77-2.45-5.66q-.22-51.32,0-102.62c0-1.55,1-3.09,1.55-4.64l.1.07c.11.55.23,1.11.34,1.67l.17,3.59v37.48l0,7.13Z"/><path class="cls-23" d="M208.23,849.54l-.36-63a85.49,85.49,0,0,1,1.16,9.91c.13,16.37.06,32.73.06,48.34l10.28,3.75-8.59,1.14Z"/><path class="cls-8" d="M169.66,712.67l78.8-.08,1.81,1.78c-23.92,0-47.84.07-71.76-.06C175.55,714.3,172.61,713.25,169.66,712.67Z"/><path class="cls-23" d="M590.64,849.88l-.26-.6q-98.88,0-197.74,0c-3.68,0-7.35-.49-11-.75l-1.47-1.63a6.53,6.53,0,0,1,.64-.54c10.19-6.47,21.56-11.65,30.31-19.69a540.08,540.08,0,0,0,45.37-47c9-10.5,16.41-22.64,19.89-36.26l-6.55-3.41,10.44-1.48,109.64,0a1.51,1.51,0,0,0,1.07.39c0,3.77,0,7.53,0,11.3l.15,7.42q-.08,3.16-.14,6.31L591,773c0,1,0,1.94.05,2.91l-.12,4ZM576,843.59c3-4.58,6.19-7.29,5.87-9.49-.35-2.39-4-4.3-6.15-6.42-2.1,2.2-5.62,4.24-5.9,6.65C569.52,836.52,572.79,839.12,576,843.59Zm9.56-93.83c-4.9-3.12-7.39-5.93-9.84-5.89-2.09,0-6,3.74-5.77,5.12.52,2.55,3.3,6,5.6,6.42S580.5,752.77,585.51,749.76Z"/><path class="cls-24" d="M629.41,741.83c0,.55,0,1.1-.08,1.65l-11.57-2.35,4.88,9.58-1.59,1.12-9-6.31-1.65,1.24,5,9.59c-8.14-.9-15.17-6.54-14.82-12,.11-1.76,2.19-3.39,3.38-5.08l3.19,4.29-.39.71.39-.72c3.8-3.21,7.52-6.51,11.42-9.59,2.48-2,5.21-3.6,7.82-5.38,1,3,2.16,6,3,9A17.34,17.34,0,0,1,629.41,741.83Z"/><path class="cls-11" d="M381.61,848.48c3.68.26,7.35.75,11,.75q98.87.07,197.74,0c-3.15.77-6.31,2.21-9.46,2.22q-103.56.18-207.1.07l-.06-1.85Z"/><path class="cls-24" d="M488.76,709.42l60,0v3.27c-17.5,0-35,.14-52.51-.13C493.75,712.49,491.26,710.51,488.76,709.42Z"/><path class="cls-15" d="M590.94,750.1c0-3.77,0-7.53,0-11.3.29-.7.57-1.41.86-2.12q.77,8.57,1.52,17.13.07,18.83.14,37.67c0,2.34,0,4.68,0,7a6.35,6.35,0,0,0,0,1.57c0,13.88,0,27.76-.26,41.63-.06,2.75-1.7,5.46-2.6,8.19l.33-70,.12-4c0-1,0-1.94-.06-2.91,0-3,0-6.08-.08-9.12q.06-3.15.14-6.31Z"/><path class="cls-4" d="M593.47,791.48q-.08-18.84-.14-37.67c9.71,10.22,11.39,12.91,4.17,23C594.72,780.64,594.73,786.52,593.47,791.48Z"/><path class="cls-4" d="M593.5,800.06a6.35,6.35,0,0,1,0-1.57,8.3,8.3,0,0,1,.61,1.13C594.11,799.69,593.71,799.91,593.5,800.06Z"/><path class="cls-19" d="M591.81,736.68c-.29.71-.57,1.42-.86,2.12a1.51,1.51,0,0,1-1.07-.39c0-.6,0-1.2.07-1.79a.48.48,0,0,1-.06-.77Z"/><path class="cls-24" d="M517.86,908.08c-14.65-.23-29.3-.49-43.95-.65-3.08,0-6.16.34-9.25.53l1.89-4.6-8-.77V898H445.9c-.37,1.16-1,3.2-1.45,4.5l8.27,5.64L257.05,908c0-7.14.6-14.33-.08-21.41-.77-7.92,2.46-9.51,9.74-9.38,23.71.42,47.43.16,71.14.16l180,0Z"/><path class="cls-20" d="M416.69,512c0,.55.06,1.09.08,1.64.63,36.91,3.43,73.61,10.25,109.95q.84,2.51,1.67,5,2.56,15.48,5.11,31H364.29c12.09-47.93,16.82-97.51,18-147.51l.06-.06Z"/><path class="cls-16" d="M475.1,662.91c10.67,7.34,15.6,18.28,18.59,30.25,1.83,7.31-3,7.57-8.5,7.55q-87.46-.18-174.92-.1c3.37-15.54,11.22-27.84,26-34.79,2.65-1.25,6.08-1.15,9.15-1.15,40-.07,80,0,120-.13C468.59,664.53,471.84,663.48,475.1,662.91Z"/><path class="cls-1" d="M269.13,705.79c0,.53,0,1.06,0,1.59H257.39l0-1.59Z"/><path class="cls-16" d="M500.85,663l3.09.23a8,8,0,0,1-1.85,1.23c-.37.13-.94-.32-1.42-.51Z"/><path class="cls-13" d="M452.72,908.1l-8.27-5.64c.42-1.3,1.08-3.34,1.45-4.5h12.63v4.63l8,.77-1.89,4.6Z"/><path class="cls-1" d="M416.69,512l-34.3,0c-1.39-8,1.6-10.94,10-10.49,8.05.44,16.21-.92,24.31-1.5Z"/><path class="cls-1" d="M421.75,499.87l8.68-5.1c0,1.14,0,2.27,0,3.41Z"/><path class="cls-25" d="M337.33,332.25c1.61-10.53,2.89-19.6,4.41-28.64,2-11.74,4.29-23.42,6.18-35.18,1-6.1-.43-10.92-5.64-15.67-13.71-12.52-26.49-26-39.6-39.21-1.51-1.52-2.72-3.34-5.09-6.28,13.27-2.05,25.17-4,37.11-5.69,9.55-1.35,19.25-1.85,28.65-3.85,3.41-.73,7.29-4.11,9-7.32,10.17-19.4,19.76-39.11,30.27-60.17,8.51,16.65,16.38,31.92,24.14,47.25,2.68,5.3,4.4,11.26,7.88,15.95,1.92,2.58,6.45,3.94,10,4.48,20.68,3.15,41.42,5.89,63.65,9-2.21,3-3.26,4.88-4.75,6.32-14.72,14.32-29.66,28.43-44.15,43-1.87,1.89-2.58,6.11-2.11,9,3.37,20.7,7.19,41.33,10.8,62,.19,1.05-.2,2.2-.45,4.52-12.47-6.4-24.34-12.49-36.2-18.6-8.12-4.18-16.06-8.75-24.42-12.37-2.65-1.14-6.87-.75-9.54.6-18.58,9.35-36.93,19.13-55.36,28.77C341.16,330.58,340.17,331,337.33,332.25Z"/><path class="cls-14" d="M424.36,47.29l9.9,9.36c-4.52,8.44-19.45,11.46-17.84,26.74L410,79.55c-4.43,4.3-9.12,7.66-12.18,12.13-4.41,6.43-8.73,9.85-16.73,4.81,1.41,2.45,2.81,4.89,4.86,8.44l-10-.73c1.06,3.24,1.92,5.9,3,9.28-13.61-5.78-17.3-11.63-12.74-19.73l6.1,2.83c9.63-8,20.4-14.6,27.52-23.94,3.9-5.12,12.32-9.1,10.77-18.3-.24-1.42,3.23-4.05,5.47-5.16C418.58,48,421.58,47.87,424.36,47.29Z"/><path class="cls-14" d="M338.18,128.09c4.93-8,4.92-19.24,17.76-19.77,10.52,7.59,12.16,12.41,6.53,21.06C357.8,136.56,352.27,136.31,338.18,128.09Z"/><path class="cls-14" d="M489.72,259.16l13-3.46c8.54,8.69,11,17.05,6.38,22.25-5,5.56-11.11,4.46-22.63-3.81C487.55,269,488.62,264.16,489.72,259.16Z"/><path class="cls-22" d="M54.72,106.82l1.66.1Z"/><path class="cls-26" d="M480.24,738.44l-10.44,1.48c-3.27-.5-6.54-1.44-9.81-1.44q-126.14-.15-252.26-.12c-.11-.56-.23-1.12-.34-1.67l272.76.11Z"/><path class="cls-27" d="M480.24,738.44l-.09-1.64,109.8-.18c0,.59-.05,1.19-.07,1.79Z"/><path class="cls-27" d="M207.73,738.36q126.12,0,252.26.12c3.27,0,6.54.94,9.81,1.45l6.55,3.4c-3.48,13.62-10.93,25.76-19.89,36.26a540.08,540.08,0,0,1-45.37,47c-8.75,8-20.12,13.22-30.31,19.69a6.53,6.53,0,0,0-.64.54l1.47,1.63-7.85,1.24q-55.78-.24-111.58-.52c-3.38,0-6.76-.4-10.14-.62H231.53l-1.85-3.24c-.61,1.08-1.23,2.16-1.85,3.23h-8.46l-10.28-3.75c0-15.61.07-32-.06-48.34a85.49,85.49,0,0,0-1.16-9.91c0-2.38,0-4.75,0-7.13V765.7q0-11.88,0-23.75C207.85,740.75,207.79,739.55,207.73,738.36Zm14.57,86.11c-3,4.85-5.93,7.44-5.86,9.95.07,2.11,4,6.06,5.47,5.74,2.59-.59,6.05-3.54,6.44-5.94C228.7,832,225.46,829.25,222.3,824.47Zm.71-65.08c2.85-5.1,5.89-8.1,5.38-10.27-.54-2.32-4.3-5-6.92-5.3-1.54-.18-5.11,4-5,6C216.55,752.35,219.59,754.71,223,759.39Z"/><path class="cls-23" d="M234.77,848.58h0Z"/><path class="cls-23" d="M227.83,848.57c.62-1.07,1.24-2.15,1.85-3.23l1.85,3.24Z"/><path class="cls-23" d="M207.9,742q0,11.87,0,23.75Q207.89,753.82,207.9,742Z"/><path class="cls-23" d="M207.89,772.81v0Z"/><path class="cls-24" d="M576,843.59c-3.16-4.47-6.43-7.07-6.18-9.26.28-2.41,3.8-4.45,5.9-6.65,2.19,2.12,5.8,4,6.15,6.42C582.14,836.3,579,839,576,843.59Z"/><path class="cls-5" d="M585.51,749.76c-5,3-7.81,6-10,5.65s-5.08-3.87-5.6-6.42c-.28-1.38,3.68-5.08,5.77-5.12C578.12,743.83,580.61,746.64,585.51,749.76Z"/><path class="cls-19" d="M591,763.83c0,3,0,6.08.08,9.12Q591,768.39,591,763.83Z"/><path class="cls-19" d="M590.94,750.1l.15,7.42Z"/><path class="cls-19" d="M591.09,775.86l-.12,4Z"/><path class="cls-5" d="M607.1,743.53l-.39.72.39-.71Z"/><path class="cls-4" d="M222.3,824.47c3.16,4.78,6.4,7.55,6,9.75-.39,2.4-3.85,5.35-6.44,5.94-1.45.32-5.4-3.63-5.47-5.74C216.37,831.91,219.26,829.32,222.3,824.47Z"/><path class="cls-4" d="M223,759.39c-3.42-4.68-6.46-7-6.56-9.52-.09-2.09,3.48-6.23,5-6,2.62.32,6.38,3,6.92,5.3C228.9,751.29,225.86,754.29,223,759.39Z"/><path class="cls-28" d="M309.63,770q-.39,5.78-1.13,21.1-.39,9.43-.58,21.22h-10l-.27-13-9.73,14-10.5-13.89-.27,12.87h-9.92q-.19-6.3-.75-21.33-.39-8.65-1.4-21h15.79q.83,2,2.83,6.5,1.54,3.19,4.22,7.55,1.19-1.87,4.35-7.75c.76-1.44,1.72-3.55,2.9-6.3Z"/><path class="cls-28" d="M348.84,790.25q0,9.72-5,16.45-5.26,7-13.48,7a16.25,16.25,0,0,1-13.69-7.08q-4.94-6.67-4.94-16.4,0-10.39,5.38-16.31a17.06,17.06,0,0,1,13.25-5.57A16.88,16.88,0,0,1,343.47,774Q348.84,779.92,348.84,790.25Zm-13.25,4.85q0-7.67-5.18-7.66t-5.05,7.71a12.83,12.83,0,0,0,1.33,5.76q1.49,3,3.66,3t3.75-3.06A12.12,12.12,0,0,0,335.59,795.1Z"/><path class="cls-28" d="M391,772.2q-1.51,2.81-6.2,11.85-2.56,5-7.06,13.31.39.6,4.47,5.1Q384.61,805,389,809l-6,2.59q-2.34,1-6.59,3.06c-.7-.85-2.13-2.82-4.3-5.93q-1.82-2.75-3.5-5.87h-.11l-.27,9.48H353l-.75-22q-.3-7.21-1.29-20.3h19.18L369,788.57h.2q1.15-3.26,3.72-10.72,1-3.26,2.7-8.93l7.8,1.71Q387.26,771.46,391,772.2Z"/><path class="cls-28" d="M421.1,770l-1.18,17.44c-.68-.11-2.15-.31-4.41-.58-1.55-.15-3.24-.24-5.07-.28l-.42,5.27c2,0,5.32,0,9.9-.14-.21.68-.53,1.95-1,3.8-.26,1.12-.49,2.42-.69,3.89a38,38,0,0,0-4-.5c-1,0-2.47-.07-4.41,0l-.28,6.14c1.38,0,3.91-.14,7.61-.36a24.15,24.15,0,0,0,3.44-.66q-.22.85-1,4.11c-.26,1.12-.57,2.53-.94,4.24H394l-.8-21.6Q393,783.3,392.14,770Z"/><path class="cls-28" d="M459.18,786.69q0,7.83-5,12.53t-13.27,4.7l-.33,8.4H425.4l-.8-20.53q-.36-7.93-1.13-21.79a68.32,68.32,0,0,1,12.59-.86q10.13,0,16.21,4.05Q459.19,777.8,459.18,786.69Zm-11.43,4.63c0-2.86-1.7-4.3-5.1-4.3a8.73,8.73,0,0,0-1.24.09l-.28,9.64C445.54,796.6,447.75,794.8,447.75,791.32Z"/><path class="cls-28" d="M498,790.25q0,9.72-5,16.45-5.26,7-13.47,7a16.27,16.27,0,0,1-13.7-7.08q-4.93-6.67-4.93-16.4,0-10.39,5.37-16.31a17.07,17.07,0,0,1,13.26-5.57A16.87,16.87,0,0,1,492.58,774Q498,779.92,498,790.25ZM484.7,795.1q0-7.67-5.18-7.66t-5,7.71a12.82,12.82,0,0,0,1.32,5.76c1,2,2.22,3,3.67,3s2.66-1,3.74-3.06A12,12,0,0,0,484.7,795.1Z"/><path class="cls-28" d="M533.92,770q-.39,5.57-1.07,19.42-.42,10.2-.69,23.45-3.61-2.83-11-8.46l-9.53-6.69-.28,14.6h-8.87q-.23-5.6-1-21.11-.69-12.56-1.41-21.21h13.84l10.25,9.7c0-2.23,0-4-.11-5.24s-.17-2.61-.33-4.46Z"/></g></g></svg>