<svg xmlns="http://www.w3.org/2000/svg" viewBox="0 0 411.57 366.61"><defs><style>.cls-1{fill:#fff;}</style></defs><g id="Capa_2" data-name="Capa 2"><g id="Capa_3" data-name="Capa 3"><path class="cls-1" d="M354.76,131.76A56.08,56.08,0,0,0,342.23,116,70.39,70.39,0,0,0,323,104.12a93.87,93.87,0,0,0-21.23-5.92,136.18,136.18,0,0,0-20.94-1.66q-7.07,0-14.42.72l37.7-63.17H212l-59.37,111.8-3-82.71,63.48-58L209.72,0,141.15,27.07c-1,.41-1.93.79-2.9,1.15a99.37,99.37,0,0,1-9.76,3.05c-3.21.81-6.26,1.46-9.09,1.92-2.63.43-5,.73-7.07.9H61.21l5.06,51.78V86c-.13.23-.32.52-.58.89a66.25,66.25,0,0,1-6.65,8c-2.85,2.94-5.63,5.63-8.26,8-3.52,3.18-4.9,4.35-5.41,4.77l5.09,6.56L0,163.12C43.69,148.8,70.56,139,71.21,136.67q.44,4.37,1,10,.86,8.52,1.86,18.68c.66,6.75,1.6,15.82,2.87,27.73,1.92,19.53,4.14,41.72,6.6,65.95l1.18,11.69h4.61L40.55,322.18s51.61-24.73,94.31-44.92h0c1.62-.69,3.1-1.29,4.45-1.82a65.21,65.21,0,0,0,2.12,12.84L49,366.61s50.35-20.76,54.29-22.73,42.29-18.43,45.91-20a84.07,84.07,0,0,1,9.45-3.47,27.18,27.18,0,0,1,4-.88,73.7,73.7,0,0,0,13.07,8.18,98.12,98.12,0,0,0,17.7,6.62,124.72,124.72,0,0,0,18.1,3.44,150.62,150.62,0,0,0,17.1,1,165.93,165.93,0,0,0,33.31-3.42,117.91,117.91,0,0,0,32-11.46,92,92,0,0,0,26.62-21.44,79.43,79.43,0,0,0,16.5-33c7.19-28.8-2.47-52.71-27.94-69.14l0,0c-2.95-1.89-6.25-3.77-9.81-5.59l6.65-4.89h53.73v-9.2l.22-.94a41.94,41.94,0,0,1,1.42-4.68c.51-1.39,1.23-3,2.13-4.87a38.1,38.1,0,0,1,2.89-4.89c1.25-1.75,45.29-62.09,45.29-62.09ZM199.3,233.32a94.5,94.5,0,0,1-14.86,4.61l-.24.06c-.69.16-1.37.31-2.06.45l7.32-12.21a91.25,91.25,0,0,0,10,7Zm57.7,29.8,0,.16a8.41,8.41,0,0,1-1.69,3.67,13,13,0,0,1-3.81,3,24,24,0,0,1-6.08,2.17,35.86,35.86,0,0,1-7.46.78c-13.5,0-16.39-3.09-16.49-3.2-.55-.63-1.58-4,.31-11.9l1.85-7.73,4.58-3.37,2.33.93c2.14.86,4.41,1.68,6.75,2.42,14.16,5,18.67,8.33,20,9.56l.1.1A7.38,7.38,0,0,1,257,263.12Zm22.7-91.34-.4,1.57a16.3,16.3,0,0,1-1.73,3.62,20.25,20.25,0,0,1-3.68,4.16l3.49,4.32c-.75-.3-1.52-.58-2.3-.84l-2.36-.79c-14.49-4.83-20.38-8.35-22.72-10.2l8.53-8.64a30.24,30.24,0,0,1,3.85-1,40.76,40.76,0,0,1,7.81-.83c4.77,0,8.23.88,9.72,2.48l.09.09C280.39,166.1,280.65,168.12,279.7,171.78Z"/><path d="M129.82,265.28a114.93,114.93,0,0,1,16.64-5.88q4.8-1.15,7-1.51-2.84,14.76.58,27.17L222.15,235a78.28,78.28,0,0,1-18.07,10.4,107.23,107.23,0,0,1-16.92,5.23,78.91,78.91,0,0,1-16.63,2.16v.14H158.3l17.91-29.89L75,297.45A309.7,309.7,0,0,1,105,277.75,248.49,248.49,0,0,1,129.82,265.28Z"/><path d="M83.15,125.53q0,.15.57,5.74t1.43,14.12Q86,153.93,87,164.11t2.87,27.68q2.86,29.1,6.59,66h18.36L187,205l.12-.24q7.71,11.52,24,20.24c2.2,1.14,4.54,2.32,7,3.51s5.21,2.37,8.17,3.51l46.75-34.27c-.67-.29-1.36-.55-2.08-.79l-2.37-.79q-20.22-6.74-27.53-13.05-6.6-5.88-4.87-13c.14-.54.31-1.08.48-1.6.37-.27.57-.43.61-.47l-.55.32a20.59,20.59,0,0,1,4.47-7.5,29.24,29.24,0,0,1,8.39-6.16,40.77,40.77,0,0,1,10.26-3.44,53.12,53.12,0,0,1,10.32-1.08q13.05,0,19.22,6.6,6,6.32,2.87,18.35l-.43,1.72a28.65,28.65,0,0,1-3.23,7,32.26,32.26,0,0,1-6.1,7l63.53-46.75a11.28,11.28,0,0,0-.43-1.51,8.61,8.61,0,0,0-.72-1.5,43.92,43.92,0,0,0-11.18-15.28,57.5,57.5,0,0,0-15.7-9.68A81.12,81.12,0,0,0,299.73,111a122.49,122.49,0,0,0-18.93-1.5,146.19,146.19,0,0,0-30.47,3.37c-3.39.72-6.7,1.58-10,2.57l40.81-68.39H219.81L141.37,194.8,136.78,66.74,40.56,137.58q7.45-4.44,14.34-8,6-3,12.33-5.52a29.9,29.9,0,0,1,10.61-2.51C81.19,121.52,83,122.86,83.15,125.53Z"/><path d="M194.86,12.75Q190.12,15.41,183.6,19L169.33,26.8q-7.74,4.23-15.49,8.53a78.48,78.48,0,0,1-11.11,5.09,111.93,111.93,0,0,1-11,3.45q-5.39,1.37-10.18,2.15t-8.68,1.07H75.55l3.73,38.15v1.29q.42,3-2.94,7.81a78.9,78.9,0,0,1-8,9.54q-4.59,4.73-8.89,8.6t-5.88,5.17L201.31,9.09Q199.58,10.09,194.86,12.75Z"/><path d="M75,297.45l-2.56,1.89Z"/><path d="M315.36,176.79h31.26v-.14h.58a57.89,57.89,0,0,1,1.86-6.17q1-2.72,2.66-6.09a49.54,49.54,0,0,1,3.94-6.67q2.14-3,5.73-7.38t7.17-8.46q3.58-4.09,6.53-7.39t3.8-4.3Z"/><path d="M302,211.21a101.38,101.38,0,0,0-9-5.09q-4.94-2.51-11-5l-46.74,34.42c1.91.76,3.91,1.48,6,2.15q18.5,6.45,24.81,12.48,6,5.73,3.44,16.06a21.21,21.21,0,0,1-4.52,9.17,25.72,25.72,0,0,1-7.6,6,36.86,36.86,0,0,1-9.39,3.37,49,49,0,0,1-10.18,1.07q-19.52,0-26.25-7.6-6.45-7.31-2.58-23.52L90.37,341.85q15.34-9.9,29.39-17.64,5.88-3.43,12.19-6.6T144.07,312a96.38,96.38,0,0,1,11-4,32.6,32.6,0,0,1,8.89-1.5,9.6,9.6,0,0,1,4.3.86,59.73,59.73,0,0,0,13.2,8.75,83.67,83.67,0,0,0,15.34,5.73,111.73,111.73,0,0,0,16.2,3.09,138.48,138.48,0,0,0,15.64.93,152.25,152.25,0,0,0,30.68-3.16,104.28,104.28,0,0,0,28.47-10.18A78.72,78.72,0,0,0,310.63,294a66.31,66.31,0,0,0,13.77-27.74Q333.15,231.29,302,211.21Z"/></g></g></svg>