<svg xmlns="http://www.w3.org/2000/svg" viewBox="0 0 813.9 216.11"><defs><style>.cls-1{fill:#e29733;}.cls-2{fill:#fbb03b;}.cls-3{fill:#ff0;}.cls-4{fill:#fff;}</style></defs><g id="Capa_2" data-name="Capa 2"><g id="Capa_3" data-name="Capa 3"><path class="cls-1" d="M807.9,63.36l-16.79-4.24c-28-7.08-56.54-13.56-84.93-19.31l.05-.19L692.3,37.06l-14-2.75,0,.21C644,28.45,609.31,23.32,574.88,19.26l-7.18-.85c-8.5-2.79-20.15-5.86-31.74-6.55-14.43-.85-31.35-.58-47.49,7.88A49.32,49.32,0,0,0,465.2,46c-1.43-7.64-2.82-15.29-4.1-22.87l-2.19-12.95-13.13-.37c-16.83-.48-33.86-.74-50.73-.8l4.53-6.64L382.54,0l-5.67,9h-.33l-.13.72-3.11,4.93L373.59,9l-17.3.48c-11.4.31-23,.72-34.42,1.19l-2.79.12L320,8.93l-9.82-6.52-4.3,8.93-1.7.07.38,2.68L304,15.25l.82.62.64,4.47-6-4.6-4.79-3.62-6,.42c-12.95.91-26.05,2-39,3.11h0l-19-6.71-4.66,8.87-1.34.13.34,1.79-3,5.65-2.25-6.85-13,1.6c-17.69,2.16-35.59,4.6-53.25,7.24L144,20.67l-6,9-.37,13.38c-.4,14.06-1,31.72-2,49.61C131.3,77.49,127,62.2,122.67,47.13l-3.5-12.26-12.73.68a180.35,180.35,0,0,0-31,4c-27.36,6.31-47.72,18.07-60.5,35C1,92.83-3.5,118.37,2.76,142.83c6.34,24.79,23.87,45.69,45.74,54.55,11.82,4.8,24.34,6.45,36,6.45a144.45,144.45,0,0,0,28-2.9c10.22-2.05,21.91-4.62,33-9.38l2.37-.41c9.65-1.69,14.36-2.47,24-4l2.17-.34,10.31-2.73s11.32-2.36,11.5-2.57l.8,1.87,12-1.51c15.13-1.91,30.51-3.67,45.72-5.23l3.23-.33,7.13-.65c10.81-1,16.09-1.41,26.9-2.19l15.65-1.12,6-9-6.84-7-.75-14.28q2.59,1.56,5.07,3.07c11.72,7.81,22.09,15,31.62,21.92l-.84,3.55,5.54-.12,23.39-.51c5.12-.1,9.44-.14,16.06-.17l2.15,0,21.74-1.44.57-.49.5,1.92,12.07.3c15.25.38,30.7.94,45.92,1.67l17.91.86c5.51,1.76,12.84,3,22.83,3.79,1.83.15,3.62.22,5.4.22a53.94,53.94,0,0,0,30.94-9.26,44.93,44.93,0,0,0,20.11-33.28c1-9.49-1.28-19.73-6.78-30.44l1.66,0,15.33,5.12,2.37-3.56c-.15,2.52-.31,5-.49,7.57-1.35,18.62-3,37.11-4.54,52.74l-1.45,15.3L588,182.9c13.37,1.82,26.89,3.86,40.19,6.06l14.87,2.45,6-9,.25-18.62c.58-2.54,1.15-5.07,1.72-7.61,2.37-10.56,4.82-21.48,7.27-32.07.69-3,1.33-5.68,1.91-8.07,2.78.73,5.09,1.45,6.84,2-3.06,19.84-6.22,40.1-9.39,60.33l-2.38,15.16,15,3c24.57,4.92,49.37,10.47,73.71,16.47l12.45,3.08,6-9,1.42-5.91c1.53-3,2.89-5.72,4.09-8,3.19-5.92,5.19-9.54,6-11L787.08,159l-13.26-.28c.53-1.11,1-2.12,1.52-3,3.29-6.2,4.9-8.86,5.32-9.53l11.89-19.19-5.62-1.24c5.11-15.31,10.29-30.73,15.42-45.91ZM223.81,31l-.45-1.37,4.43,5.15.08.46c1,5.34,2,10.86,3,16.62C228.48,44.89,226.1,37.92,223.81,31Zm148.63.74c.09-1.83.18-3.64.27-5.44l.53-10.45,1.53,3-.6,3.36C373.63,25.22,373.05,28.41,372.44,31.73Zm105.61,80.44c-.54-2.72-1.07-5.43-1.61-8.14a67,67,0,0,0,5.21,5.47l5.72,5.52Z"/><path class="cls-2" d="M813.9,54.36l-16.79-4.24c-28-7.08-56.54-13.56-84.93-19.31l.05-.19L698.3,28.05l-14-2.74,0,.21C650,19.45,615.31,14.32,580.88,10.26l-7.18-.85C565.2,6.62,553.55,3.55,542,2.86c-14.43-.85-31.35-.58-47.49,7.88A49.32,49.32,0,0,0,471.2,37c-1.43-7.64-2.82-15.29-4.1-22.87L464.91,1.22,451.78.85C433.25.32,414.46.05,395.93,0H382.54L380.17,13.2c-.54,3-1.12,6.21-1.73,9.53.09-1.83.18-3.64.27-5.44L379.59,0l-17.3.48c-11.4.31-23,.72-34.42,1.19l-17.69.74,1.28,8.93-6-4.6-4.79-3.62-6,.42c-15.44,1.08-31.08,2.36-46.5,3.77L230.59,8.93l3.28,17.3c1,5.34,2,10.86,3,16.62-2.42-7-4.8-13.93-7.09-20.86l-4.1-12.47-13,1.6c-18.42,2.25-37.08,4.8-55.46,7.56l-13.24,2-.37,13.38c-.4,14.06-1,31.72-2,49.61C137.3,68.49,133,53.2,128.67,38.13l-3.5-12.26-12.73.68a180.35,180.35,0,0,0-31,4c-27.36,6.31-47.72,18.07-60.5,35C7,83.83,2.5,109.37,8.76,133.83c6.34,24.79,23.87,45.69,45.74,54.55,11.82,4.8,24.34,6.45,36,6.45a144.45,144.45,0,0,0,28-2.9c10.22-2.05,21.91-4.62,33-9.38l2.37-.41c9.65-1.69,14.36-2.47,24-4l2.17-.34,10.31-2.73s11.32-2.36,11.5-2.57l.8,1.87,12-1.51c15.13-1.91,30.51-3.67,45.72-5.23l3.23-.33,7.13-.65c10.81-1,16.09-1.41,26.9-2.19l15.65-1.12-.82-15.68q-.39-7.29-.77-14.6,2.59,1.56,5.07,3.07c11.72,7.81,22.09,15,31.62,21.92l-.84,3.55,5.54-.12,23.39-.51c5.12-.1,9.44-.14,16.06-.17l2.15,0,21.74-1.44.57-.49.5,1.92,12.07.3c15.25.38,30.7.94,45.92,1.67l17.91.86c5.51,1.76,12.84,3,22.83,3.79,1.83.15,3.62.22,5.4.22a53.94,53.94,0,0,0,30.94-9.26,44.93,44.93,0,0,0,20.11-33.28c1-9.49-1.28-19.73-6.78-30.44l1.66,0,15.33,5.12.28-4.84,2.17,0q-.25,4.41-.57,8.8c-1.35,18.62-3,37.11-4.54,52.74l-1.45,15.3L594,173.9c13.37,1.82,26.9,3.86,40.19,6.06l14.87,2.45,3.34-14.7c1.55-6.82,3.09-13.68,4.63-20.53,2.37-10.56,4.82-21.48,7.27-32.07.69-3,1.33-5.68,1.91-8.07,2.78.73,5.09,1.45,6.84,2-3.06,19.84-6.22,40.1-9.39,60.33l-2.38,15.16,15,3c24.57,4.92,49.37,10.47,73.71,16.47l12.45,3.08,5.71-11.48c2.22-4.47,4.17-8.31,5.8-11.44,3.19-5.92,5.19-9.54,6-11L793.08,150l-13.26-.28c.53-1.11,1-2.12,1.52-3,3.29-6.2,4.9-8.86,5.32-9.53l11.89-19.19-5.62-1.24c5.11-15.31,10.29-30.73,15.42-45.91ZM482.44,95a67,67,0,0,0,5.21,5.47l5.72,5.52-9.32-2.85C483.51,100.45,483,97.74,482.44,95Z"/><path class="cls-3" d="M142.12,112c.23,4.78.83,13.87,2.06,27,.86,9.24,2,18.59,3.26,27.86-10.08,4.71-21.24,7.22-32,9.38-17.68,3.54-37.9,4.21-54.9-2.69C42.14,166.11,29,148.49,24.26,129.86c-4.64-18.11-2.2-39.36,9.41-54.7C46.06,58.79,65.93,50.54,85,46.14a168.78,168.78,0,0,1,28.28-3.61q7.29,25.55,14.46,51.12c-4.12-.67-9.78-.34-16.93,1a41,41,0,0,0-23,12.76c-6.93,7.54-9.32,15.88-7.35,24.89,1.86,8.52,6.72,14.34,14.41,17.57a33.14,33.14,0,0,0,20.72,1.58c-1.85-6.5-2.77-9.76-4.63-16.26q-1.53-5-5.67-16.31Q123.68,115.26,142.12,112Z"/><path class="cls-3" d="M258.77,151.72q-23.08,2.37-46.09,5.27c-1.82-4.26-2.74-6.39-4.58-10.64a107.5,107.5,0,0,0-9,6.39,91.48,91.48,0,0,0-9.81,10c-2.51-3.74-3.77-5.6-6.3-9.32q-1.87-2.77-5.42-7.74c-.85,6.68-1.26,10-2.07,16.7-9.73,1.52-14.6,2.33-24.31,4,2-23.4,4-47.06,5.63-70.23,1.46-20.29,2.24-41.07,2.81-61.64q27.48-4.12,55-7.5c6.55,19.88,13.71,39.71,20.7,59.31C243.05,108,251.07,129.88,258.77,151.72Zm-56.85-21c-1.37-2.81-3.73-7.34-7.13-13.58-2-3.44-5-8.16-9-14.13-.88,3.4-2.21,9-3.95,16.67-.93,4.43-1.92,10.43-2.92,18,1.7-.26,5.62-1.13,11.47-2.72A85.27,85.27,0,0,0,201.92,130.69Z"/><path class="cls-3" d="M362.73,16.47c-1,19.71-1.62,39.55-2.05,59.17-.52,23.66-.37,47.58-.24,71.37-11.48-8.4-23.2-16.48-35-24.37q-15.5-9.42-31.19-18.5,1.14,22.19,2.31,44.37c-10.88.79-16.32,1.23-27.2,2.22-2.8-21.25-5.88-42.53-9.07-63.66s-6.64-42.63-10.66-63.82q23.07-2.13,46.17-3.75,18,13.59,35.57,27.57c-.3-6.75-.68-12.07-1.07-15.89-.35-3.38-.91-7.9-1.72-13.52Q345.64,16.94,362.73,16.47Z"/><path class="cls-3" d="M476.29,146.77q-23.15-1.12-46.3-1.69c-1.16-4.48-1.75-6.72-2.93-11.2a104.19,104.19,0,0,0-9.87,5A90.6,90.6,0,0,0,406,147.23c-1.91-4.07-2.87-6.1-4.81-10.16q-1.45-3-4.19-8.46c-1.84,6.47-2.75,9.71-4.54,16.2-9.82.05-14.73.12-24.55.34,5.41-22.85,10.92-45.94,16-68.6,4.46-19.85,8.33-40.27,12-60.52q27.72,0,55.4.81c3.5,20.64,7.61,41.31,11.58,61.74C467.29,101.19,472,124,476.29,146.77Zm-53-29.31c-.93-3-2.58-7.8-5-14.48-1.47-3.71-3.71-8.82-6.77-15.33q-2.07,4.84-6.39,15.9-2.37,6.36-5.56,17.34c1.72,0,5.71-.27,11.71-1A85.44,85.44,0,0,0,423.3,117.46Z"/><path class="cls-3" d="M568.17,78a49.66,49.66,0,0,0-9.79-2.48,12.19,12.19,0,0,0-7.91,1.89,10.22,10.22,0,0,0-5,8c-.25,2.67,1.8,8.06,6,16.18s6,15.4,5.28,21.79a28.88,28.88,0,0,1-13.19,21.73c-7.4,5-16.05,7.14-26.06,6.33-9.22-.75-16-1.86-20.29-3.43-.34-2.6-.84-7-1.8-12.72-.53-3.13-1.44-7.41-2.55-12.68,6.22,1.9,10.39,2.95,12.57,3.11,8.52.61,13-2.18,13.54-8.47a17.21,17.21,0,0,0-4.24-12.7q-8-7.84-16.13-15.68c-9.56-8.88-15.52-21.3-14.92-34.4.57-12.35,7-23.73,18.17-29.57,12.4-6.5,25.82-6.86,39.12-6.07,9.82.58,20.69,3.32,30.17,6.6Q569.72,51.72,568.17,78Z"/><path class="cls-3" d="M692.71,43.3Q686.53,69,680.41,94.64c-2.23-.76-5.9-2-10.78-3.25-3-.78-8.12-1.79-15.09-3.13-.9,3.19-3,11-5.8,23.25-4,17.39-7.92,35.11-11.91,52.66q-20.28-3.34-40.64-6.12c1.68-17.69,3.29-35.54,4.57-53.1.6-8.31,1-16.58,1.41-24.59-5.63-.55-8.44-.81-14.07-1.3-5.14-.13-7.7-.19-12.83-.27q1.89-26.33,3.74-52.64Q636.17,32.89,692.71,43.3Z"/><path class="cls-3" d="M793.2,65.63q-8.52,25.22-16.94,50.44c-2.07-.87-6.62-2.73-13.52-5.18-4.7-1.66-10.08-3.18-15.88-4.64-2,6.11-3,9.17-4.93,15.29,10.32,2.61,20.74,4.83,31.13,7.13-1.14,1.84-3.13,5.33-5.85,10.45-1.64,3.09-3.3,6.75-5,10.93a94.39,94.39,0,0,0-12-4.5c-3-.94-7.56-2-13.61-3.39-2,7.21-3,10.81-5.06,18,4.23.92,12.16,2.49,23.5,4.5a82.65,82.65,0,0,0,11,.7c-.88,1.56-2.95,5.33-6.18,11.32q-2.43,4.65-6,11.8-37-9.13-74.41-16.63,5.12-32.48,10.12-65c3.33-20.78,5.93-41.67,8.47-62.56Q745.95,53.7,793.2,65.63Z"/><polygon class="cls-4" points="156.11 105.21 178.62 31.73 184.22 30.95 154.94 120.31 156.11 105.21"/><polygon class="cls-4" points="154.15 130.24 189.04 30.29 197.17 29.21 152.75 147.22 154.15 130.24"/><polygon class="cls-4" points="380.68 90.88 423.3 16.47 432 16.47 376.35 109.53 380.68 90.88"/><polygon class="cls-4" points="436.44 16.47 373.61 120.89 369.1 140.2 448.86 16.77 436.44 16.47"/><polygon class="cls-4" points="686.32 128.13 742.79 53.66 750.1 55.32 684.09 142.48 686.32 128.13"/><polygon class="cls-4" points="683.24 146.85 754.62 56.34 760.68 57.8 681.52 157.84 683.24 146.85"/></g></g></svg>