<svg width="400" height="243" viewBox="0 0 400 243" fill="none" xmlns="http://www.w3.org/2000/svg">
<rect width="353" height="169" rx="60" fill="url(#paint0_linear_35_417)"/>
<path d="M87.2031 107H68.5068L67.2422 102.454C66.7181 102.659 65.4079 103.354 63.3115 104.539C61.9671 105.405 60.4746 106.556 58.834 107.991L56.8857 103.855C56.4984 103.035 55.9401 101.884 55.2109 100.403L53.3652 107H43.4531C44.9115 101.372 47.1673 92.0863 50.2207 79.1436C52.0892 70.4847 53.6501 62.2702 54.9033 54.5H75.4453C76.0833 58.0775 77.8265 66.4059 80.6748 79.4854C82.2471 86.3213 84.4232 95.4928 87.2031 107ZM65.6357 95.7891C65.2484 94.5814 64.5648 92.6217 63.585 89.9102C62.9925 88.4062 62.0924 86.3327 60.8848 83.6895C60.3607 85.0111 59.5404 87.1758 58.4238 90.1836C57.8086 91.9154 57.0794 94.2738 56.2363 97.2588C56.9199 97.2588 58.4694 97.1221 60.8848 96.8486C62.3431 96.6436 63.9268 96.2904 65.6357 95.7891ZM134.166 84.5439C133.938 86.4808 133.596 90.138 133.141 95.5156C132.913 98.7285 132.696 102.534 132.491 106.932C129.438 107.82 124.983 108.265 119.127 108.265C110.423 108.265 103.347 106.305 97.9014 102.386C91.4756 97.7145 88.2627 90.7646 88.2627 81.5361C88.2627 72.695 91.0768 65.7907 96.7051 60.8232C101.992 56.152 108.953 53.8164 117.589 53.8164C120.847 53.8164 124.345 54.0671 128.082 54.5684L129.962 76.1357C128.458 75.5661 126.316 75.2812 123.536 75.2812C120.004 75.2812 116.814 76.3636 113.966 78.5283C110.776 80.9665 109.181 84.0654 109.181 87.8252C109.181 91.3799 110.536 94.1257 113.248 96.0625C115.527 97.7031 118.159 98.4779 121.144 98.3867L120.597 91.5166C120.46 90.1038 120.152 87.7796 119.674 84.5439H134.166ZM182.257 54.5L181.471 76.6143C181.243 82.9261 181.129 92.4736 181.129 105.257C175.296 107.353 169.348 108.401 163.287 108.401C155.813 108.401 150.128 106.909 146.231 103.924C142.927 101.395 140.592 97.4525 139.225 92.0977C138.427 89.0215 137.675 83.3932 136.969 75.2129C136.285 67.6478 135.864 60.7435 135.704 54.5H157.75C157.636 57.5078 157.499 62.4069 157.34 69.1973C157.271 72.9798 157.294 78.346 157.408 85.2959C157.431 90.5824 157.887 94.1484 158.775 95.9941C159.71 97.9538 161.578 98.9336 164.381 98.9336C165.178 98.9336 166.067 98.7057 167.047 98.25C167.047 93.556 166.91 86.0934 166.637 75.8623C166.409 70.7354 165.987 63.6146 165.372 54.5H182.257ZM226.861 107H208.165L206.9 102.454C206.376 102.659 205.066 103.354 202.97 104.539C201.625 105.405 200.133 106.556 198.492 107.991L196.544 103.855C196.157 103.035 195.598 101.884 194.869 100.403L193.023 107H183.111C184.57 101.372 186.826 92.0863 189.879 79.1436C191.747 70.4847 193.308 62.2702 194.562 54.5H215.104C215.742 58.0775 217.485 66.4059 220.333 79.4854C221.905 86.3213 224.081 95.4928 226.861 107ZM205.294 95.7891C204.907 94.5814 204.223 92.6217 203.243 89.9102C202.651 88.4062 201.751 86.3327 200.543 83.6895C200.019 85.0111 199.199 87.1758 198.082 90.1836C197.467 91.9154 196.738 94.2738 195.895 97.2588C196.578 97.2588 198.128 97.1221 200.543 96.8486C202.001 96.6436 203.585 96.2904 205.294 95.7891Z" fill="white"/>
<g clip-path="url(#clip0_35_417)">
<path d="M76.3679 220.8L78.6814 225.857C78.6814 225.857 60.6019 220.286 67.6281 197.229L70.2843 199.714C70.2843 199.714 65.6573 190.2 77.5675 173.314C77.5675 173.314 74.3972 150 89.8205 143.829C89.8205 143.829 96.4182 142.971 98.8174 147C83.2227 152.829 85.1078 159.343 85.1078 159.343C93.8477 159.857 87.5927 176.829 85.879 179.057C84.1653 181.286 81.8518 180.943 83.3941 176.914C84.9364 172.886 84.1653 173.057 84.1653 173.057C80.1381 173.914 77.5675 180.343 77.3962 180.686C79.7097 177 80.9949 178.8 80.9949 178.8C70.0273 198.686 73.1119 211.629 77.3962 218.829C81.5947 225.857 88.7066 225.771 89.0493 225.771C89.8205 226.457 90.6773 227.057 91.6199 227.743H88.9636L91.8769 232.629C91.3628 232.371 78.6814 225.771 76.3679 220.8Z" fill="#EFFFFC"/>
<path d="M104.558 191.057C104.644 191.657 104.901 192.171 105.672 192.514C97.8748 190.886 96.2468 184.457 96.2468 184.457C105.329 181.886 114.498 183.429 118.782 184.457C115.612 184.029 111.327 184.8 105.672 188.829C104.987 189.343 104.473 190.2 104.558 191.057Z" fill="#54BFD1"/>
<path d="M178.419 158.486C177.305 153.257 136.519 152.486 136.519 152.486C130.521 153 126.151 153.514 126.151 153.514C126.151 153.514 123.58 152.4 138.061 145.114C139.775 144.257 141.746 143.314 143.973 142.286C136.69 142.886 117.754 147.086 115.098 149.829C114.326 150.6 113.298 151.2 112.27 151.628C112.27 151.628 114.755 151.457 115.355 152.057C115.954 152.657 102.245 155.657 99.5886 165.771C99.5886 165.771 99.5029 167.486 103.016 166.8C106.529 166.2 101.217 168.943 102.93 169.628C104.644 170.228 105.244 170.486 104.044 172.028C106.529 171.943 109.014 172.629 110.642 175.114C110.642 175.114 129.064 169.2 141.317 179.057C141.317 179.057 143.031 181.028 139.004 183.171L141.746 185.829C141.746 185.829 148.343 183.6 151.599 185.829C151.599 185.829 153.913 184.114 157.426 182.314C158.283 179.228 149.114 181.628 145.43 182.743C145.002 182.828 144.745 182.4 145.087 182.143C148.772 179.314 157.426 177.171 157.426 176.571C157.426 175.971 151.514 176.743 151.514 176.057C151.514 175.286 159.14 173.914 159.14 173.914C156.912 173.486 154.513 172.543 151.771 170.829C151.085 170.4 150.485 169.971 149.8 169.457C149.8 169.457 143.888 162.171 162.824 157.543C164.452 157.114 166.251 156.771 168.222 156.429C168.222 156.429 165.48 165.086 173.192 164.143C172.078 161.914 174.22 161.743 174.22 161.743C179.361 160.114 178.419 158.486 178.419 158.486ZM143.117 158.743C139.346 161.143 129.493 167.057 122.466 166.371C121.781 166.286 121.524 165.6 121.867 165.086C123.495 162.857 128.636 157.971 142.774 157.8C143.288 157.629 143.545 158.4 143.117 158.743Z" fill="#54BFD1"/>
<path d="M226.231 159.857C226.574 161.229 218.948 169.971 217.32 165.257C217.32 165.257 217.406 163.286 215.178 164.914C212.95 166.629 205.324 170.229 202.582 166.629C202.582 166.629 201.297 165.429 204.381 163.971C204.381 163.971 204.81 163.2 203.353 163.371C201.897 163.543 185.102 166.886 185.702 161.743C185.702 161.743 181.761 162.086 178.505 164.486C175.248 166.886 159.311 174.857 151.856 170.657C151.171 170.229 150.571 169.8 149.886 169.286C149.886 169.286 143.973 162 162.91 157.371L162.996 157.629C162.996 157.629 158.112 161.571 161.025 164.486C163.938 167.4 169.336 165.943 175.934 163.286C175.934 163.286 175.934 163.286 176.02 163.286C185.616 160.371 188.273 153.343 182.018 152.829C175.591 152.229 171.478 153.943 169.765 151.457C169.765 151.457 173.192 151.8 173.192 150C173.192 148.2 166.851 143.314 135.234 150.771C135.234 150.771 130.864 151.8 138.233 145.114C139.946 144.257 141.917 143.314 144.145 142.286C144.145 142.286 141.232 140.571 139.518 140.571C139.518 140.571 145.087 137.486 145.944 136.886C146.801 136.286 146.201 134.657 142.774 134.914C142.774 134.914 158.711 123.257 171.136 124.457C171.221 124.714 174.392 132.6 156.826 133.029C156.826 133.029 154.684 139.029 152.114 140.486C152.114 140.486 161.882 137.143 169.508 137.571C177.134 138 180.218 134.229 180.218 134.229C186.902 134.743 197.612 135.429 200.526 134.914C200.526 134.914 195.556 132.343 208.066 132.343L209.437 133.029C204.296 137.4 199.069 140.057 195.813 141.514C192.985 142.714 191.871 146.143 193.671 148.543C196.241 152.057 201.297 152.829 201.297 152.829C202.582 156.171 207.209 156 207.552 156C208.494 156.257 209.608 156.171 210.893 155.743C221.004 152.057 222.547 150.086 220.747 149.571C219.719 149.229 225.974 147.943 230.858 148.629C230.858 148.629 224.689 150.257 224.689 152.057C224.689 153.857 224.946 156.171 224.003 157.286C223.061 158.486 220.919 160.371 221.69 160.886C222.461 161.4 225.888 158.486 226.231 159.857Z" fill="#EFFFFC"/>
<path d="M175.934 163.371C175.677 163.457 175.42 163.543 175.248 163.628C174.477 163.8 173.792 163.971 173.192 164.057C172.078 161.828 174.22 161.657 174.22 161.657C179.361 160.2 178.504 158.486 178.504 158.486C177.391 153.257 136.604 152.486 136.604 152.486C149.114 151.371 168.565 149.828 169.765 151.543C171.478 154.114 175.591 152.4 182.018 152.914C188.187 153.428 185.616 160.457 175.934 163.371Z" fill="#3A91A5"/>
<path d="M173.106 150C173.106 151.8 169.679 151.457 169.679 151.457C168.479 149.743 149.029 151.286 136.519 152.4C130.521 152.914 126.151 153.429 126.151 153.429C126.151 153.429 123.58 152.314 138.061 145.029C130.692 151.714 135.062 150.686 135.062 150.686C166.766 143.314 173.106 148.2 173.106 150Z" fill="#BFF6FE"/>
<path d="M175.934 163.371C169.336 166.028 163.938 167.486 161.025 164.571C158.111 161.657 162.995 157.714 162.995 157.714L162.91 157.457C164.538 157.028 166.337 156.686 168.308 156.343C168.308 156.343 165.566 165 173.278 164.057C173.877 163.971 174.563 163.8 175.334 163.628C175.505 163.543 175.677 163.457 175.934 163.371Z" fill="#BFF6FE"/>
<path d="M207.466 156C207.123 156 202.41 156.257 201.211 152.829C201.211 152.829 196.155 152.057 193.585 148.543C191.786 146.143 192.899 142.714 195.727 141.514C198.983 140.057 204.21 137.4 209.351 133.029L210.893 133.8C210.893 133.8 211.75 136.629 207.123 137.743C203.01 138.686 201.211 154.286 207.466 156Z" fill="#BFF6FE"/>
<path d="M340.449 148.457C340.449 148.543 336.765 155.571 330.424 159.943L323.398 164.743C323.398 164.743 321.941 159.943 317.571 163.029C313.201 166.114 301.805 182.143 280.555 180.171C280.555 180.171 275.328 178.2 276.785 183C276.785 183 282.355 184.714 275.328 188.657C268.302 192.6 260.162 193.971 260.162 193.971C260.162 193.971 262.818 195.943 260.419 196.8C258.02 197.657 241.14 207.429 220.49 204.086C220.49 204.086 223.746 208.286 219.633 208.286C215.52 208.286 210.893 206.057 208.837 206.571C206.78 207.171 199.754 203.743 200.954 202.629C202.153 201.514 208.494 205.457 208.237 203.229C207.98 201 200.097 200.743 194.27 197.057C188.444 193.371 179.104 196.2 179.104 196.2C179.104 196.2 175.934 193.114 179.961 192.257C184.074 191.4 174.734 189.429 159.825 194.829C159.825 194.829 163.252 197.914 153.313 197.914C143.374 197.914 118.096 193.114 118.696 191.486C119.21 190.029 121.952 188.743 124.437 188.486C124.866 188.4 125.037 187.971 124.78 187.629C124.094 186.943 122.98 185.914 121.267 185.229C121.267 185.229 121.267 185.229 121.181 185.229C120.496 184.971 119.81 184.714 118.953 184.629C118.953 184.629 118.953 184.629 118.868 184.629C114.669 183.686 105.415 182.143 96.3325 184.629C89.3063 186.6 82.3658 190.971 77.9102 199.971C75.4253 204.943 75.8538 210.943 79.1955 215.486C79.2812 215.571 79.2812 215.571 79.3668 215.657C79.3668 215.657 78.51 208.371 81.6803 207C81.6803 207 80.8235 214.886 84.3366 217.629C84.3366 217.629 84.765 222.086 89.0492 225.943C88.7922 225.943 81.5946 226.029 77.3961 219C73.1118 211.886 70.0272 198.857 80.9949 178.971C80.9949 178.971 79.7096 177.171 77.3961 180.857C77.5675 180.429 80.138 174 84.1652 173.229C84.1652 173.229 84.9364 173.143 83.394 177.086C81.8517 181.114 84.1652 181.371 85.8789 179.229C87.6783 177 93.8476 160.029 85.1077 159.514C85.1077 159.514 83.2227 153 98.8173 147.171C99.0744 147.6 99.3314 148.2 99.5028 148.8C99.5028 148.8 103.616 143.143 106.786 145.714C109.956 148.286 106.786 153 106.786 153C106.786 153 103.701 158.914 98.8173 158.657L93.9333 163.971H97.1036C97.1036 163.971 89.8204 174.943 92.4766 175.2C94.1903 175.371 99.4171 172.286 104.215 172.114C106.7 172.029 109.185 172.714 110.813 175.2C110.813 175.2 129.235 169.286 141.488 179.143C141.488 179.143 143.202 181.114 139.175 183.257L141.917 185.914C141.917 185.914 148.515 183.686 151.771 185.914C151.771 185.914 154.084 184.2 157.597 182.4C164.88 178.714 177.39 174.686 185.873 184.543C185.873 184.543 186.045 186.086 190.072 185.914C194.185 185.743 191.957 188.143 190.072 188.486C188.187 188.743 187.587 190.714 191.528 191.743C195.47 192.686 197.098 192.429 201.125 194.314C204.038 195.6 213.721 194.229 219.205 193.286C221.518 192.857 223.746 192.171 225.888 191.143C232.486 187.971 248.766 180.771 258.02 181.371C258.02 181.371 260.676 182.229 251.165 185.314C241.654 188.4 240.969 194.743 242.682 195.943C244.482 197.229 259.648 194.4 268.217 184.114C268.217 184.114 269.245 182.829 265.475 183.857C261.704 184.8 259.477 183.257 262.561 181.286C265.646 179.314 274.814 173.143 276.956 168.086C276.956 168.086 279.87 163.2 285.868 165.257C285.868 165.257 287.581 165.429 284.839 167.829C282.097 170.229 292.979 167.657 292.979 167.657C292.979 167.657 308.403 162.343 309.003 151.543C309.003 151.543 307.974 145.543 310.031 142.457C310.031 142.457 304.204 144.257 306.518 140.314C308.831 136.371 313.458 128.486 313.458 125.657C313.63 126 313.715 126.514 313.801 127.2C314.401 133.457 312.173 139.029 312.087 139.286C312.259 139.2 314.658 137.829 316.457 137.229C317.914 136.8 319.028 136.8 318.514 138.171C317.314 141.514 310.888 146.571 312.944 147.171C315.001 147.771 325.454 148.286 331.281 144.686C337.107 141 329.824 149.143 329.824 149.143C329.824 149.143 333.766 148.886 333.508 150.257C333.508 150.257 339.421 150.514 340.278 148.886C340.363 148.543 340.449 148.457 340.449 148.457Z" fill="#BFF6FE"/>
<path d="M303.604 147.343C300.691 160.886 285.525 159.343 285.525 159.343C286.382 154.886 281.755 156.171 281.755 156.171C266.76 162.171 250.394 161.914 242.083 158.657C238.57 157.286 236.513 155.4 236.599 153.257C236.684 150.429 234.114 149.143 231.029 148.714C226.06 147.943 219.805 149.314 220.918 149.657C222.718 150.257 221.175 152.143 211.065 155.829C209.694 156.343 208.58 156.343 207.723 156.086C201.468 154.371 203.267 138.771 207.295 137.829C211.922 136.714 211.065 133.886 211.065 133.886C211.065 133.886 215.52 132.429 219.89 131.657C219.89 131.657 225.974 132.943 225.974 134.914C225.974 136.886 216.634 132.6 209.522 143.057C202.41 153.429 238.827 140.143 243.625 143.743C248.423 147.429 236.342 142.2 237.97 151.286C239.598 160.286 262.133 152.571 262.733 152.4C262.561 152.657 260.419 156 265.046 154.371C269.673 152.743 285.782 145.2 286.982 144.6C282.697 147.771 280.041 150.857 280.469 151.286C281.326 152.143 295.036 148.457 295.893 147.429C296.75 146.4 300.605 145.2 300.863 145.114C297.778 148.971 303.604 147.343 303.604 147.343Z" fill="#3A91A5"/>
<path d="M310.031 142.2C307.974 145.286 309.003 151.286 309.003 151.286C308.403 162.086 292.98 167.4 292.98 167.4C292.98 167.4 282.012 169.886 284.839 167.571C287.581 165.171 285.868 165 285.868 165C279.87 162.857 276.956 167.829 276.956 167.829C274.729 172.886 265.56 179.057 262.561 181.029C259.477 183 261.704 184.543 265.475 183.6C269.245 182.657 268.217 183.857 268.217 183.857C259.648 194.143 244.482 196.886 242.682 195.686C240.969 194.4 241.654 188.143 251.165 185.057C260.676 181.971 258.02 181.114 258.02 181.114C248.766 180.6 232.486 187.8 225.888 190.886C223.746 191.914 221.518 192.6 219.205 193.029C213.721 193.971 204.039 195.343 201.125 194.057C197.012 192.257 195.47 192.514 191.529 191.486C187.587 190.543 188.187 188.571 190.072 188.229C191.957 187.971 194.185 185.571 190.072 185.657C185.959 185.829 185.873 184.286 185.873 184.286C185.873 184.286 198.298 182.743 207.98 178.371C207.98 178.371 204.895 181.457 207.98 183C211.15 184.543 218.605 184.8 218.605 184.8C218.605 184.8 221.004 185.657 213.978 187.543C213.978 187.543 211.322 188.057 212.864 188.657C213.892 189.086 229.059 188.914 235.913 180.171C235.913 180.171 237.456 178.971 223.575 179.571C229.401 178.8 235.314 177 234.114 172.629C233.943 171.857 233.343 171.343 232.657 171.086C233.257 171.171 238.227 171.686 238.655 168.171C239.084 164.486 237.199 160.457 242.254 158.486C250.565 161.743 266.931 162 281.926 156C281.926 156 286.639 154.714 285.696 159.171C285.696 159.171 300.863 160.714 303.776 147.171C303.776 147.171 297.949 148.8 300.863 144.857C300.605 144.943 296.75 146.143 295.893 147.171C295.036 148.2 281.326 151.886 280.47 151.029C280.041 150.6 282.697 147.514 286.982 144.343C286.982 144.343 286.982 144.343 287.067 144.343C290.923 141.514 296.15 138.6 301.462 137.571C301.462 137.571 304.376 136.971 306.175 133.629C307.46 131.229 310.631 125.486 312.516 124.8C312.944 124.629 313.373 124.8 313.63 125.314C313.715 128.057 309.003 136.029 306.689 139.971C304.204 144.086 310.031 142.2 310.031 142.2Z" fill="#EFFFFC"/>
<path d="M320.484 73.4571C323.398 80.7428 318.171 78.7714 318.171 78.7714C312.944 66.4285 302.148 63.3428 302.148 63.3428C300.605 63 299.149 62.8285 297.864 62.7428C285.953 61.9714 285.182 70.6285 285.182 70.6285C278.756 67.5428 272.329 72.6 271.901 68.6571C271.473 64.7142 286.639 61.8857 288.352 60.5142C290.066 59.1428 284.839 60.2571 282.526 59.4C280.212 58.5428 283.983 56.9142 283.983 56.9142C276.699 55.5428 268.474 64.8 266.16 65.5714C263.847 66.4285 266.16 61.1142 266.16 61.1142C263.59 62.5714 261.79 64.0285 260.676 65.5714C260.162 66.2571 259.819 66.9428 259.477 67.6285C256.735 74.5714 266.074 80.8285 266.074 80.8285C276.014 83.0571 279.184 86.8285 279.184 86.8285C278.327 87.2571 274.214 86.8285 274.214 86.8285C280.384 92.0571 289.638 89.2285 289.638 85.0285C289.638 80.8285 284.411 81.9428 284.411 81.9428C284.839 80.5714 286.467 79.6285 287.753 79.0285C289.038 78.4285 290.58 78.4285 291.866 78.9428C303.776 83.9142 293.665 95.4 293.665 95.4C293.665 95.4 293.922 100.457 290.409 104.057C288.181 106.371 287.838 107.914 287.924 108.771C287.924 109.114 288.267 109.457 288.695 109.457H293.665C293.494 110.829 292.637 112.029 291.608 112.886C291.608 112.886 294.436 120.6 309.431 94.3714C309.431 94.3714 311.316 91.2857 310.888 96.5142C310.459 101.743 309.431 111.857 300.263 119.571C300.263 119.571 297.178 124.457 307.46 116.4C317.742 108.429 307.803 118.714 307.803 119.229C307.803 119.743 308.917 123.429 321.941 106.2C321.941 106.2 322.284 105.257 318.771 108C317.914 108.686 316.286 109.971 315.857 108.429C315.258 106.286 317.4 103.8 317.999 101.743C318.599 99.6 319.028 97.4571 319.456 95.2285C319.627 94.2857 319.627 90.9428 320.656 90.4285C321.513 90 321.084 92.6571 321.084 92.6571C321.084 92.6571 322.541 95.3142 324.769 84.5142C324.769 84.5142 325.197 80.7428 327.425 83.0571C329.653 85.3714 331.452 92.5714 331.452 92.5714C333.251 78.9428 320.484 73.4571 320.484 73.4571Z" fill="#3A91A5"/>
<path d="M293.922 95.4C293.922 95.4 287.838 102.429 281.069 100.2C285.439 98.3143 287.153 96.3428 287.924 94.7142C288.695 93.1714 283.811 93.1714 283.04 94.6285C282.269 96.0857 285.353 95.8285 285.353 95.8285C285.353 95.8285 282.612 97.8857 280.469 98.4C278.242 98.9143 279.613 96.5142 279.613 96.5142C274.814 97.8 269.759 95.8285 269.759 95.8285C269.673 98.4 274.643 100.714 274.643 100.714C265.132 105.257 255.021 88.8 262.047 88.2857C269.073 87.7714 266.074 86.7428 266.074 86.7428C266.074 86.7428 256.992 89.0571 250.308 80.3142C243.625 71.5714 249.623 65.6571 249.623 65.6571C249.194 82.1142 261.704 81.4285 261.704 81.4285C253.307 73.3714 259.648 67.7142 259.648 67.7142C256.906 74.6571 266.246 80.9143 266.246 80.9143C276.185 83.1428 279.356 86.9142 279.356 86.9142C278.499 87.3428 274.386 86.9142 274.386 86.9142C280.555 92.1428 289.809 89.3143 289.809 85.1143C289.809 80.9143 284.582 82.0285 284.582 82.0285C285.011 80.6571 286.639 79.7142 287.924 79.1142C289.209 78.5142 290.752 78.5142 292.037 79.0285C304.033 83.9142 293.922 95.4 293.922 95.4Z" fill="#BFF6FE"/>
<path d="M378.836 88.8857C378.836 88.8857 377.208 89.3143 377.122 86.4857C377.122 86.4857 374.98 87.3428 376.18 94.2C377.379 101.057 367.183 110.4 363.841 110.914C360.414 111.429 363.327 112.371 363.584 113.743C364.098 116.057 364.269 126.771 351.245 132.086C356.215 126.857 358.1 123.257 358.357 120.857C358.957 116.4 354.416 115.629 354.416 115.629C355.615 111.686 364.012 108.257 364.012 108.257C376.865 80.6571 355.015 81.3428 355.015 81.3428C355.015 73.8 348.846 69.2571 348.846 69.2571C348.846 69.2571 340.278 58.2 340.535 64.5428C340.706 70.9714 337.964 73.8857 337.964 73.8857C337.964 73.8857 336.507 75.6 335.051 72.4286C333.594 69.2571 330.509 69.5143 331.795 70.9714C333.166 72.3428 333.337 81.8571 333.337 81.8571C333.337 81.8571 334.194 88.5428 335.393 83.4857C336.593 78.4286 337.536 79.8 337.536 79.8C344.476 95.7428 330.938 107.571 330.509 107.914C329.824 108.086 329.224 108.171 328.71 108.171C325.711 108.171 327.253 104.571 327.253 104.571C329.995 99.9428 331.366 95.9143 331.709 92.4C333.251 78.8571 320.484 73.3714 320.484 73.3714C323.398 80.6571 318.171 78.6857 318.171 78.6857C312.944 66.3428 302.148 63.2571 302.148 63.2571C300.605 62.9143 299.149 62.7428 297.863 62.6571C293.922 60.9428 288.095 62.5714 288.095 62.5714C293.665 58.4571 302.49 60.1714 302.49 60.1714C295.807 51.5143 284.839 52.0285 284.839 52.0285C262.647 54.1714 260.676 65.4 260.676 65.4C260.162 66.0857 259.819 66.7714 259.477 67.4571C259.477 67.4571 253.136 73.1143 261.533 81.1714C261.533 81.1714 249.023 81.8571 249.451 65.4C249.451 65.4 243.539 71.4 250.137 80.0571C256.82 88.8 265.903 86.4857 265.903 86.4857C265.903 86.4857 268.816 87.5143 261.876 88.0285C254.85 88.5428 264.96 105 274.471 100.457C274.471 100.457 269.416 98.2285 269.587 95.5714C269.587 95.5714 274.643 97.5428 279.441 96.2571C279.441 96.2571 278.156 98.6571 280.298 98.1428C282.44 97.6285 285.182 95.5714 285.182 95.5714C285.182 95.5714 282.097 95.8285 282.869 94.3714C283.64 92.9143 288.524 92.9143 287.753 94.4571C286.981 96 285.268 98.0571 280.898 99.9428C280.898 99.9428 265.218 109.543 257.592 93.5143C257.592 93.5143 230.772 87.0857 231.886 68.8285C233.086 50.5714 250.565 51.1714 250.565 51.1714C250.565 51.1714 254.678 51 253.65 52.0285C252.622 53.0571 249.366 54.5143 249.366 56.6571C249.366 58.8 255.792 51.6 262.219 51.1714C262.219 51.1714 262.39 50.3143 257.249 51.1714C257.249 51.1714 254.336 49.2 260.505 46.5428C260.505 46.5428 262.561 44.4 255.021 46.1143C262.818 38.4 280.384 25.2857 305.918 31.5428C305.918 31.5428 317.742 37.8857 321.341 44.7428C325.026 51.6 330.509 55.5428 330.509 55.5428C330.509 55.5428 327.425 48.2571 334.451 46.8C341.477 45.4285 346.875 56.6571 346.875 56.6571C346.875 56.6571 346.875 61.4571 350.817 63.2571C350.817 63.2571 351.16 60.1714 357.415 60.7714C363.927 61.5428 387.918 73.1143 378.836 88.8857Z" fill="#EFFFFC"/>
<path d="M288.095 62.6571C288.095 62.6571 293.836 61.0285 297.864 62.7428C285.953 61.9714 285.182 70.6285 285.182 70.6285C278.756 67.5428 272.329 72.6 271.901 68.6571C271.473 64.7142 286.639 61.8857 288.353 60.5142C290.066 59.1428 284.839 60.2571 282.526 59.4C280.212 58.5428 283.983 56.9142 283.983 56.9142C276.699 55.5428 268.474 64.8 266.16 65.5714C263.847 66.4285 266.16 61.1142 266.16 61.1142C263.59 62.5714 261.79 64.0285 260.676 65.5714C260.676 65.5714 262.647 54.2571 284.839 52.2C284.839 52.2 295.807 51.6 302.491 60.3428C302.576 60.2571 293.665 58.6285 288.095 62.6571Z" fill="#BFF6FE"/>
<path d="M390.489 79.9714C394.602 106.457 386.119 107.229 386.119 107.229C387.576 102.171 386.119 97.8 386.119 97.8C384.405 105.514 373.609 114.514 372.238 114.514C371.039 114.514 374.209 110.486 374.98 109.629C373.438 111.171 370.696 110.914 370.696 110.914C369.496 117.343 356.129 136.714 350.56 138.429C344.99 140.143 348.246 135.086 348.246 135.086C349.36 134.057 350.303 133.114 351.16 132.171C364.184 126.943 364.098 116.143 363.498 113.829C363.156 112.457 360.328 111.514 363.755 111C367.183 110.486 377.294 101.143 376.094 94.2857C374.894 87.4286 377.037 86.5714 377.037 86.5714C377.122 89.4 378.75 88.9714 378.75 88.9714C387.833 73.2 363.841 61.6286 357.672 60.9428C351.417 60.3428 351.074 63.4286 351.074 63.4286C347.132 61.6286 347.132 56.8286 347.132 56.8286C347.132 56.8286 341.734 45.6 334.708 46.9714C327.682 48.3428 330.767 55.7143 330.767 55.7143C330.767 55.7143 325.197 51.7714 321.598 44.9143C317.914 38.0571 306.175 31.7143 306.175 31.7143C306.175 31.7143 317.228 27.5143 323.998 33.4286C323.998 33.4286 340.363 30.3428 344.391 37.3714C344.391 37.3714 351.674 39.3428 347.904 47.7428C347.904 47.7428 346.447 45.7714 344.99 45.7714C343.534 45.7714 343.534 45.7714 343.534 45.7714C343.534 45.7714 345.59 47.7428 345.847 51.4286C345.847 51.4286 367.354 50.3143 372.152 63.2571C372.152 63.2571 388.947 63.5143 392.46 78.1714C392.288 79.8857 390.489 79.9714 390.489 79.9714Z" fill="#BFF6FE"/>
<path d="M390.232 123.429C369.153 155.057 330.424 159.943 330.424 159.943C336.765 155.657 340.449 148.543 340.449 148.457C340.449 148.457 340.363 148.543 340.363 148.714C339.506 150.429 333.594 150.086 333.594 150.086C333.851 148.714 329.91 148.971 329.91 148.971C329.91 148.971 337.193 140.829 331.366 144.514C325.54 148.2 315.001 147.6 313.03 147C310.973 146.4 317.4 141.429 318.599 138C318.599 138 328.967 132.514 330.595 128.914C330.595 128.829 330.681 128.914 330.681 128.914C330.681 129.429 331.109 130.543 331.88 130.286C332.909 129.943 342.334 118.371 343.962 115.029C343.791 115.457 340.449 124.886 352.016 111.343C352.016 111.343 355.53 111.086 344.99 127.8C344.99 127.8 341.82 132.257 344.219 133.971C346.704 135.686 355.015 127.114 358.357 120.771C358.014 123.257 356.215 126.857 351.245 132C350.388 132.943 349.36 133.886 348.332 134.914C348.332 134.914 345.076 139.971 350.645 138.257C356.215 136.543 369.582 117.171 370.781 110.743C370.781 110.743 373.523 111 375.066 109.457C374.38 110.314 371.124 114.343 372.324 114.343C373.695 114.343 384.491 105.257 386.205 97.6286C386.205 97.6286 387.661 102 386.205 107.057C386.205 107.057 394.688 106.286 390.575 79.8C390.575 79.8 392.288 79.7143 392.631 77.8286C392.545 78 410.796 92.5714 390.232 123.429Z" fill="#3A91A5"/>
<path d="M363.927 108.257C376.78 80.6571 354.93 81.3428 354.93 81.3428L354.416 83.4C353.645 82.8857 351.674 84.7714 350.817 87.2571C349.96 89.7428 348.932 88.3714 348.932 88.3714C348.932 97.1143 348.503 107.143 334.194 110.486C320.142 113.829 328.282 108.343 328.625 108.171C325.626 108.171 327.168 104.571 327.168 104.571C329.91 99.9428 331.281 95.9143 331.624 92.4C331.624 92.4 329.738 85.2 327.596 82.8857C325.369 80.5714 324.94 84.3428 324.94 84.3428C322.712 95.2286 321.341 92.5714 321.341 92.5714C321.341 92.5714 321.77 89.9143 320.913 90.3428C319.885 90.8571 319.885 94.2 319.713 95.1428C319.285 97.2857 318.856 99.5143 318.257 101.657C317.743 103.714 315.6 106.2 316.115 108.343C316.543 109.886 318.171 108.6 319.028 107.914C322.541 105.171 322.198 106.114 322.198 106.114C309.174 123.343 308.06 119.657 308.06 119.143C308.06 118.629 318 108.343 307.717 116.314C297.435 124.286 300.52 119.486 300.52 119.486C309.688 111.771 310.716 101.743 311.145 96.4286C311.573 91.2 309.688 94.2857 309.688 94.2857C294.693 120.514 291.866 112.8 291.866 112.8C289.724 114.771 286.639 115.8 286.639 115.8C286.639 115.8 285.182 115.543 260.676 126.429C236.17 137.4 227.688 132.343 227.688 132.343C227.002 130.629 223.318 130.8 219.548 131.486C219.548 131.486 225.631 132.771 225.631 134.743C225.631 136.714 216.292 132.429 209.18 142.886C202.068 153.257 238.484 139.971 243.282 143.571C248.081 147.257 235.999 142.029 237.627 151.114C239.255 160.114 261.79 152.4 262.39 152.229C262.219 152.486 260.077 155.829 264.704 154.2C269.331 152.571 285.439 145.029 286.639 144.429C286.639 144.429 286.639 144.429 286.725 144.429C290.58 141.6 295.807 138.686 301.12 137.657C301.12 137.657 304.033 137.057 305.832 133.714C307.118 131.314 310.288 125.571 312.173 124.886C312.344 124.629 316.029 120.086 316.286 126.086C316.543 132.086 316.286 136.629 316.286 136.886C317.743 136.457 318.856 136.457 318.342 137.829C318.342 137.829 328.71 132.343 330.338 128.743C330.338 128.657 330.424 128.743 330.424 128.743C330.424 129.257 330.852 130.371 331.624 130.114C332.652 129.771 342.077 118.2 343.705 114.857C343.534 115.286 340.192 124.714 351.76 111.171C351.76 111.171 355.273 110.914 344.733 127.629C344.733 127.629 341.563 132.086 343.962 133.8C346.447 135.514 354.758 126.943 358.1 120.6C358.7 116.143 354.159 115.371 354.159 115.371C355.53 111.686 363.927 108.257 363.927 108.257ZM271.901 133.371C271.815 134.229 274.129 133.886 278.756 132.343C283.126 130.886 263.418 141 253.65 141.171C253.136 141.171 252.965 140.486 253.393 140.229C259.22 136.629 282.012 122.571 281.669 123.686C281.241 124.971 272.072 132.514 271.901 133.371ZM353.559 102.171C353.559 102.171 356.301 94.7143 355.958 90.9428C355.615 87.1714 361.014 91.2 360.928 100.543C360.928 100.543 358.529 98.1428 357.243 99.1714C355.958 100.114 356.387 101.314 353.559 102.171Z" fill="#54BFD1"/>
<path d="M105.758 193.2C100.36 194.829 83.0514 201.343 84.251 217.457C80.738 214.629 81.5948 206.829 81.5948 206.829C78.4245 208.2 79.2813 215.486 79.2813 215.486C79.1956 215.4 79.1956 215.4 79.1099 215.314C75.8539 210.771 75.3398 204.771 77.8247 199.8C82.2803 190.886 89.2208 186.429 96.2469 184.457C96.2469 184.457 97.8749 190.886 105.672 192.514C106.015 192.686 106.015 193.114 105.758 193.2Z" fill="#3A91A5"/>
<path d="M99.6742 165.771C99.6742 165.771 99.5886 167.486 103.102 166.8C106.615 166.2 101.302 168.943 103.016 169.629C104.73 170.229 105.329 170.486 104.13 172.029C99.3315 172.2 94.1047 175.286 92.391 175.114C89.7348 174.857 97.018 163.886 97.018 163.886H93.8477L98.7317 158.571C103.616 158.829 106.7 152.914 106.7 152.914C106.7 152.914 109.699 152.743 112.356 151.629C112.356 151.629 114.84 151.457 115.44 152.057C116.04 152.657 102.33 155.657 99.6742 165.771Z" fill="#3A91A5"/>
<path d="M238.484 168.257C238.056 171.686 233.086 171.171 232.486 171.171C232.143 171 231.715 171 231.372 171C227.859 171.171 220.233 171.6 218.434 172.029C216.12 172.629 196.841 175.714 197.698 166.714C197.698 166.714 189.815 165.857 184.245 169.371C178.676 172.886 171.136 171.171 171.136 171.171C171.136 171.171 166.594 175.371 159.14 173.829C156.912 173.4 154.513 172.457 151.771 170.743C159.311 174.943 175.163 166.886 178.419 164.571C181.675 162.171 185.616 161.829 185.616 161.829C185.017 166.971 201.811 163.543 203.267 163.457C204.724 163.286 204.296 164.057 204.296 164.057C201.125 165.514 202.496 166.714 202.496 166.714C205.238 170.314 212.95 166.629 215.092 165C217.32 163.371 217.234 165.343 217.234 165.343C218.862 170.057 226.488 161.314 226.145 159.943C225.803 158.571 222.375 161.486 221.69 160.971C221.004 160.457 223.061 158.571 224.003 157.371C224.946 156.171 224.689 153.943 224.689 152.143C224.689 150.343 230.858 148.714 230.858 148.714C233.943 149.143 236.599 150.429 236.428 153.257C236.342 155.4 238.398 157.371 241.911 158.657C236.942 160.543 238.912 164.657 238.484 168.257Z" fill="#BFF6FE"/>
<path d="M354.93 81.3428L354.416 83.4C353.645 82.8857 351.674 84.7714 350.817 87.2571C349.96 89.7428 348.932 88.3714 348.932 88.3714C348.932 97.1142 348.503 107.143 334.194 110.486C320.142 113.829 328.282 108.343 328.625 108.171C329.053 108.171 329.653 108.086 330.424 107.914C330.852 107.829 331.281 107.657 331.795 107.4C338.821 104.571 350.817 96.7714 343.191 85.2C343.191 85.2 348.76 74.2285 348.76 69.1714C348.76 69.2571 354.93 73.7142 354.93 81.3428Z" fill="#3A91A5"/>
<path d="M316.457 137.057C314.658 137.657 312.259 139.028 312.087 139.114C312.173 138.857 314.401 133.371 313.801 127.028C313.715 126.343 313.63 125.828 313.458 125.486C313.201 124.971 312.773 124.8 312.344 124.971C312.516 124.714 316.2 120.171 316.457 126.171C316.714 132.257 316.457 136.8 316.457 137.057Z" fill="#3A91A5"/>
<path d="M360.928 100.457C360.928 100.457 358.529 98.0571 357.243 99.0857C355.958 100.114 356.386 101.314 353.559 102.171C353.559 102.171 356.301 94.7143 355.958 90.9428C355.615 87.0857 361.099 91.1143 360.928 100.457Z" fill="#3A91A5"/>
<path d="M271.901 133.371C271.815 134.228 274.129 133.886 278.756 132.343C283.126 130.886 263.418 141 253.65 141.171C253.136 141.171 252.965 140.486 253.393 140.228C259.22 136.628 282.012 122.571 281.669 123.686C281.241 124.971 272.072 132.514 271.901 133.371Z" fill="#3A91A5"/>
<path d="M143.117 158.743C139.346 161.143 129.493 167.057 122.467 166.371C121.781 166.286 121.524 165.6 121.867 165.086C123.495 162.857 128.636 157.971 142.774 157.8C143.288 157.629 143.545 158.4 143.117 158.743Z" fill="#3A91A5"/>
<path d="M223.489 179.657C223.489 179.657 223.403 179.657 223.489 179.657C219.376 180.171 215.349 180.171 213.807 180.171C209.694 180.171 211.15 176.828 211.15 176.828C210.122 177.428 209.008 177.943 207.894 178.457C198.212 182.828 185.788 184.371 185.788 184.371C177.305 174.514 164.795 178.543 157.512 182.229C158.368 179.143 149.2 181.543 145.516 182.657C145.087 182.743 144.83 182.314 145.173 182.057C148.857 179.228 157.512 177.086 157.512 176.486C157.512 175.886 151.599 176.657 151.599 175.971C151.599 175.2 159.225 173.828 159.225 173.828C166.68 175.371 171.221 171.171 171.221 171.171C171.221 171.171 178.761 172.886 184.331 169.371C189.901 165.857 197.784 166.714 197.784 166.714C196.927 175.714 216.12 172.628 218.519 172.028C220.319 171.6 227.945 171.171 231.458 171C231.886 171 232.229 171 232.572 171.171C233.257 171.428 233.857 172.028 234.028 172.714C235.228 177.086 229.316 178.886 223.489 179.657Z" fill="#3A91A5"/>
<path d="M235.742 180.171C228.887 188.914 213.635 189.086 212.693 188.657C211.236 188.057 213.807 187.543 213.807 187.543C220.833 185.657 218.434 184.8 218.434 184.8C218.434 184.8 210.893 184.543 207.809 183C204.724 181.457 207.809 178.371 207.809 178.371C208.923 177.857 210.037 177.343 211.065 176.743C211.065 176.743 209.608 180.086 213.721 180.086C215.263 180.086 219.29 180.086 223.403 179.571C237.37 178.971 235.742 180.171 235.742 180.171Z" fill="#BFF6FE"/>
<path d="M179.961 134.314C179.961 134.314 176.876 138.086 169.25 137.657C161.625 137.229 151.856 140.571 151.856 140.571C154.427 139.114 156.569 133.114 156.569 133.114C174.135 132.686 171.05 124.8 170.879 124.543C174.135 124.8 177.134 126 179.533 128.571C179.533 128.571 174.306 131.057 174.306 133.886C174.392 133.8 176.705 134.057 179.961 134.314Z" fill="#BFF6FE"/>
<path d="M262.476 52.1143C256.049 52.5428 249.623 59.6571 249.623 57.6C249.623 55.4571 252.879 53.9143 253.907 52.9714C254.936 51.9428 250.823 52.1143 250.823 52.1143C250.823 52.1143 252.365 49.9714 255.278 47.0571C262.819 45.3428 260.762 47.4857 260.762 47.4857C254.593 50.1428 257.506 52.1143 257.506 52.1143C262.561 51.2571 262.476 52.1143 262.476 52.1143Z" fill="#BFF6FE"/>
<path d="M343.277 85.2857C350.903 96.7714 338.907 104.657 331.88 107.486C331.366 107.657 330.852 107.829 330.51 108C330.938 107.571 344.476 95.8286 337.536 79.8857C337.536 79.8857 336.593 78.5143 335.394 83.5714C334.194 88.6286 333.337 81.9428 333.337 81.9428C333.337 81.9428 333.166 72.4286 331.795 71.0571C330.424 69.6857 333.508 69.3428 335.051 72.5143C336.507 75.6857 337.964 73.9714 337.964 73.9714C337.964 73.9714 340.792 71.0571 340.535 64.6286C340.363 58.2857 348.846 69.3428 348.846 69.3428C348.76 74.3143 343.277 85.2857 343.277 85.2857Z" fill="#BFF6FE"/>
<path d="M137.547 135.086C136.262 136.886 133.434 138.771 131.378 140.057C129.407 140.4 126.494 140.743 124.266 140.229C124.266 140.229 125.637 137.314 129.75 137.314C133.863 137.314 130.949 133.8 136.519 134.914C136.947 134.914 137.29 135 137.547 135.086Z" fill="#EFFFFC"/>
<path d="M139.946 137.143C139.946 137.143 138.747 139.371 137.119 139.629C135.491 139.886 133.52 139.714 133.52 139.714C133.52 139.714 132.663 139.971 131.463 140.143C133.52 138.857 136.347 136.971 137.633 135.171C141.831 136.114 139.946 137.143 139.946 137.143Z" fill="#BFF6FE"/>
<path d="M99.9313 242.743C99.6742 243 99.2458 243.086 98.9887 242.829C98.0462 242.057 97.018 241.457 95.5613 240.686C94.7902 240.257 95.9898 237.171 97.5321 237.257C99.0744 237.343 100.617 239.057 100.617 239.057L100.36 242.143L99.9313 242.743Z" fill="#EFFFFC"/>
</g>
<defs>
<linearGradient id="paint0_linear_35_417" x1="6.25702" y1="-6.66406" x2="358.685" y2="69.716" gradientUnits="userSpaceOnUse">
<stop offset="0.0499999" stop-color="#1EA4F7"/>
<stop offset="0.89375" stop-color="#1B22BB"/>
</linearGradient>
<clipPath id="clip0_35_417">
<rect width="334" height="213" fill="white" transform="translate(66 30)"/>
</clipPath>
</defs>
</svg>
