<?xml version="1.0" encoding="utf-8"?>
<!-- Generator: Adobe Illustrator 25.0.0, SVG Export Plug-In . SVG Version: 6.00 Build 0)  -->
<svg version="1.1" id="Capa_1" xmlns="http://www.w3.org/2000/svg" xmlns:xlink="http://www.w3.org/1999/xlink" x="0px" y="0px"
	 viewBox="0 0 405 256" style="enable-background:new 0 0 405 256;" xml:space="preserve">
<style type="text/css">
	.st0{clip-path:url(#SVGID_2_);fill:#F7931E;}
	.st1{clip-path:url(#SVGID_2_);fill:#F78D1D;}
	.st2{clip-path:url(#SVGID_2_);fill:#F7881D;}
	.st3{clip-path:url(#SVGID_2_);fill:#F7821C;}
	.st4{clip-path:url(#SVGID_2_);fill:#F67D1B;}
	.st5{clip-path:url(#SVGID_2_);fill:#F6771A;}
	.st6{clip-path:url(#SVGID_2_);fill:#F6721A;}
	.st7{clip-path:url(#SVGID_2_);fill:#F66C19;}
	.st8{clip-path:url(#SVGID_2_);fill:#F66618;}
	.st9{clip-path:url(#SVGID_2_);fill:#F66117;}
	.st10{clip-path:url(#SVGID_2_);fill:#F55B17;}
	.st11{clip-path:url(#SVGID_2_);fill:#F55616;}
	.st12{clip-path:url(#SVGID_2_);fill:#F55015;}
	.st13{fill:#FFFFFF;}
	.st14{fill:#FFE62E;}
	.st15{fill:#FD7F09;}
	.st16{fill:#FFB80F;}
	.st17{fill:#BC180C;}
	.st18{fill:#E41700;}
	.st19{fill:#EA700C;}
</style>
<g>
	<g>
		<defs>
			<path id="SVGID_1_" d="M70.5,33.4h233c33.1,0,60,26.9,60,60v49c0,33.1-26.9,60-60,60h-233c-33.1,0-60-26.9-60-60v-49
				C10.5,60.2,37.4,33.4,70.5,33.4z"/>
		</defs>
		<clipPath id="SVGID_2_">
			<use xlink:href="#SVGID_1_"  style="overflow:visible;"/>
		</clipPath>
		<polygon class="st0" points="68.4,33.4 27.4,202 10.5,197.9 10.5,33.4 		"/>
		<polygon class="st0" points="90.2,33.4 49.1,202.4 28.9,202.4 27.4,202 68.4,33.4 		"/>
		<polygon class="st1" points="112.1,33.4 71,202.4 49.1,202.4 90.2,33.4 		"/>
		<polygon class="st2" points="133.9,33.4 92.8,202.4 71,202.4 112.1,33.4 		"/>
		<polygon class="st3" points="155.8,33.4 114.7,202.4 92.8,202.4 133.9,33.4 		"/>
		<polygon class="st4" points="177.6,33.4 136.6,202.4 114.7,202.4 155.8,33.4 		"/>
		<polygon class="st5" points="199.5,33.4 158.4,202.4 136.6,202.4 177.6,33.4 		"/>
		<polygon class="st6" points="221.4,33.4 180.3,202.4 158.4,202.4 199.5,33.4 		"/>
		<polygon class="st7" points="243.2,33.4 202.1,202.4 180.3,202.4 221.4,33.4 		"/>
		<polygon class="st8" points="265.1,33.4 224,202.4 202.1,202.4 243.2,33.4 		"/>
		<polygon class="st9" points="286.9,33.4 245.8,202.4 224,202.4 265.1,33.4 		"/>
		<polygon class="st10" points="308.8,33.4 267.7,202.4 245.8,202.4 286.9,33.4 		"/>
		<polygon class="st11" points="330.7,33.4 289.6,202.4 267.7,202.4 308.8,33.4 		"/>
		<polygon class="st12" points="345.1,33.4 352.1,35.1 311.4,202.4 289.6,202.4 330.7,33.4 		"/>
		<polygon class="st12" points="352.1,35.1 363.5,37.8 363.5,202.4 311.4,202.4 		"/>
	</g>
</g>
<g>
	<path class="st13" d="M90,79.9l-1.4,21.5c-0.8-0.1-2.6-0.3-5.4-0.6c-1.6-0.1-3.6-0.1-5.8-0.1l-0.6,11c2.3,0,6-0.1,10.9-0.5
		c-0.2,1-0.6,2.7-1.1,5.1c-0.3,1.4-0.5,3.1-0.8,5c-0.6-0.1-2.1-0.3-4.4-0.6c-1.7-0.1-3.4-0.2-5.1-0.1l-0.3,11.9H56.9l-1.1-26.8
		c-0.2-6.2-0.7-14.7-1.5-25.7H90z M138.8,79.9L138,102c-0.2,6.3-0.3,15.9-0.3,28.6c-5.8,2.1-11.8,3.1-17.8,3.1
		c-7.5,0-13.2-1.5-17.1-4.5c-3.3-2.5-5.6-6.5-7-11.8c-0.8-3.1-1.5-8.7-2.3-16.9c-0.7-7.6-1.1-14.5-1.3-20.7h22
		c-0.1,3-0.3,7.9-0.4,14.7c-0.1,3.8,0,9.1,0.1,16.1c0,5.3,0.5,8.9,1.4,10.7c0.9,2,2.8,2.9,5.6,2.9c0.8,0,1.7-0.2,2.7-0.7
		c0-4.7-0.1-12.2-0.4-22.4c-0.2-5.1-0.6-12.2-1.3-21.4H138.8z M177.6,79.9l-1.5,21.6c-0.8-0.1-2.7-0.4-5.5-0.7
		c-1.9-0.2-4-0.3-6.3-0.3l-0.5,6.5c2.5,0.1,6.6,0,12.3-0.2c-0.2,0.8-0.6,2.4-1.2,4.7c-0.3,1.4-0.6,3-0.9,4.8c-0.7-0.2-2.3-0.4-5-0.6
		c-1.2-0.1-3.1-0.1-5.5-0.1l-0.3,7.6c1.7,0,4.9-0.2,9.4-0.4c0.9-0.1,2.3-0.3,4.3-0.8c-0.2,0.7-0.6,2.4-1.3,5.1
		c-0.3,1.4-0.7,3.1-1.2,5.3H144l-1-26.8c-0.2-6.1-0.6-14.7-1.3-25.7H177.6z M226.2,109.9c-0.2,1.9-0.6,5.6-1,11
		c-0.2,3.2-0.4,7-0.7,11.4c-3.1,0.9-7.5,1.3-13.4,1.3c-8.7,0-15.8-2-21.2-5.9c-6.4-4.7-9.6-11.6-9.6-20.8c0-8.8,2.8-15.7,8.4-20.7
		c5.3-4.7,12.2-7,20.9-7c3.3,0,6.8,0.3,10.5,0.8l1.9,21.6c-1.5-0.6-3.6-0.9-6.4-0.9c-3.5,0-6.7,1.1-9.6,3.2
		c-3.2,2.4-4.8,5.5-4.8,9.3c0,3.6,1.4,6.3,4.1,8.2c2.3,1.6,4.9,2.4,7.9,2.3l-0.5-6.9c-0.1-1.4-0.4-3.7-0.9-7H226.2z M273.9,105
		c0,8-2.1,14.8-6.2,20.4c-4.4,5.8-9.9,8.7-16.7,8.7c-7,0-12.7-2.9-17-8.8c-4.1-5.5-6.1-12.3-6.1-20.3c0-8.6,2.2-15.3,6.7-20.2
		c4.2-4.6,9.7-6.9,16.4-6.9c6.7,0,12.1,2.3,16.3,6.9C271.6,89.7,273.9,96.4,273.9,105z M257.4,111c0-6.3-2.1-9.5-6.4-9.5
		c-4.2,0-6.3,3.2-6.3,9.6c0,2.6,0.5,4.9,1.6,7.1c1.2,2.5,2.7,3.7,4.5,3.7c1.8,0,3.3-1.3,4.6-3.8C256.8,115.8,257.4,113.5,257.4,111z
		"/>
</g>
<g>
	<g>
		<path class="st14" d="M174.7,231.4c-2.4,1.3-5.1,1.6-7.8,1.1c-3.1-0.6-6.6-0.5-9.6,0c-0.6,0.1-1.2,0.2-1.7,0.4
			c-3.1,0.7-5.6,1.3-8.8-1c-3-2.2-5.2-5.7-7.2-8.9c-1.9-2.8-5.4-4.8-8.2-6.3c-1.5-0.9-3.3-1.7-4.8-2.4c-0.8-0.9-1.7-1.7-2.7-2.7
			c4.4-0.2,9.1,0.3,12,2.6c7.7,6.2,10,12.5,12.1,12c2.1-0.4,7.6-1.5,10.7,0.2c3.2,1.6,10,0.1,7.4-2.7c-2.5-2.8-7.7-3.6-8.3-10.7
			c-0.6-7.1-9.4,1.7-9.4,1.7s-8.5,3.3-11.5-4.9c-3-8.2,0.4-9.1-4.2-13.6c0,0,6,1.4,7.7,7c1.7,5.6,10.5,4,13.1,3.1
			c2.3-0.8,6.9-4.8,13,1.9c-1.9,1.7-4.8,6.4,6.3,12.4C181.6,225.5,178.4,229.2,174.7,231.4z"/>
	</g>
	<g>
		<path class="st15" d="M352.3,105.7c-0.1-0.1-0.3-0.1-0.4-0.2c-0.5-0.2-1-0.2-1.4,0.1c-2.1,1-4.9,0-6.5-2.5
			c-1.7-2.6-4.2,2.7-4.2,2.7c-0.1,2.6-2.5,5.4-5.7,7.9c-4.8,3.8-11.8,7.1-16.3,8.3c-7.6,2-7.7,8.7-9,9.1c-1.3,0.5-3.3,4.6-2.2,7.5
			c1.1,3-2.8,11.9-10.5,13.7c-2.2,0.5-4.1,1.9-5.7,3.5c-3.7,4-5.4,9.8-6.4,10.1c-1.3,0.5-5.9,3.4-18.9,18.3
			c-13,14.9-28.3,9.2-37.5,2.9c-9.2-6.3-25.2-0.3-28.2,1.5c-3,1.8-4.4,5.3-9.4,4.4c-5-0.9-12.6,0.6-13.7,2.7
			c-1.2,2.1-6.5,3.8-8.2,4.4c-1.8,0.6-1.2-2.5-7.7-4.3c-6.5-1.8-5.7-4.3-8.3-10.8c-2.5-6.4-9.2-3.1-9.2-3.1c4.3,0.4,6.7,6.2,4.9,8.8
			c-1.7,2.6-6.9,0.5-6.9,0.5c-5.4-8.1-19-9.8-20.7-8.5c-1.7,1.4-7.9,0.4-7.9,0.4c-5.1-5.1-17.6-5.2-17.9-2.6c-0.3,2.5-6,2.4-7.9,5.7
			c-1.9,3.3,2.8,4.7,2.8,7.3c0,2.7,7.5,3.9,7.5,3.9c13.3,3.7,21.7,8.9,27.1,13.8c4.4-0.2,8.8,0.4,11.8,2.7c7.8,6.2,10,12.5,12.2,12
			c2.1-0.4,7.7-1.5,10.8,0.2c3.2,1.6,10.1,0.1,7.5-2.7c-2.6-2.8-7.7-3.7-8.3-10.9c-0.6-7.1-9.4,1.7-9.4,1.7s-8.5,3.3-11.5-4.9
			c-3-8.2,0.4-9.1-4.2-13.6c0,0,5.8,1.5,7.4,7.1c1.7,5.6,10.6,4,13.2,3.1c2.3-0.8,6.9-4.8,13,1.9c0.6-0.5,1.1-0.8,1.1-0.8
			c4.3-2.5,11.8-7,15-1.5c2.6,4.5,6.7,7.1,12,6.1c3.1-0.6,5.1,2.6,6.5,5.1c0.9,1.6,1.9,3.4,2.9,5.3c9.1,5.1,16.7,6.9,16.7,6.9
			s15.4,1.6,22.4,5.4c0.1,0.1,0.1,0.1,0.2,0.1c1.6,0.9,2.6,1.8,3,2.9c0.1,0.3,0.2,0.7,0.1,0.9c-0.3,2.7-5.9,5.3-11.8,7.3
			c3.6-0.1,8-0.4,13.2-1.1c15.5-2.2,36.7-7.8,57.2-20c14.5-8.7,28.7-20.7,40-37.2c0,0,1.6-2.4,4.3-5.9c-4-0.1-8.2,1.1-10.3,5.7
			c-4.7,10.6-8.6,9.1-9.1,7.6c-0.4-1.2,1.6-9.3,5.8-13.7c-4.3,3.6-12.9,11.8-13.9,18.4c-1.4,8.8-10.1,14.6-11.4,11.1
			c-0.7-1.6,0.1-5,1.6-8.6c0.9-2.3,2.2-4.6,3.4-6.6c1.2-1.8,2.4-3.3,3.4-4.2c0,0-12.8,6.3-18.2,18.3c-0.3,0.6-0.6,1.1-1.1,1.7
			c-1.4,1.8-3.8,3.7-6.8,5.6c-10.2,6.3-27.6,11.8-39.2,10.3c-1.9-0.2-3.8-0.7-5.3-1.4c-4.4-1.8-7.1-5.3-6.6-11.3c0-0.3,0-0.5,0-0.8
			c0-0.8,0.2-1.5,0.3-2.2c4.2-20.1,35.3-19.3,51-21.1c1.2-0.2,2.4-0.3,3.4-0.5c1.7-0.3,3-0.6,3.9-1.2c1.1-0.6,2-1.3,2.9-1.9
			c0.7-0.5,1.4-1.1,1.9-1.7c4.3-4.7,4.2-10.2,4.2-10.6c-0.4,0.7-8.1,12.5-18,6.5c-10.1-6.1,8.4-9.2,8.5-16.4s13.6-11.1,12.2-6
			c-1.4,5.1-7.6,13.2-7.6,13.2l7.9-0.7c0,0,10.1,1.7,18.8-13.4c8.6-15.2-18.4-22.1-0.1-26.4c18.4-4.3,24.2-18.2,24.2-18.2l-1.1-6.5
			C353.4,106.5,352.8,106,352.3,105.7z M199.1,194c0.1-1.8,5.1-3.5,6.4-3.7c0.4-0.1,0.9-0.1,1.3,0.1c0.3,0.2,0.5,0.5,0.7,0.8
			c1.2,2,2.1,4.2,2.6,6.4c-0.9,1.1-2.7,1.3-4,0.6c-1.3-0.6-2.1-2-2.4-3.4C203.8,195.1,199.1,196.6,199.1,194z"/>
	</g>
	<g>
		<path class="st16" d="M220.5,229.6c0,0-7.7-1.9-16.7-6.9c5.5,10,12.7,21.9,24.2,23.3c1.6,0.2,3.8,0.3,6.4,0.3
			c6.5-2.2,12.7-5.2,11.6-8.2C243.9,231.9,220.5,229.6,220.5,229.6z M231.1,239.7c-2.1,1.6-5.1,1.5-7.5,0.4
			c-1.4-0.6-6.3-3.5-3.8-5.4c0.8-0.6,6.7,1.2,8,1.4C229.5,236.4,231.4,237.9,231.1,239.7z"/>
	</g>
	<g>
		<path class="st17" d="M231.1,239.7c-2.1,1.6-5.1,1.5-7.5,0.4c-1.4-0.6-6.3-3.5-3.8-5.4c0.8-0.6,6.7,1.2,8,1.4
			C229.5,236.4,231.4,237.9,231.1,239.7z"/>
	</g>
	<g>
		<path class="st16" d="M381.4,91.4c-2.4-0.6-0.7,6.9-0.8,9.4s-3.6,1.1-4.5-1.8c-1-2.8,3.5-9.3,1.8-12.7c-1.7-3.3-4.7,0.7-7.8,1
			c-3.1,0.4-2.3-7-2.8-11c-0.5-4-1.7-8.2-4.2-11.7c-2.5-3.5-4.6,3.6-4.4,6c0.1,2.4-5.2,2.4-6.1-1.3c-0.8-3.6,5.6-5.6,5.7-12.8
			c0.2-7.2-5.2-3-5-1.6c0.3,1.4,0.5,2-4,12c-4.5,10,0,15.5,0.6,19.9c0.6,4.4-6.4,6.7-7,9.8c-0.6,3.2,3.8,5.9,6.3,5.8
			c0.3-0.1,0.9,0.1,1.3,0.3c0.2,0.1,0.4,0.1,0.5,0.3c0.6,0.3,1,0.6,1.5,1c0.2,0.1,0.4,0.2,0.5,0.3c0.2,0.1,0.3,0.2,0.5,0.3
			c0.4,0.3,0.7,0.6,0.9,0.9c0.3,0.3,0.5,0.5,0.7,0.7c0.1,0.2,0.2,0.3,0.3,0.5c0.1,0.2,0.2,0.4,0.3,0.6c0.1,0.2,0.1,0.4-0.1,0.5
			c-0.1,0-0.2,0-0.2,0c-0.1,0-0.1,0-0.2-0.1c-0.4-0.1-0.9-0.5-1.4-1l1.1,6.5c0,0-5.8,13.8-24.2,18.2c-18.4,4.3,8.7,11.3,0.1,26.4
			c-8.6,15.2-18.8,13.4-18.8,13.4L304,172c0,0,6.2-8.1,7.6-13.2c1.4-5.1-12.2-1.1-12.2,6c-0.1,7.2-18.6,10.3-8.5,16.4
			c9.8,6,17.6-5.8,18-6.5c0,0.5,0.1,9.4-8.9,14.3c-9.4,4.9-55.9-1.8-58.7,25c-2.8,26.8,53.6,7.9,59-4.2
			c5.4-12.1,18.2-18.3,18.2-18.3c-4.3,3.5-9.9,16-8.5,19.4c1.5,3.4,10.1-2.3,11.4-11.1c1.1-6.6,9.7-14.8,13.9-18.4
			c-4.1,4.5-6.2,12.5-5.8,13.7c0.5,1.5,4.4,3,9.1-7.6c2.1-4.6,6.3-6.1,10.3-5.9c4.5-5.7,12.1-14.1,21.6-20.8
			c15.4-10.7,19.3-20.9,22-38.9c0.7-4.8,2-8,3-10.6c-0.7-4-1.5-7.8-1.9-9C392.9,99.8,383.9,92.1,381.4,91.4z M303,172.4
			c0,0.6,0.2,1.2,0.1,1.9c-0.3,3.2-6.4,5.3-9,4.2c-4.4-1.8,0-4.2,2-6.5c1.2-1.5,2.5-3,3.5-4.7c1.6-2.6,3.2-5.8,6.2-6.5
			c1.1,1.3,1.4,3.1,0.9,4.7C305.9,168,303.1,169.7,303,172.4z M368.3,137.9c0.7-2.6,1.6-11,6.2-7.5c1.3,1,1.8,2.6,1.8,4.2
			c0,1.5-0.6,3.1-1.2,4.5c-1,2.4-2.1,4.8-4,6.7c-1.8,1.8-4.5,3.1-7,2.6c-1.3-1.4-1.4-3.9,0-5.4c1-1,2.3-1.5,3.2-2.5
			C367.8,139.8,368.1,138.9,368.3,137.9z M389.3,123.4c0.8,3.1-6.2,21.5-22.6,33.1c-16.4,11.6-23.8,8.4-28.4,13.5
			c-4.7,5.1-13.9,5.8-19.2,8.1c-5.2,2.4-10.7,1.5-7.2-1.2c3.6-2.8,8-3.6,8-3.6s19.6-12.1,16.7-25.6c-2.9-13.4,3.3-8.9,13.4-17.3
			c10.1-8.5,9.9-11.3,9.9-11.3s3.8,3.6-1,7.5c-4.8,3.9-11.1,5.3-13.5,9.7c-2.5,4.3-1.1,6.1-1.8,9.2c-0.7,3.1-3.4,14-13.5,21.6
			c0,0-3.1,3.7,1.6,2c4.7-1.7,9.6-8.5,15.2-10.2c5.7-1.6,10.8,1.2,12.8-1.8c2-3,6.7-2.1,9-4c2.3-1.9,17.4-17.3,16.5-26.9
			c-1-9.5,6.8-20.1,7.7-16.8C393.6,112.7,388.4,120.3,389.3,123.4z"/>
	</g>
	<g>
		<path class="st15" d="M109.7,208.5c-3.2-0.8-6.6-1.1-10-1.6c-8.5-1.2-18.9-3.1-21.9-12.5c-1.7-5.3-6.6-10.1-6.6-10.1
			c-9.3-9.7-2.3-13.4-2.3-13.4s4.8-2.2,7.1-8.2c0.1-0.1,0.1-0.2,0.1-0.3c0.8,3.1,1.6,6.5,1.2,7.9c-0.9,2.9-10.3,2.6-3.5,7.5
			c6.8,4.8,6.7,9.4,7.5,13.8c0.9,4.4,11.6,9.4,20.5,12.1C105.5,204.8,108.2,206.4,109.7,208.5z"/>
	</g>
	<g>
		<path class="st18" d="M290.4,155.9c-3.7,4-5.4,9.8-6.4,10.1c-1.3,0.5-5.9,3.4-18.9,18.3c-13,14.9-28.3,9.2-37.5,2.9
			c-9.2-6.3-25.2-0.3-28.2,1.5c-3,1.8-4.4,5.3-9.4,4.4c-5-0.9-12.6,0.6-13.7,2.7c-1.2,2.1-6.5,3.8-8.2,4.4c-1.8,0.6-1.2-2.5-7.7-4.3
			c-6.5-1.8-5.7-4.3-8.3-10.8c-2.5-6.4-9.2-3.1-9.2-3.1c4.3,0.4,6.7,6.2,4.9,8.8c-1.7,2.6-6.9,0.5-6.9,0.5c-5.4-8.1-19-9.8-20.7-8.5
			c-1.7,1.4-7.9,0.4-7.9,0.4c-5.1-5.1-17.6-5.2-17.9-2.6c-0.3,2.5-6,2.4-7.9,5.7c-1.9,3.3,2.8,4.7,2.8,7.3c0,2.7,7.5,3.9,7.5,3.9
			c13.3,3.7,21.7,8.9,27.1,13.8c1,0.9,1.9,1.9,2.7,2.8c-1.9-1-3.9-1.8-5.9-2.6c-3.5-1.3-7.1-2.4-10.8-3.2c-1.8-1.8-4.5-3.6-8.2-4.8
			c-8.9-2.8-19.2-7.9-20.1-12.3c-0.9-4.4-0.7-8.9-7.5-13.8c-6.8-4.8,2.6-4.5,3.5-7.5c0.5-1.4-0.3-4.9-1.2-7.9
			c2.3-5.8,7.1-11.1,10.7-8c3.5,3.1,12.5-0.1,17.6-13.1c0.5-1.3,1-2.4,1.6-3.4c2.2,0.6,4.9,0.7,7.8-0.9c7.7-4.1,11.9-0.3,8.5,1.8
			c-3.5,2.2-6.6,9.9-11.3,11.3c-4.7,1.3-13.7,9.2-10.8,11.7c2.9,2.6-0.8,7.8-5.3,5.2c-4.6-2.6-2.7,8.8,2.9,8.1
			c5.6-0.7,11.7,3.2,13.6,4.2c2,1.1,5.2-0.2,8-2.1c7.1,1.4,15.7,0.8,21.1-0.7c3.3-0.9,6.1-1,8.2-0.7c2.8,3.7,6,8.2,6.7,10.2
			c1.3,3.7,9.7,7.8,12.5,7.5c2.4-0.3,19-0.7,34.2-15.2c4.7-1.2,7.6-1,7.6-1s1.5,0.1,4.8-0.2c1.9,1.1,4.4,1.9,7.9,1.7
			c11.9-0.3,22.5-7.1,27-6.7c4.4,0.3,24.3-7.1,27.5-11.9C278.5,158.3,284.1,157,290.4,155.9z"/>
	</g>
	<g>
		<path class="st17" d="M134.2,138.5c-7.9-0.5-10.3,5.7-16.2,10.1c-5.8,4.4-10.4,8.6-11.2,16.3c-0.7,7.2,5.1,10.9,12.6,12.4
			c-2.9,1.9-6,3.2-8,2.1c-1.9-1.1-8-4.9-13.6-4.2c-5.7,0.7-7.5-10.7-2.9-8.1c4.5,2.6,8.2-2.6,5.3-5.2c-2.9-2.5,6.1-10.3,10.8-11.7
			c4.7-1.3,7.9-9,11.3-11.3c3.5-2.2-0.8-5.9-8.5-1.8c-2.9,1.6-5.6,1.5-7.8,0.9c5.2-9.2,12.6-7.1,12.6-7.1s18.7,1.4,22.9-3.8
			c4.3-5.2,6.8-4.4,6.8-4.4C161.7,127.2,140.9,138.9,134.2,138.5z"/>
	</g>
	<g>
		<path class="st17" d="M202.1,178.4c-15.3,14.5-31.8,14.9-34.2,15.2c-2.8,0.4-11.1-3.8-12.5-7.5c-0.7-2-3.9-6.6-6.7-10.2
			c5.1,0.8,7.5,4.3,8.8,7c1.9,3.9,16.8,9.7,29.4,1.9C192.8,181.3,198.1,179.4,202.1,178.4z"/>
	</g>
	<g>
		<path class="st17" d="M334.1,113.7c-4.8,3.8-12,7.1-16.5,8.3c-7.6,2-7.7,8.7-8.9,9.1c-1.3,0.5-3.3,4.6-2.2,7.5
			c1.1,3-2.8,11.9-10.5,13.7c-2.2,0.5-4.1,1.9-5.7,3.5c-6.3,1.1-11.9,2.4-13.3,4.5c-3.2,4.7-23.1,12.2-27.5,11.9
			c-4.4-0.4-15,6.3-27,6.7c-3.6,0.1-6.1-0.7-7.9-1.7c7-0.7,21.5-3.4,44.8-13.4c34.2-14.7,36.1-39.2,54.2-45.9
			c14.8-5.5,20.5-10.3,22.8-13.9C337.8,106,335.9,110.2,334.1,113.7z"/>
	</g>
	<g>
		<path class="st14" d="M300.6,57.8c-7.5,1.3-11.5,4.9-11.6,9.7c-0.1,3.3-1.2,7.7-2,11c-0.9-0.4-1.9-0.5-2.7-0.3
			c-4.1,1.2-1.5-9.8-1.5-9.8s1.4-5.4-1.1-10.4c-2.5-5,10.2-3.6,10.2-3.6S296.1,56.3,300.6,57.8z"/>
	</g>
	<g>
		<path class="st19" d="M335.9,34.4c-8.5,6.4-12.3,11.7-14.9,15.6c-2.9,7-8.3,10.6-11.4,10.5c-1.8-0.1-5.5-1.3-9.1-2.6
			c-7.5,1.3-11.5,4.9-11.6,9.7c-0.1,3.3-1.2,7.7-2,11c-0.2,0.7-0.4,1.3-0.6,1.9c0.5-0.5,1.1-1,1.7-1.4c0.5-0.3,1-0.5,1.6-0.5
			c0.4-0.1,0.8,0,1.2-0.2c4-3.5,10.1-7.5,16.6-6.2c0.4-0.2,0.7-0.4,1.1-0.7c0,0,3.2-1.8,5.4-0.6c2,1,4.3,1.6,6.5,2
			c2.2,0.4,4.3,0.2,6.4,1c1.9-0.3,3.6-0.4,4.4,0.1c2.4,1.4,6.1,6,3,8.4c-3,2.3,5.3,14.7,5.3,14.7s-1.3-7.1,1.3-8.3
			c2.5-1.2,5.3-4.5,2.2-15.8c-3.1-11.3,4.3-5,4.5-21.7c0.2-16.7,8.8-7.4,11.2-14.5C361.5,29.9,355.7,19.5,335.9,34.4z M329.7,69.2
			c-0.1,0.2-0.3,0.3-0.5,0.5c-2.6,1.6-5.9,2.2-8.8,1.6c0,0,0.1-0.2,0.2-0.8c0.2-0.7,1-0.9,1.3-1.6c0.4-1.6,1.9-2.9,3.5-3
			c1.7-0.2,3.3,0.7,4.2,2.1C329.8,68.3,329.9,68.8,329.7,69.2z M336.1,59.5c-0.3,0.4-0.6,0.8-0.9,1.1l-0.2,0.5
			c-0.3,0.7-0.6,1.4-0.9,2.1c-0.4,0.7-0.8,1.5-1.6,1.7c-1.6,0.4-3-2-4.7-1.6c-0.3,0.1-0.6,0.3-1,0.2c-0.5,0-0.9-0.5-1.1-1
			c-0.7-1.3-1.5-3.1-0.7-4.4c0.5-0.7,1.3-1.1,2.1-1.4c2.2-0.9,4.6-1.9,6.9-2.9c0.2-0.1,0.4-0.1,0.6-0.2c0.4,0,0.7,0.4,0.8,0.8
			C336.1,56,337,58,336.1,59.5z"/>
	</g>
	<g>
		<path class="st17" d="M329.2,33.3c-3.4,3.6-5.7,7-6.1,9.8c-0.3,2.4-1,4.7-1.8,6.6c-2.9,7-8.3,10.6-11.4,10.5
			c-1.8-0.1-5.5-1.3-9.1-2.6c-4.5-1.6-8.7-3.4-8.7-3.4S279.6,53,282,58c2.5,5,1.1,10.4,1.1,10.4s-2.5,11,1.5,9.9
			c0.8-0.2,1.8-0.1,2.7,0.3c-0.2,0.7-0.4,1.3-0.6,1.9c-1.7,1.7-3.2,4.2-4.8,5.5c-2.8,2.5-5.8,4.7-9,6.5c-1.1,0.7-11.3,6.4-12.2,3.9
			c-0.9-2.6,3.6-5.5,3.6-5.5s19.1-16,13.5-30.7C272.2,45.5,288,48.6,288,48.6C307.9,50.6,318,42,329.2,33.3z"/>
	</g>
	<g>
		<path class="st17" d="M327.1,74.1c-3.7,0.6-8.3,2.1-8.3,2.1l-7-2.1c-1.4-0.8-2.8-1.3-4.2-1.6c0.4-0.2,0.7-0.4,1.1-0.7
			c0,0,3.2-1.8,5.4-0.6c2,1,4.3,1.6,6.5,2C323,73.3,325.1,73.1,327.1,74.1z"/>
	</g>
	<g>
		<path class="st18" d="M395.7,111.5c-0.7-4-1.5-7.8-1.9-9c-0.9-2.7-9.9-10.4-12.3-11c-2.4-0.6-0.7,6.9-0.8,9.4
			c-0.1,2.5-3.6,1.1-4.5-1.8c-1-2.9,3.5-9.3,1.8-12.7c-1.7-3.3-4.7,0.7-7.8,1c-3.1,0.4-2.3-7-2.8-11c-0.5-4-1.7-8.2-4.2-11.7
			c-2.5-3.5-4.6,3.6-4.4,6c0.1,2.4-5.2,2.4-6.1-1.3c-0.8-3.6,5.6-5.6,5.7-12.8c0.2-7.2-5.2-3-5-1.6c0.3,1.4,0.5,2-4,12
			c-4.5,10,0,15.5,0.6,19.9c0.6,4.4-6.4,6.7-7,9.8c-0.6,3.2,3.8,5.9,6.3,5.8c0.3-0.1,0.9,0.1,1.3,0.3c0.2,0.1,0.4,0.1,0.6,0.3
			c0.5,0.3,1,0.6,1.5,1c0.2,0.1,0.4,0.2,0.5,0.3c0.2,0.1,0.3,0.2,0.5,0.3c0.4,0.3,0.7,0.6,0.9,0.9c0.3,0.3,0.5,0.5,0.7,0.7
			c0.1,0.2,0.2,0.3,0.3,0.5c0.1,0.2,0.2,0.4,0.3,0.6c0.1,0.2,0.1,0.4-0.1,0.5c-0.1,0-0.2,0-0.2,0c-0.1,0-0.1,0-0.2-0.1
			c-0.4-0.1-0.9-0.5-1.4-1c-0.5-0.4-1-0.9-1.5-1.1c-0.1-0.1-0.3-0.1-0.4-0.2c-0.5-0.2-1-0.2-1.4,0.1c-2.1,1-4.9,0-6.5-2.5
			c-1.7-2.6-4.2,2.7-4.2,2.7c-0.1,2.6-2.5,5.4-5.7,7.9c1.7-3.6,3.7-7.6,2.1-9.8c0.5-0.8,0.8-1.6,1-2.2c0.9-2.7-1.7-6.2-2.7-8.4
			c-1.6-3.3-3-6.5-3-10.2c0-1.4,0.1-2.9-0.2-4.3c-0.5-1.9-1.8-3.5-3.5-4.4c-0.2-0.1-0.5-0.2-0.6-0.3c1.9-0.3,3.6-0.4,4.4,0.1
			c2.4,1.4,6,6,3,8.4c-3,2.3,5.3,14.7,5.3,14.7s-1.3-7.1,1.3-8.3c2.5-1.2,5.3-4.5,2.2-15.8c-3.1-11.3,4.1-5.1,4.2-21.7
			s8.8-7.4,11.2-14.5s-3-17.5-22.9-2.5c-8.5,6.4-12.3,11.7-14.9,15.6c0.8-1.9,1.4-4.1,1.8-6.6c0.4-2.9,2.8-6.3,6.1-9.9l0.1-0.1
			c5.4-4.2,10.9-8.4,17.9-11.4c13.2-5.7,18.2,2.2,20.2,9.2c1.1,3.8,1.2,7.8,0.6,11.8c-1.1,7.8-2,28.1,15.7,44.3
			C399.9,102.1,398.7,104.3,395.7,111.5z"/>
	</g>
	<g>
		<path class="st17" d="M210.1,197.6c-0.9,1.1-2.7,1.3-4,0.6c-1.3-0.6-2.1-2-2.4-3.4c0,0.2-4.7,1.8-4.6-0.8c0.1-1.8,5.1-3.5,6.4-3.7
			c0.4-0.1,0.9-0.1,1.3,0.1c0.3,0.2,0.5,0.5,0.7,0.8C208.7,193.2,209.5,195.4,210.1,197.6z"/>
	</g>
	<g>
		<path class="st18" d="M306.7,165.5c-0.8,2.5-3.6,4.2-3.6,6.9c0,0.6,0.2,1.2,0.1,1.9c-0.3,3.2-6.4,5.3-9,4.2c-4.4-1.8,0-4.2,2-6.5
			c1.2-1.5,2.5-3,3.5-4.7c1.6-2.6,3.2-5.8,6.2-6.5C306.8,162.1,307.2,164,306.7,165.5z"/>
	</g>
	<g>
		<path class="st17" d="M376.3,134.6c0,1.5-0.6,3.1-1.2,4.5c-1,2.4-2.1,4.8-4,6.7c-1.8,1.8-4.5,3.1-7,2.6c-1.3-1.4-1.4-3.9,0-5.4
			c1-1,2.3-1.5,3.2-2.5c0.6-0.7,0.8-1.7,1-2.6c0.7-2.6,1.6-11,6.2-7.5C375.8,131.4,376.3,133.1,376.3,134.6z"/>
	</g>
	<g>
		<path class="st17" d="M329.7,69.2c-0.1,0.2-0.3,0.3-0.5,0.5c-2.6,1.6-5.9,2.2-8.8,1.6c0,0,0.1-0.2,0.2-0.8c0.2-0.7,1-0.9,1.3-1.6
			c0.4-1.6,1.9-2.9,3.5-3c1.7-0.2,3.3,0.7,4.2,2.1C329.8,68.3,329.9,68.8,329.7,69.2z"/>
	</g>
	<g>
		<path class="st17" d="M336.1,59.5c-0.3,0.4-0.6,0.8-0.9,1.1l-0.2,0.5c-0.3,0.7-0.6,1.4-0.9,2.1c-0.4,0.7-0.8,1.5-1.6,1.7
			c-1.6,0.4-3-2-4.7-1.6c-0.3,0.1-0.6,0.3-1,0.2c-0.5,0-0.9-0.5-1.1-1c-0.7-1.3-1.5-3.1-0.7-4.4c0.5-0.7,1.3-1.1,2.1-1.4
			c2.2-0.9,4.6-1.9,6.9-2.9c0.2-0.1,0.4-0.1,0.6-0.2c0.4,0,0.7,0.4,0.8,0.8C336.1,56,337,58,336.1,59.5z"/>
	</g>
	<g>
		<path class="st19" d="M392.7,109.5c0.9,3.3-4.3,10.9-3.4,14c0.8,3.1-6.2,21.5-22.6,33.1s-23.8,8.4-28.4,13.5
			c-4.7,5.1-13.9,5.8-19.2,8.1c-5.2,2.4-10.7,1.5-7.2-1.2c3.6-2.8,8-3.6,8-3.6s19.6-12.1,16.7-25.6c-2.9-13.4,3.3-8.9,13.4-17.3
			c10.1-8.5,9.9-11.3,9.9-11.3s3.8,3.6-1,7.5c-4.8,3.9-11.1,5.3-13.5,9.7c-2.5,4.3-1.1,6.1-1.8,9.2c-0.7,3.1-3.4,14-13.5,21.6
			c0,0-3.1,3.7,1.6,2c4.7-1.7,9.6-8.5,15.2-10.2c5.7-1.6,10.8,1.2,12.8-1.8c2-3,6.7-2.1,9-4c2.3-1.9,17.4-17.3,16.5-26.9
			C384,116.8,391.8,106.2,392.7,109.5z"/>
	</g>
	<g>
		<path class="st14" d="M317.1,196.3c0.6,1.4-1.2,2.4-1.2,2.4s-0.3-0.8-4,3.8c-0.4,0.5-0.9,1.1-1.3,1.6c-5,6.3-2.2,11.2-1.7,13.4
			c0.4,2.1-6.6,7-5.5,7.5c0.2,0.1,0.7,0.1,1.5,0.1c-20.5,12.2-41.7,17.8-57.2,20c4.8-3.3,0.9-5.3-1.4-6.2c-0.8-0.3-1.4-0.5-1.4-0.5
			c1.1-1,0.3-2.2-1.6-3.4c0,0-0.1-0.1-0.2-0.1c-5.5-3.6-19-7.6-18.8-8.7c0.3-1.4,15.9,8.8,23.9,0c0.3-0.3,0.6-0.6,0.8-1
			c3.6-5-0.7-8.3-7.5-10.3c-7.6-2.2-18.2-2.7-24.2-2.2c-11.4,1.2-26.7-10.7-29.4-11.6c-1.1-0.4-1.1-1.3-0.9-2.2
			c0.6-1.9,2.3-3.2,4.3-3.6c9-2,5.7,1.6,5.7,1.6s-2,3.4,7.8,8.6c9.9,5.2,11.5,1.3,28.1,5.4c3.1,0.8,6.1,1.2,8.9,1.1
			c12.1,0.1,21.3-5.9,26.4-7.7c6.2-2.2,12.8-9.3,19.2-10.8c2.7-0.6,4.2-1.5,5.5-2.6c1.8-1.5,3.2-3.3,6.8-5.2c3-1.7,4.5-1.1,5.3-0.2
			c0.8,1,0.9,2.4,0.9,2.4s-0.5-0.9-2.7-0.7c-0.3,0.1-0.8,0-1.3,0.1c-1,0.2-2.9,1.3-5.5,2.9c-6.3,4.1-16.1,11-21.1,13.3
			c-7.1,3.2-3.6,6.4-9.2,8.4c-5.6,2-12,10.5-12.6,15.4c0,0.1,0,0.1-0.1,0.2c-0.4,4.8,18,0.4,27.2-2.9c3.1-1.1,7.6-4.2,12.1-7.6
			c2.3-1.8,4.6-3.7,6.8-5.6c5.9-5.1,10.9-9.8,11.6-10.6c1.6-1.6,1.2-3.1,1.1-3.7c-0.1-0.4,1.7-1.3,3.1-1.6
			C316.1,195.7,316.9,195.8,317.1,196.3z"/>
	</g>
	<g>
		<path class="st14" d="M322.2,167.2c-1.1-0.3-2,1.1-2,2.2c0,1.1,0.7,2.1,1.1,3.1c0.4,1,0.6,2.3-0.1,3.2c-1.7,2-5-1.2-7.4-0.3
			c-1,0.3-1.7,1.4-2.3,2.1c-1.5,1.8-3.7,3-6.1,3.5c-0.5,0.1-1,0.2-1.4,0c-1.4-0.5-1.2-2.9,0.1-3.8c1.3-1,3-1,4.5-1.3
			c1.5-0.3,3.2-1.4,3.2-3c0-0.6-0.3-1.1-0.4-1.7c-0.7-2.5,0.6-5.2,2.3-7.2c1.6-2,3.6-3.9,4.7-6.3c0.9-2,1-4.1,1.5-6.3
			c0.9-4,3.1-7.7,5.3-11.3c-1.2-1.4-0.8-4.1,0.2-5.6c1.1-1.5,2.9-2.3,4.7-2.9c3.6-1.1,7.5-1.3,11-2.3c3.6-1.1,7.2-3.6,7.9-7.3
			c0.7-3.3-1.2-7.2,0.6-10c1.4-2.2,4.1-2.8,6.3-4c4.3-2.3,7-7.4,6.5-12.3c-0.2-1.5,1-2.4,2.3-3c1.3-0.6,2.8-2.2,1.9-3.3
			c0.8,1,1.9,1.5,3.1,2.2c1,0.7,2.1,1.9,1.7,3.1c-0.5,1.7-2.9,1.5-4.5,2.4c-2.7,1.5-2,5.7-3.7,8.5c-1.4,2.3-4.4,3.1-6.6,4.6
			c-2,1.3-3.7,3.3-4.5,5.5c-1.1,2.8-1.1,5.9-1.9,8.9c-0.8,2.9-3,5.9-6,6c-0.7,1.7-1.8,4-3.4,5.1c-0.8,0.5-1.7,0.9-2.5,1.2
			c-1.7,0.6-3.5,1.1-5.2,1.7c-1.2,0.4-2.4,0.8-3.3,1.7c-1.8,1.8-1.7,4.8-2.6,7.2c-1.1,3.1-4.1,5.7-4.2,9c0,1.4-0.6,2.7-0.6,4.2
			c0,0.2,0,0.4,0.1,0.7c0.3,0.5,1.2,0.2,1.9,0.3c1.4,0,2.2,2,1.5,3.2C325.3,166,323.6,167.5,322.2,167.2z"/>
	</g>
	<g>
		<path class="st17" d="M255.8,93.7c-1.9,0.3-3.9,0.9-5.6,1.6c1.1,2.2,0.9,4.9-0.5,7c-0.4,0.7,0.3,1.6,1.1,1.7
			c0.8,0.1,1.6-0.3,2.2-0.8c0.6-0.5,1.1-1.2,1.8-1.6c1.2-0.8,3.1-1.1,3.3-2.6c0.1-1.1-1.2-2-1-3.2c1.2-0.1,1.9-1.7,1.2-2.7
			c-0.8,0.3-1.5,0.5-2.3,0.8"/>
	</g>
	<g>
		<path class="st17" d="M238.3,111.6c-1.1,1.4-2.8,2-4.5,2.6c-1.5,0.5-2.9,1-4.4,1.5c-0.7,0.3-1.5,0.6-2.1,1.1
			c-0.9,0.8-1.2,2.1-1.6,3.2c-1,2.6-2.9,4.8-5.2,6.2c-1.6,0.9-3.9,1.4-5.3,0.2c-0.9-0.7-1.2-1.9-1.6-3c-0.1-0.4-0.2-0.8-0.1-1.2
			c0.1-0.3,0.4-0.4,0.7-0.6c2.6-1.4,6.2-1.3,7.8-3.8c1.7-2.4,0.3-5.6-1-8.2c4.5-2.8,9.5-4.8,14.8-5.9c0.2,0,0.6-0.1,0.8,0
			C238.6,104.4,239.6,110.1,238.3,111.6z"/>
	</g>
</g>
</svg>
