<svg width="380" height="203" viewBox="0 0 380 203" fill="none" xmlns="http://www.w3.org/2000/svg">
<rect width="353" height="169" rx="60" fill="url(#paint0_linear_127_360)"/>
<path d="M76.1348 52.5L75.1436 73.999C74.2549 73.8623 72.8307 73.6914 70.8711 73.4863C69.6634 73.418 67.7038 73.3496 64.9922 73.2812C64.8555 74.6257 64.6162 77.8727 64.2744 83.0225C64.0238 88.0127 63.6136 95.3385 63.0439 105H46.501C46.3187 100.397 45.9769 93.1624 45.4756 83.2959C45.2477 79.8779 45.0085 76.5397 44.7578 73.2812L39.3574 73.4863L34.4697 73.999L33.6152 52.5H76.1348ZM101.872 52.5L100.539 80.4248C100.288 86.4404 99.9922 94.6322 99.6504 105H80.4756L78.1514 52.5H101.872ZM140.598 52.5L139.128 74.1357C138.285 73.999 136.462 73.7598 133.659 73.418C131.745 73.2357 129.649 73.1217 127.37 73.0762L126.857 79.6045C129.364 79.6729 133.454 79.6159 139.128 79.4336C138.877 80.2767 138.479 81.849 137.932 84.1504C137.613 85.5404 137.328 87.1468 137.077 88.9697C136.416 88.8102 134.764 88.6051 132.121 88.3545C130.891 88.2861 129.068 88.2633 126.652 88.2861L126.311 95.9082C128.02 95.8854 131.164 95.7373 135.744 95.4639C136.61 95.3955 138.034 95.1221 140.017 94.6436C139.834 95.3499 139.413 97.0475 138.752 99.7363C138.433 101.126 138.046 102.881 137.59 105H106.999L106.008 78.2031C105.826 72.0736 105.381 63.5059 104.675 52.5H140.598ZM189.475 72.1533C189.475 76.346 188.301 80.0602 185.954 83.2959C183.881 86.1214 181.283 88.1494 178.161 89.3799C178.822 90.4053 180.451 92.5586 183.049 95.8398C184.348 97.3438 186.33 99.3262 188.996 101.787C187.925 102.174 185.567 103.154 181.921 104.727C179.369 105.889 176.965 107.028 174.709 108.145C174.048 107.324 172.578 105.205 170.3 101.787C169.252 100.055 167.714 97.1387 165.686 93.0371H165.617L165.275 105H146.032C145.782 100.033 145.428 91.8408 144.973 80.4248C144.768 73.7028 144.3 64.3945 143.571 52.5C149.838 51.8392 155.557 51.5088 160.729 51.5088C179.893 51.5088 189.475 58.3903 189.475 72.1533ZM173.957 79.5361C173.957 77.3714 173.046 75.8219 171.223 74.8877C169.878 74.2041 168.192 73.9079 166.164 73.999L165.959 85.6885C167.85 85.6885 169.536 85.2669 171.018 84.4238C172.977 83.3301 173.957 81.7008 173.957 79.5361ZM237.395 72.1533C237.395 76.346 236.221 80.0602 233.874 83.2959C231.8 86.1214 229.203 88.1494 226.081 89.3799C226.742 90.4053 228.371 92.5586 230.969 95.8398C232.268 97.3438 234.25 99.3262 236.916 101.787C235.845 102.174 233.487 103.154 229.841 104.727C227.289 105.889 224.885 107.028 222.629 108.145C221.968 107.324 220.498 105.205 218.22 101.787C217.172 100.055 215.633 97.1387 213.605 93.0371H213.537L213.195 105H193.952C193.701 100.033 193.348 91.8408 192.893 80.4248C192.688 73.7028 192.22 64.3945 191.491 52.5C197.757 51.8392 203.477 51.5088 208.649 51.5088C227.813 51.5088 237.395 58.3903 237.395 72.1533ZM221.877 79.5361C221.877 77.3714 220.965 75.8219 219.143 74.8877C217.798 74.2041 216.112 73.9079 214.084 73.999L213.879 85.6885C215.77 85.6885 217.456 85.2669 218.938 84.4238C220.897 83.3301 221.877 81.7008 221.877 79.5361ZM281.213 105H262.517L261.252 100.454C260.728 100.659 259.418 101.354 257.321 102.539C255.977 103.405 254.484 104.556 252.844 105.991L250.896 101.855C250.508 101.035 249.95 99.8844 249.221 98.4033L247.375 105H237.463C238.921 99.3717 241.177 90.0863 244.23 77.1436C246.099 68.4847 247.66 60.2702 248.913 52.5H269.455C270.093 56.0775 271.836 64.4059 274.685 77.4854C276.257 84.3213 278.433 93.4928 281.213 105ZM259.646 93.7891C259.258 92.5814 258.575 90.6217 257.595 87.9102C257.002 86.4062 256.102 84.3327 254.895 81.6895C254.37 83.0111 253.55 85.1758 252.434 88.1836C251.818 89.9154 251.089 92.2738 250.246 95.2588C250.93 95.2588 252.479 95.1221 254.895 94.8486C256.353 94.6436 257.937 94.2904 259.646 93.7891Z" fill="white"/>
<g clip-path="url(#clip0_127_360)">
<path d="M149.224 127.862C150.237 130.429 151.484 133.695 152.731 136.496L157.174 142.952C157.174 142.952 158.109 144.041 159.901 144.818C161.304 145.441 163.253 145.907 165.669 145.518C165.669 145.518 169.956 152.519 166.37 155.475L167.851 160.764H168.241L192.792 175.854L190.843 169.164L194.116 176.476L196.143 177.487L203.781 201.289L215.082 196.155L213.523 190.633L207.21 181.299C207.21 181.299 206.197 174.609 205.34 172.042C204.404 169.553 200.507 168.309 199.494 165.198C198.481 162.086 198.325 151.508 192.09 146.063C192.09 146.063 175.879 139.607 171.436 137.507L182.893 140.618L180.711 132.995L171.67 121.172L170.891 116.272L172.917 110.827C172.528 110.438 172.294 110.205 172.294 110.205L168.085 112.383L167.929 117.128L169.722 123.272L177.983 134.784C177.983 134.784 168.631 128.873 161.46 128.251C157.563 127.939 152.965 127.628 149.614 127.317C149.458 127.395 149.38 127.628 149.224 127.862Z" fill="#7C543E"/>
<path d="M172.45 120.783L187.882 139.218L199.261 148.552L201.131 156.252C201.131 156.252 200.118 158.508 200.508 161.464C200.819 164.42 203.859 167.064 203.859 167.064L207.288 168.853C207.288 168.853 210.796 173.52 212.666 176.709C214.615 179.898 222.642 184.721 222.642 184.721L225.058 183.476C225.136 183.321 225.136 183.243 225.058 183.165C224.902 182.543 224.357 180.443 224.045 179.043C222.019 178.732 219.836 177.798 219.836 177.798L218.901 175.932L215.316 173.598L213.679 168.075L225.526 174.687L228.488 169.553C228.721 169.009 228.955 168.387 229.189 167.92C227.552 167.764 219.681 166.753 216.407 163.564L206.587 145.207L201.365 145.752C201.365 145.752 195.052 142.096 191.155 136.884L197.702 139.529C197.702 139.529 204.638 138.907 205.496 138.673C206.275 138.44 209.081 140.774 209.081 140.774L217.031 139.218L219.914 139.529L221.629 140.774L219.603 138.596L217.264 138.285L209.548 139.529L206.275 136.962L199.183 138.362L183.751 126.539C183.751 126.539 180.867 123.584 180.244 119.694C180.244 119.694 185.31 125.139 189.129 126.306C184.218 122.106 176.113 114.327 173.151 111.449L171.748 116.739L172.45 120.783Z" fill="#845C4A"/>
<path d="M213.835 167.998L215.472 173.52L219.057 175.854L219.992 177.721C219.992 177.721 222.174 178.654 224.201 178.965C224.045 178.265 223.889 177.721 223.889 177.721L225.76 174.531L213.835 167.998Z" fill="#7C543E"/>
<path d="M228.643 169.476L229.033 168.776L240.724 164.109L239.944 161.308C239.944 161.308 237.996 154.619 232.852 146.996C235.034 151.974 237.139 157.653 236.437 159.053C235.034 161.697 232.384 163.175 232.384 163.175C232.384 163.175 230.748 165.042 229.423 167.764C229.033 168.309 228.799 168.853 228.643 169.476Z" fill="#7C543E"/>
<path d="M219.758 138.44L221.785 140.618L220.07 139.374L217.186 139.062L209.237 140.618C209.237 140.618 206.431 138.285 205.652 138.518C204.872 138.751 197.858 139.374 197.858 139.374L191.311 136.729C195.208 141.863 201.521 145.596 201.521 145.596L206.743 145.052L216.563 163.409C219.836 166.598 227.708 167.609 229.345 167.764C230.67 165.042 232.306 163.175 232.306 163.175C232.306 163.175 235.034 161.697 236.359 159.053C237.061 157.653 234.956 151.974 232.774 146.996C229.501 142.252 225.058 137.118 218.901 132.995L209.782 130.117C209.782 130.117 196.221 131.051 192.246 128.406C191.545 127.94 190.531 127.162 189.284 126.073C185.465 124.906 180.399 119.461 180.399 119.461C181.023 123.428 183.907 126.306 183.907 126.306L199.338 138.129L206.431 136.729L209.704 139.296L217.42 138.051L219.758 138.44Z" fill="#8E664C"/>
<path d="M193.181 145.363C193.181 145.363 198.481 149.485 199.027 154.308C199.572 159.13 198.715 164.497 205.963 170.876C205.963 170.876 207.054 173.287 206.976 174.454C206.899 175.62 208.068 180.521 208.068 180.521L214.147 189.388L215.939 195.611L220.616 189.232C220.616 189.232 224.669 184.877 225.136 183.477L222.72 184.721C222.72 184.721 214.692 179.898 212.744 176.709C210.795 173.52 207.366 168.853 207.366 168.853L203.937 167.064C203.937 167.064 200.897 164.342 200.586 161.464C200.274 158.508 201.209 156.252 201.209 156.252L199.339 148.552L187.959 139.218L193.181 145.363Z" fill="#6B4736"/>
<path d="M192.09 146.063C198.325 151.508 198.481 162.164 199.494 165.198C200.508 168.309 204.483 169.476 205.34 172.042C206.275 174.532 207.21 181.299 207.21 181.299L213.523 190.633L215.082 196.155L215.628 195.922L215.784 195.688L213.991 189.466L207.912 180.599C207.912 180.599 206.743 175.698 206.821 174.532C206.899 173.365 205.807 170.953 205.807 170.953C198.559 164.653 199.417 159.286 198.871 154.386C198.325 149.563 193.026 145.441 193.026 145.441L187.804 139.218L172.45 120.783L171.826 116.583L173.229 111.294C173.073 111.138 172.917 110.983 172.762 110.827L170.735 116.272L171.514 121.172L180.555 132.995L182.738 140.618L171.281 137.507C175.879 139.529 192.09 146.063 192.09 146.063Z" fill="#8C6353"/>
<path d="M149.458 127.317C152.809 127.551 157.33 127.94 161.304 128.251C168.475 128.795 177.827 134.784 177.827 134.784L169.566 123.273L167.773 117.128L167.929 112.383L157.719 117.594L149.458 127.239C149.536 127.239 149.458 127.239 149.458 127.317Z" fill="#9E795C"/>
<path d="M137.767 165.664L168.319 162.631L194.818 178.032L203.859 201.211H203.937L196.299 177.409L194.273 176.398L190.999 169.087L192.948 175.776L168.397 160.686H168.007L155.927 161.853C147.587 163.409 143.846 158.197 143.846 158.197L138.469 149.408L138.001 150.574L138.157 165.042C138.079 165.12 137.923 165.275 137.767 165.664Z" fill="#8E664C"/>
<path d="M140.105 145.129L145.405 156.486L153.277 159.442L158.733 157.886L162.396 153.374L160.135 145.674C158.655 145.129 157.096 144.274 156.005 142.952C155.147 141.94 153.978 139.451 152.731 136.573C151.484 133.773 150.237 130.506 149.224 127.939C148.211 130.506 144.236 140.151 141.664 141.085L140.105 145.129Z" fill="#8E664C"/>
<path d="M138.391 149.408L143.768 158.197C143.768 158.197 147.509 163.409 155.849 161.853L167.929 160.686L163.877 146.53C163.877 146.53 162.084 146.374 160.135 145.596L162.396 153.297L158.733 157.808L153.277 159.364L145.405 156.408L140.105 145.052L138.391 149.408Z" fill="#7C543E"/>
<path d="M152.731 136.496C153.978 139.374 155.225 141.863 156.005 142.874C157.096 144.196 158.655 145.052 160.135 145.596C162.084 146.374 163.876 146.53 163.876 146.53L166.448 155.397C170.034 152.519 165.747 145.441 165.747 145.441C163.253 145.83 161.304 145.363 159.979 144.741C158.187 143.963 157.252 142.874 157.252 142.874L152.731 136.496Z" fill="#A37C62"/>
<path d="M137.144 184.954C137.767 186.277 138.313 187.677 138.468 188.221C138.858 189.621 142.989 192.188 142.989 192.188L147.509 191.021L152.965 193.744L157.953 192.344L157.018 183.01C155.615 184.332 154.134 185.577 153.9 185.732C153.433 185.966 144.859 188.299 144.859 188.299L139.248 183.554L140.261 177.643C140.261 177.643 138.858 172.665 138.391 171.265C138.001 169.865 140.183 167.842 140.183 167.842L153.9 166.753C156.784 166.52 157.33 168.153 157.33 168.153L160.057 180.132C160.057 180.132 158.81 181.299 157.408 182.543L161.071 191.722L164.5 194.522L172.683 192.033L173.931 193.044L174.554 192.888L176.425 193.511L177.594 192.577L183.049 189.388L183.283 186.354C182.816 185.966 182.504 185.654 182.504 185.654C182.504 185.654 179.542 189.777 177.126 189.933C174.71 190.166 173.541 185.188 173.541 185.188L172.06 178.11L172.839 175.154L172.761 171.809C172.761 171.809 173.853 171.265 176.035 172.12C178.139 172.976 189.518 180.987 189.518 180.987C189.518 180.987 192.168 182.388 192.87 184.799L194.818 191.644C194.818 191.644 195.286 194.055 193.571 193.744C192.558 193.588 188.739 190.71 185.933 188.377L187.959 193.199L200.196 199.967L201.755 199.655C201.755 199.655 195.753 185.11 194.662 182.388C193.493 179.743 188.349 176.087 188.349 176.087L169.488 165.509L169.566 174.998L166.059 164.731L137.455 166.209C136.754 167.609 135.819 170.409 136.676 173.598C138.001 178.187 138.624 180.287 138.624 180.287L137.144 184.954Z" fill="#7C543E"/>
<path d="M136.832 185.966L137.611 188.766L145.717 196.7L165.435 195.533L174.086 193.044L172.839 192.033L164.656 194.522L161.227 191.722L157.563 182.543L156.862 180.832L157.096 182.932L158.031 192.266L153.043 193.666L147.587 190.944L143.067 192.11C143.067 192.11 138.936 189.544 138.546 188.144C138.391 187.521 137.845 186.199 137.221 184.877L136.832 185.966Z" fill="#6B4736"/>
<path d="M137.533 166.131L166.137 164.653L169.644 174.92L169.566 165.431L188.427 176.009C188.427 176.009 193.649 179.665 194.74 182.31C195.909 184.954 201.833 199.578 201.833 199.578L200.274 199.889L188.037 193.122L186.011 188.299L183.751 182.776L183.517 186.277L183.283 189.31L177.827 192.499L176.658 193.433L178.139 193.899L184.14 192.188L200.508 200.978L203.859 201.211L194.818 178.032L168.319 162.631L137.767 165.664C137.689 165.82 137.611 165.975 137.533 166.131Z" fill="#6B4736"/>
<path d="M177.282 189.932C179.698 189.699 182.66 185.654 182.66 185.654C182.66 185.654 182.971 185.888 183.439 186.354L183.673 182.854L185.933 188.377C188.739 190.633 192.558 193.588 193.571 193.744C195.286 193.977 194.818 191.644 194.818 191.644L192.87 184.799C192.168 182.388 189.518 180.987 189.518 180.987C189.518 180.987 178.139 172.976 176.035 172.12C173.853 171.265 172.762 171.809 172.762 171.809L172.839 175.154L172.06 178.109L173.541 185.188C173.697 185.188 174.788 190.088 177.282 189.932Z" fill="#845C4A"/>
<path d="M139.326 183.554L144.937 188.299C144.937 188.299 153.511 185.966 153.978 185.732C154.212 185.577 155.615 184.332 157.096 183.01L156.862 180.91L157.563 182.621C158.966 181.376 160.213 180.21 160.213 180.21L157.485 168.231C157.485 168.231 156.94 166.598 154.056 166.831L140.339 167.92C140.339 167.92 138.157 169.942 138.546 171.342C138.936 172.742 140.417 177.721 140.417 177.721L139.326 183.554Z" fill="#845C4A"/>
<path d="M363.633 87.1034C362.152 90.4481 353.189 97.1374 353.189 97.1374C353.189 97.1374 316.246 112.616 310.011 113.161C303.698 113.705 296.294 108.571 292.241 109.505C292.241 109.505 297.463 111.527 297.697 115.805C297.931 120.161 297.073 123.506 297.073 123.506L317.805 120.706L327.314 115.105L322.092 119.539L320.455 120.55C320.533 120.55 320.767 120.472 321.234 120.317C324.664 119.383 338.926 115.572 349.994 115.961C348.357 119.85 344.46 126.306 335.03 134.784C318.896 149.174 296.294 156.641 293.566 156.408C290.838 156.175 272.367 153.063 272.367 153.063C272.367 153.063 258.338 154.308 253.973 154.075C249.687 153.841 243.997 139.296 244.231 136.496C244.387 134.473 244.855 122.261 245.166 115.183L248.518 110.438L268.002 100.015L290.916 92.2371C290.916 92.2371 304.478 73.1803 309.855 70.4579L327.08 70.2245C326.145 72.8691 324.664 76.5249 322.403 81.5808C315.467 97.0596 286.863 107.016 286.863 107.016C284.759 123.817 273.926 134.707 273.926 134.707L275.484 133.462C284.369 127.084 291.228 108.105 291.228 108.105C316.168 97.993 328.794 79.4807 333.86 70.1467H334.172C334.172 70.1467 337.368 66.7243 341.888 61.9795C348.201 61.8239 356.619 62.524 356.93 62.6018C357.32 62.6018 363.555 68.4355 365.426 70.1467C365.114 75.5137 364.724 84.7699 363.633 87.1034Z" fill="#8E664C"/>
<path d="M333.705 70.1467C328.639 79.5585 316.012 98.0708 291.072 108.183C291.072 108.183 284.136 127.162 275.329 133.54L273.77 134.784C273.77 134.784 284.603 123.895 286.708 107.094C286.708 107.094 315.311 97.1374 322.248 81.6586C324.508 76.6027 325.989 72.9469 326.924 70.3023L333.705 70.1467Z" fill="#6B4736"/>
<path d="M380 98.3041L379.844 98.5375C375.324 100.326 365.036 104.06 360.515 103.516C360.515 103.516 351.319 109.583 350.072 109.427C348.825 109.349 338.537 114.95 338.537 114.95L330.899 114.327L321.936 119.694L327.158 115.261L330.041 112.772L337.991 113.939L359.658 102.116C359.658 102.116 374.856 99.1598 375.869 96.204C376.96 93.2483 376.181 92.4704 376.181 92.4704C376.181 92.4704 366.75 83.3698 365.815 70.6912C365.815 70.6912 365.659 70.5356 365.27 70.2245C363.399 68.5133 357.164 62.6796 356.774 62.6796C356.385 62.6796 348.045 61.9017 341.732 62.0573C350.929 52.4122 365.426 37.5557 369.011 36C369.011 36 369.167 36.2333 369.4 36.7C360.827 70.3023 372.284 86.5589 378.285 92.4704C378.285 92.8593 378.285 93.2482 378.285 93.7149L380 98.3041Z" fill="#9E795C"/>
<path d="M378.207 92.4704C372.284 86.5589 360.749 70.3023 369.4 36.7001C371.193 40.3559 379.065 58.2459 378.207 92.4704Z" fill="#845C4A"/>
<path d="M375.947 96.204C374.934 99.1598 359.736 102.116 359.736 102.116L338.069 113.939L330.119 112.772L327.236 115.261L317.727 120.861L296.996 123.661C296.996 123.661 297.853 120.239 297.619 115.961C297.385 111.605 292.163 109.66 292.163 109.66C296.216 108.727 303.698 113.861 309.933 113.316C316.246 112.772 353.111 97.293 353.111 97.293C353.111 97.293 362.152 90.4481 363.633 87.1034C364.724 84.7699 365.114 75.5138 365.348 70.1467C365.659 70.4579 365.893 70.6134 365.893 70.6134C366.828 83.2143 376.259 92.3927 376.259 92.3927C376.259 92.3927 376.96 93.2483 375.947 96.204Z" fill="#7C543E"/>
<path d="M366.673 104.76L364.646 117.439L370.803 122.806L371.972 123.817L370.569 130.506L371.193 132.373L374.077 128.173L372.206 144.196C369.868 137.585 368.231 123.506 368.231 123.506L363.945 119.306L360.048 118.683C359.892 118.528 359.736 118.45 359.502 118.372C357.086 116.894 353.579 116.194 349.682 116.039C338.693 115.65 324.43 119.383 320.923 120.395L321.858 119.617L330.821 114.25L338.459 114.872C338.459 114.872 348.747 109.194 349.994 109.349C351.241 109.427 360.437 103.438 360.437 103.438C364.958 103.905 375.246 100.171 379.766 98.4597L378.363 100.793L366.673 104.76Z" fill="#7C543E"/>
<path d="M378.441 100.871L376.961 103.282L374.856 121.717L374.077 128.173L371.271 132.373L370.57 130.506L371.972 123.895L370.803 122.806L364.646 117.439L366.673 104.76L378.441 100.871Z" fill="#845C4A"/>
<path d="M373.765 152.597L371.271 155.552L370.024 142.874L369.089 153.841L367.608 156.252L367.842 162.086C364.88 164.109 361.061 166.675 357.008 169.709L351.942 166.598L350.461 159.908L351.942 145.752L357.398 140.307L359.268 131.362L364.88 125.917L365.036 124.439L368.309 123.506C368.309 123.506 369.946 137.585 372.284 144.196L372.128 145.596L373.765 152.597Z" fill="#8E664C"/>
<path d="M357.086 169.709C354.436 171.653 351.63 173.831 348.825 176.165L350.539 159.908L352.02 166.598L357.086 169.709Z" fill="#6B4736"/>
<path d="M346.253 178.265C343.914 180.21 341.576 182.31 339.316 184.41C339.316 184.41 332.068 187.132 322.248 186.432L330.353 175.854L334.796 152.908L335.341 152.208L339.16 177.021L346.253 178.265Z" fill="#6B4736"/>
<path d="M334.796 152.908L330.353 175.854L322.248 186.432C319.676 186.277 316.948 185.888 314.064 185.11L312.661 185.81L333.237 154.075C333.782 153.919 334.094 153.841 334.094 153.841L334.796 152.908Z" fill="#845C4A"/>
<path d="M333.159 154.074L312.583 185.81L280.005 202.767C280.005 202.767 268.782 203.856 253.272 200.511C253.272 200.511 252.103 199.111 250.388 196.777C252.571 196.855 254.441 196.933 254.441 196.933L254.285 189.232C255.22 193.822 261.923 198.955 261.923 198.955L272.601 200.744L283.045 195.688L285.85 183.788C285.85 183.788 286.396 183.088 287.721 182.621C289.046 182.154 290.059 187.521 290.059 187.521C290.059 187.521 291.228 187.288 299.178 186.199C307.128 185.032 314.766 176.632 314.766 176.632L313.207 164.575L306.192 163.953L308.53 166.442C308.53 166.442 291.93 174.687 290.449 175.387C288.968 176.009 287.097 180.832 287.097 180.832L284.993 183.243C284.993 183.243 287.175 170.72 283.98 171.031C280.784 171.342 277.667 177.409 277.667 177.409L273.692 173.287C273.692 173.287 260.209 174.998 256.623 176.243C252.96 177.487 253.428 187.443 253.428 187.443C253.428 187.443 251.947 179.898 250.856 180.287C249.999 180.521 241.036 177.798 236.905 176.554C236.281 175.387 235.814 174.298 235.424 173.287C238.542 174.142 242.672 174.765 248.05 174.22C257.559 173.365 324.664 156.252 333.159 154.074Z" fill="#7C543E"/>
<path d="M314.765 176.632C314.765 176.632 307.128 185.032 299.178 186.199C291.228 187.366 290.059 187.521 290.059 187.521C290.059 187.521 289.046 182.154 287.721 182.621C286.396 183.088 285.85 183.788 285.85 183.788L283.044 195.688L272.601 200.744L261.923 198.955C261.923 198.955 255.22 193.822 254.285 189.232L254.441 196.933C254.441 196.933 252.493 196.933 250.388 196.777C246.647 191.877 240.178 183.01 236.827 176.476C240.958 177.798 249.921 180.521 250.778 180.21C251.947 179.821 253.35 187.366 253.35 187.366C253.35 187.366 252.96 177.332 256.545 176.165C260.208 174.998 273.614 173.209 273.614 173.209L277.589 177.332C277.589 177.332 280.706 171.265 283.902 170.953C287.175 170.642 284.915 183.165 284.915 183.165L287.019 180.754C287.019 180.754 288.89 175.931 290.371 175.309C291.852 174.687 308.452 166.364 308.452 166.364L306.114 163.875L313.129 164.497L314.765 176.632Z" fill="#8E664C"/>
<path d="M359.58 118.45L356.385 123.817L337.446 146.996L333.003 147.463L324.897 154.619L250.154 171.887C250.154 171.887 244.075 173.365 234.801 171.731C234.801 171.653 234.801 171.576 234.723 171.498L233.865 131.051L245.244 114.95C244.933 122.028 244.621 135.173 244.465 137.118C244.231 139.918 249.921 153.452 253.818 153.841C258.104 154.075 272.133 153.141 272.133 153.141C272.133 153.141 290.605 156.252 293.332 156.486C296.06 156.719 318.662 149.252 334.796 134.862C344.304 126.384 348.201 120.006 349.76 116.039C353.657 116.272 357.164 116.894 359.58 118.45Z" fill="#7C543E"/>
<path d="M360.126 118.761L357.865 123.817L335.341 152.208L334.796 152.908L334.016 153.841C334.016 153.841 333.704 153.919 333.159 154.075C324.664 156.252 257.558 173.365 248.05 174.22C242.672 174.687 238.464 174.143 235.424 173.287C235.19 172.742 235.034 172.198 234.956 171.731C244.231 173.442 250.31 171.887 250.31 171.887L325.053 154.619L333.159 147.463L337.601 146.996L356.54 123.817L359.736 118.45C359.814 118.528 359.97 118.606 360.126 118.761Z" fill="#9E795C"/>
<path d="M368.309 123.506L365.036 124.439L364.88 125.917L359.268 131.362L357.398 140.307L351.942 145.752L350.461 159.908L348.747 176.165C347.889 176.865 347.032 177.565 346.175 178.265L339.16 177.021L335.341 152.208L357.866 123.817L360.126 118.761L364.023 119.383L368.309 123.506Z" fill="#7C543E"/>
<path d="M374.934 157.575C374.934 157.575 372.128 159.286 367.842 162.164L367.608 156.33L369.089 153.919L370.024 142.952L371.271 155.63L373.765 152.674L374.934 157.575Z" fill="#6B4736"/>
<path d="M102.149 187.988C98.33 187.521 93.8096 185.577 93.8096 185.577C93.8096 185.577 89.1333 173.676 73 170.02L73.7014 167.22C73.7014 167.22 76.2734 165.042 79.4689 161.931C78.2219 164.186 76.5072 167.609 77.3646 168.62C78.7675 170.176 84.9246 173.831 84.9246 173.831L87.8863 170.876L89.1333 176.787L94.589 183.788L96.8492 182.388L98.6418 177.876L98.9535 182.932C98.9535 182.932 100.356 185.654 102.149 187.988Z" fill="#6B4736"/>
<path d="M105.578 179.587L104.877 187.988C104.799 187.988 104.721 187.988 104.721 187.988C103.942 188.066 103.084 188.066 102.149 187.988C100.434 185.654 99.0315 182.932 99.0315 182.932L98.7198 177.876L96.9272 182.387L94.667 183.788L89.2113 176.787L87.9642 170.876L85.0026 173.831C85.0026 173.831 78.9234 170.176 77.4425 168.62C76.5073 167.609 78.2219 164.186 79.5469 161.931C80.5601 160.919 81.6512 159.83 82.7424 158.664L89.0554 162.008V171.42C88.8995 171.42 97.161 173.754 105.578 179.587Z" fill="#825C46"/>
<path d="M106.046 174.065L105.578 179.587C97.1609 173.676 88.8994 171.42 88.8994 171.42V162.008L82.5864 158.664C85.7819 155.164 89.0553 151.197 90.6141 147.541H93.264L98.5638 156.486L98.8756 162.553L105.5 171.265L106.046 174.065Z" fill="#8E664C"/>
<path d="M106.28 171.731L106.202 172.042L106.046 174.065L105.578 171.265L98.9536 162.475L98.6419 156.408L93.342 147.463H94.5891L100.123 156.408V161.308L106.28 171.731Z" fill="#9E7159"/>
<path d="M124.985 177.176L118.828 178.732C118.828 178.732 116.723 180.521 114.151 182.543C113.294 183.165 112.437 183.788 111.502 184.488C109.008 186.199 106.436 187.755 104.799 188.066L105.5 179.665L105.968 174.143L107.215 181.765L110.566 183.321L113.528 176.165L121.945 174.998V168.309L124.985 177.176Z" fill="#6B4736"/>
<path d="M119.919 162.008L108.54 156.252L104.175 149.563L95.7579 147.463H94.5889L100.123 156.408V161.308L106.28 171.809V172.12L106.124 174.143L107.371 181.765L110.722 183.321L113.684 176.165L122.101 174.998V168.309L119.919 162.008ZM99.0314 149.952L103.162 150.963L107.293 156.564L102.149 160.764V155.164L99.0314 149.952ZM115.009 174.92L107.293 172.042L103.162 161.931L108.462 158.664L118.75 163.564L120.309 168.853L115.009 174.92Z" fill="#825C46"/>
<path d="M102.149 160.764V155.163L99.1094 149.952L103.162 150.963L107.293 156.564L102.149 160.764Z" fill="#8C6353"/>
<path d="M120.464 168.775L115.009 174.998L107.293 172.042L103.162 161.931L108.54 158.664L118.828 163.564L120.464 168.775Z" fill="#8C6353"/>
</g>
<defs>
<linearGradient id="paint0_linear_127_360" x1="90.3714" y1="23.7087" x2="356.28" y2="89.3385" gradientUnits="userSpaceOnUse">
<stop stop-color="#06D163"/>
<stop offset="0.89375" stop-color="#1C7645"/>
</linearGradient>
<clipPath id="clip0_127_360">
<rect width="307" height="167" fill="white" transform="translate(73 36)"/>
</clipPath>
</defs>
</svg>
